<?xml version="1.0" encoding="UTF-8" standalone="no"?>
<!DOCTYPE svg PUBLIC "-//W3C//DTD SVG 1.1//EN"
 "http://www.w3.org/Graphics/SVG/1.1/DTD/svg11.dtd">
<!-- Generated by graphviz version 2.36.0 (20140111.2315)
 -->
<!-- Title: %3 Pages: 1 -->
<svg width="478pt" height="260pt"
 viewBox="0.00 0.00 478.00 260.00" xmlns="http://www.w3.org/2000/svg" xmlns:xlink="http://www.w3.org/1999/xlink">
<g id="graph0" class="graph" transform="scale(1 1) rotate(0) translate(4 256)">
<title>%3</title>
<polygon fill="white" stroke="none" points="-4,4 -4,-256 474,-256 474,4 -4,4"/>
<!-- our_service -->
<g id="node1" class="node"><title>our_service</title>
<ellipse fill="none" stroke="black" cx="267" cy="-162" rx="51.4931" ry="18"/>
<text text-anchor="middle" x="267" y="-158.3" font-family="Times,serif" font-size="14.00">our_service</text>
</g>
<!-- our_service_session -->
<g id="node2" class="node"><title>our_service_session</title>
<ellipse fill="none" stroke="black" cx="81" cy="-90" rx="81.3646" ry="18"/>
<text text-anchor="middle" x="81" y="-86.3" font-family="Times,serif" font-size="14.00">our_service_session</text>
</g>
<!-- our_service&#45;&gt;our_service_session -->
<g id="edge1" class="edge"><title>our_service&#45;&gt;our_service_session</title>
<path fill="none" stroke="black" d="M233.317,-148.324C204.475,-137.469 162.571,-121.699 130.012,-109.445"/>
<polygon fill="black" stroke="black" points="130.825,-106.012 120.233,-105.765 128.359,-112.563 130.825,-106.012"/>
</g>
<!-- ext_service_impostor -->
<g id="node3" class="node"><title>ext_service_impostor</title>
<ellipse fill="none" stroke="black" cx="267" cy="-90" rx="87.1385" ry="18"/>
<text text-anchor="middle" x="267" y="-86.3" font-family="Times,serif" font-size="14.00">ext_service_impostor</text>
</g>
<!-- our_service&#45;&gt;ext_service_impostor -->
<g id="edge2" class="edge"><title>our_service&#45;&gt;ext_service_impostor</title>
<path fill="none" stroke="black" d="M267,-143.697C267,-135.983 267,-126.712 267,-118.112"/>
<polygon fill="black" stroke="black" points="270.5,-118.104 267,-108.104 263.5,-118.104 270.5,-118.104"/>
</g>
<!-- mountebank -->
<g id="node7" class="node"><title>mountebank</title>
<ellipse fill="none" stroke="black" cx="267" cy="-18" rx="54.3924" ry="18"/>
<text text-anchor="middle" x="267" y="-14.3" font-family="Times,serif" font-size="14.00">mountebank</text>
</g>
<!-- ext_service_impostor&#45;&gt;mountebank -->
<g id="edge5" class="edge"><title>ext_service_impostor&#45;&gt;mountebank</title>
<path fill="none" stroke="black" d="M267,-71.6966C267,-63.9827 267,-54.7125 267,-46.1124"/>
<polygon fill="black" stroke="black" points="270.5,-46.1043 267,-36.1043 263.5,-46.1044 270.5,-46.1043"/>
</g>
<!-- db -->
<g id="node4" class="node"><title>db</title>
<ellipse fill="none" stroke="black" cx="392" cy="-162" rx="27" ry="18"/>
<text text-anchor="middle" x="392" y="-158.3" font-family="Times,serif" font-size="14.00">db</text>
</g>
<!-- db_session -->
<g id="node5" class="node"><title>db_session</title>
<ellipse fill="none" stroke="black" cx="421" cy="-90" rx="49.0941" ry="18"/>
<text text-anchor="middle" x="421" y="-86.3" font-family="Times,serif" font-size="14.00">db_session</text>
</g>
<!-- db&#45;&gt;db_session -->
<g id="edge3" class="edge"><title>db&#45;&gt;db_session</title>
<path fill="none" stroke="black" d="M398.873,-144.411C402.218,-136.335 406.321,-126.431 410.082,-117.355"/>
<polygon fill="black" stroke="black" points="413.381,-118.534 413.975,-107.956 406.914,-115.855 413.381,-118.534"/>
</g>
<!-- redis_port -->
<g id="node6" class="node"><title>redis_port</title>
<ellipse fill="none" stroke="black" cx="421" cy="-18" rx="46.2191" ry="18"/>
<text text-anchor="middle" x="421" y="-14.3" font-family="Times,serif" font-size="14.00">redis_port</text>
</g>
<!-- db_session&#45;&gt;redis_port -->
<g id="edge4" class="edge"><title>db_session&#45;&gt;redis_port</title>
<path fill="none" stroke="black" d="M421,-71.6966C421,-63.9827 421,-54.7125 421,-46.1124"/>
<polygon fill="black" stroke="black" points="424.5,-46.1043 421,-36.1043 417.5,-46.1044 424.5,-46.1043"/>
</g>
<!-- test_something -->
<g id="node8" class="node"><title>test_something</title>
<ellipse fill="none" stroke="black" cx="329" cy="-234" rx="64.0172" ry="18"/>
<text text-anchor="middle" x="329" y="-230.3" font-family="Times,serif" font-size="14.00">test_something</text>
</g>
<!-- test_something&#45;&gt;our_service -->
<g id="edge6" class="edge"><title>test_something&#45;&gt;our_service</title>
<path fill="none" stroke="black" d="M314.307,-216.411C306.586,-207.693 296.977,-196.845 288.441,-187.208"/>
<polygon fill="black" stroke="black" points="290.838,-184.635 281.588,-179.47 285.598,-189.276 290.838,-184.635"/>
</g>
<!-- test_something&#45;&gt;db -->
<g id="edge7" class="edge"><title>test_something&#45;&gt;db</title>
<path fill="none" stroke="black" d="M343.93,-216.411C352.199,-207.223 362.597,-195.67 371.606,-185.66"/>
<polygon fill="black" stroke="black" points="374.377,-187.813 378.466,-178.038 369.174,-183.13 374.377,-187.813"/>
</g>
</g>
</svg>
