<?xml version="1.0" encoding="UTF-8" standalone="no"?>
<svg
   xmlns:dc="http://purl.org/dc/elements/1.1/"
   xmlns:cc="http://creativecommons.org/ns#"
   xmlns:rdf="http://www.w3.org/1999/02/22-rdf-syntax-ns#"
   xmlns:svg="http://www.w3.org/2000/svg"
   xmlns="http://www.w3.org/2000/svg"
   xmlns:sodipodi="http://sodipodi.sourceforge.net/DTD/sodipodi-0.dtd"
   xmlns:inkscape="http://www.inkscape.org/namespaces/inkscape"
   version="1.1"
   width="105mm"
   height="74mm"
   viewBox="0 0 41338.612 29133.886"
   id="svg3943"
   inkscape:version="0.91 r13725"
   sodipodi:docname="fdsa.sch.svg">
  <metadata
     id="metadata4529">
    <rdf:RDF>
      <cc:Work
         rdf:about="">
        <dc:format>image/svg+xml</dc:format>
        <dc:type
           rdf:resource="http://purl.org/dc/dcmitype/StillImage" />
        <dc:title>SVG Picture created as fdsa.sch.svg date 2017/07/15 11:52:27 </dc:title>
      </cc:Work>
    </rdf:RDF>
  </metadata>
  <defs
     id="defs4527" />
  <sodipodi:namedview
     pagecolor="#ffffff"
     bordercolor="#666666"
     borderopacity="1"
     objecttolerance="10"
     gridtolerance="10"
     guidetolerance="10"
     inkscape:pageopacity="0"
     inkscape:pageshadow="2"
     inkscape:window-width="1920"
     inkscape:window-height="1043"
     id="namedview4525"
     showgrid="false"
     units="mm"
     inkscape:zoom="1.1772306"
     inkscape:cx="406.83673"
     inkscape:cy="372.05965"
     inkscape:window-x="1366"
     inkscape:window-y="672"
     inkscape:window-maximized="1"
     inkscape:current-layer="svg3943" />
  <title
     id="title3945">SVG Picture created as fdsa.sch.svg date 2017/07/15 11:52:27 </title>
  <desc
     id="desc3947">Picture generated by Eeschema-SVG </desc>
  <g
     style="fill:#000000;fill-opacity:1;stroke:#000000;stroke-linecap:round;stroke-linejoin:round;stroke-opacity:1"
     id="g3949"
     transform="translate(0,-53546.115)" />
  <g
     style="fill:#000000;fill-opacity:0;stroke:#000000;stroke-width:0;stroke-linecap:round;stroke-linejoin:round;stroke-opacity:1"
     id="g3951"
     transform="translate(0,-53546.115)" />
  <g
     style="fill:#000000;fill-opacity:0;stroke:#000000;stroke-width:60;stroke-linecap:round;stroke-linejoin:round;stroke-opacity:1"
     id="g3953"
     transform="translate(3209.0415,-1729.5385)">
    <rect
       x="10500"
       y="6000"
       width="12000"
       height="12000"
       rx="0"
       id="rect3955" />
    <path
       d="m 10500,9000 -3000,0"
       id="path3957"
       inkscape:connector-curvature="0" />
    <path
       d="m 11300,9230 -160,-240"
       id="path3959"
       inkscape:connector-curvature="0" />
    <path
       d="m 11020,9230 0,-500 190,0 50,20 20,20 20,50 0,70 -20,50 -20,20 -50,30 -190,0"
       id="path3961"
       inkscape:connector-curvature="0" />
    <path
       d="m 11520,8960 170,0"
       id="path3963"
       inkscape:connector-curvature="0" />
    <path
       d="m 11760,9230 -240,0 0,-500 240,0"
       id="path3965"
       inkscape:connector-curvature="0" />
    <path
       d="m 11950,9200 70,30 120,0 40,-30 30,-20 20,-50 0,-50 -20,-40 -30,-30 -40,-20 -100,-30 -50,-20 -20,-20 -20,-50 0,-50 20,-50 20,-20 50,-20 120,0 70,20"
       id="path3967"
       inkscape:connector-curvature="0" />
    <path
       d="m 12380,8730 280,0"
       id="path3969"
       inkscape:connector-curvature="0" />
    <path
       d="m 12520,9230 0,-500"
       id="path3971"
       inkscape:connector-curvature="0" />
    <path
       d="m 9140,8880 -280,0"
       id="path3973"
       inkscape:connector-curvature="0" />
    <path
       d="m 9000,8880 0,-500 -50,70 -50,50 -40,20"
       id="path3975"
       inkscape:connector-curvature="0" />
    <path
       d="m 10500,10000 -3000,0"
       id="path3977"
       inkscape:connector-curvature="0" />
    <path
       d="m 11000,10080 230,0"
       id="path3979"
       inkscape:connector-curvature="0" />
    <path
       d="m 10950,10230 160,-500 170,500"
       id="path3981"
       inkscape:connector-curvature="0" />
    <path
       d="m 11450,10230 0,-500 120,0 70,20 50,50 20,50 20,90 0,70 -20,100 -20,40 -50,50 -70,30 -120,0"
       id="path3983"
       inkscape:connector-curvature="0" />
    <path
       d="m 12230,10180 -20,20 -70,30 -50,0 -70,-30 -50,-50 -20,-40 -20,-100 0,-70 20,-90 20,-50 50,-50 70,-20 50,0 70,20 20,20"
       id="path3985"
       inkscape:connector-curvature="0" />
    <path
       d="m 8860,9420 20,-20 50,-20 120,0 40,20 30,20 20,50 0,50 -20,70 -290,290 310,0"
       id="path3987"
       inkscape:connector-curvature="0" />
    <path
       d="m 10500,11000 -3000,0"
       id="path3989"
       inkscape:connector-curvature="0" />
    <path
       d="m 11300,11180 -20,20 -70,30 -50,0 -70,-30 -50,-50 -20,-40 -20,-100 0,-70 20,-90 20,-50 50,-50 70,-20 50,0 70,20 20,20"
       id="path3991"
       inkscape:connector-curvature="0" />
    <path
       d="m 11520,11230 0,-500"
       id="path3993"
       inkscape:connector-curvature="0" />
    <path
       d="m 11520,10960 280,0"
       id="path3995"
       inkscape:connector-curvature="0" />
    <path
       d="m 11800,11230 0,-500"
       id="path3997"
       inkscape:connector-curvature="0" />
    <path
       d="m 11920,11270 380,0"
       id="path3999"
       inkscape:connector-curvature="0" />
    <path
       d="m 12420,11230 0,-500 190,0 50,20 20,20 20,50 0,70 -20,50 -20,20 -50,30 -190,0"
       id="path4001"
       inkscape:connector-curvature="0" />
    <path
       d="m 12920,11230 0,-500 120,0 70,20 50,50 20,50 20,90 0,70 -20,100 -20,40 -50,50 -70,30 -120,0"
       id="path4003"
       inkscape:connector-curvature="0" />
    <path
       d="m 8830,10380 310,0 -170,190 80,0 40,20 30,20 20,50 0,120 -20,50 -30,20 -40,30 -150,0 -40,-30 -30,-20"
       id="path4005"
       inkscape:connector-curvature="0" />
    <path
       d="m 10500,12000 -3000,0"
       id="path4007"
       inkscape:connector-curvature="0" />
    <path
       d="m 11280,11750 -50,-20 -70,0 -70,20 -50,50 -20,50 -20,90 0,70 20,100 20,40 50,50 70,30 50,0 70,-30 20,-20 0,-170 -90,0"
       id="path4009"
       inkscape:connector-curvature="0" />
    <path
       d="m 11520,12230 0,-500 190,0 50,20 20,20 20,50 0,70 -20,50 -20,20 -50,30 -190,0"
       id="path4011"
       inkscape:connector-curvature="0" />
    <path
       d="m 12020,12230 0,-500"
       id="path4013"
       inkscape:connector-curvature="0" />
    <path
       d="m 12350,11730 100,0 50,20 40,50 30,90 0,170 -30,90 -40,50 -50,30 -100,0 -40,-30 -50,-50 -20,-90 0,-170 20,-90 50,-50 40,-20"
       id="path4015"
       inkscape:connector-curvature="0" />
    <path
       d="m 13040,12230 -280,0"
       id="path4017"
       inkscape:connector-curvature="0" />
    <path
       d="m 12900,12230 0,-500 -50,70 -50,50 -40,20"
       id="path4019"
       inkscape:connector-curvature="0" />
    <path
       d="m 13470,11730 -90,0 -50,20 -20,20 -50,80 -20,90 0,190 20,50 20,20 50,30 100,0 40,-30 30,-20 20,-50 0,-120 -20,-50 -30,-20 -40,-20 -100,0 -50,20 -20,20 -20,50"
       id="path4021"
       inkscape:connector-curvature="0" />
    <path
       d="m 9090,11540 0,340"
       id="path4023"
       inkscape:connector-curvature="0" />
    <path
       d="m 8970,11350 -110,360 300,0"
       id="path4025"
       inkscape:connector-curvature="0" />
    <path
       d="m 10500,13000 -3000,0"
       id="path4027"
       inkscape:connector-curvature="0" />
    <path
       d="m 11280,12750 -50,-20 -70,0 -70,20 -50,50 -20,50 -20,90 0,70 20,100 20,40 50,50 70,30 50,0 70,-30 20,-20 0,-170 -90,0"
       id="path4029"
       inkscape:connector-curvature="0" />
    <path
       d="m 11520,13230 0,-500 190,0 50,20 20,20 20,50 0,70 -20,50 -20,20 -50,30 -190,0"
       id="path4031"
       inkscape:connector-curvature="0" />
    <path
       d="m 12020,13230 0,-500"
       id="path4033"
       inkscape:connector-curvature="0" />
    <path
       d="m 12350,12730 100,0 50,20 40,50 30,90 0,170 -30,90 -40,50 -50,30 -100,0 -40,-30 -50,-50 -20,-90 0,-170 20,-90 50,-50 40,-20"
       id="path4035"
       inkscape:connector-curvature="0" />
    <path
       d="m 13040,13230 -280,0"
       id="path4037"
       inkscape:connector-curvature="0" />
    <path
       d="m 12900,13230 0,-500 -50,70 -50,50 -40,20"
       id="path4039"
       inkscape:connector-curvature="0" />
    <path
       d="m 13470,12890 0,340"
       id="path4041"
       inkscape:connector-curvature="0" />
    <path
       d="m 13350,12700 -110,360 300,0"
       id="path4043"
       inkscape:connector-curvature="0" />
    <path
       d="m 9120,12380 -240,0 -20,230 20,-20 50,-20 120,0 40,20 30,20 20,50 0,120 -20,50 -30,20 -40,30 -120,0 -50,-30 -20,-20"
       id="path4045"
       inkscape:connector-curvature="0" />
    <path
       d="m 10500,14000 -3000,0"
       id="path4047"
       inkscape:connector-curvature="0" />
    <path
       d="m 11280,13750 -50,-20 -70,0 -70,20 -50,50 -20,50 -20,90 0,70 20,100 20,40 50,50 70,30 50,0 70,-30 20,-20 0,-170 -90,0"
       id="path4049"
       inkscape:connector-curvature="0" />
    <path
       d="m 11520,14230 0,-500 190,0 50,20 20,20 20,50 0,70 -20,50 -20,20 -50,30 -190,0"
       id="path4051"
       inkscape:connector-curvature="0" />
    <path
       d="m 12020,14230 0,-500"
       id="path4053"
       inkscape:connector-curvature="0" />
    <path
       d="m 12350,13730 100,0 50,20 40,50 30,90 0,170 -30,90 -40,50 -50,30 -100,0 -40,-30 -50,-50 -20,-90 0,-170 20,-90 50,-50 40,-20"
       id="path4055"
       inkscape:connector-curvature="0" />
    <path
       d="m 13040,14230 -280,0"
       id="path4057"
       inkscape:connector-curvature="0" />
    <path
       d="m 12900,14230 0,-500 -50,70 -50,50 -40,20"
       id="path4059"
       inkscape:connector-curvature="0" />
    <path
       d="m 13240,13770 20,-20 50,-20 120,0 40,20 30,20 20,50 0,50 -20,70 -290,290 310,0"
       id="path4061"
       inkscape:connector-curvature="0" />
    <path
       d="m 9090,13380 -90,0 -50,20 -20,20 -50,80 -20,90 0,190 20,50 20,20 50,30 100,0 40,-30 30,-20 20,-50 0,-120 -20,-50 -30,-20 -40,-20 -100,0 -50,20 -20,20 -20,50"
       id="path4063"
       inkscape:connector-curvature="0" />
    <path
       d="m 10500,15000 -3000,0"
       id="path4065"
       inkscape:connector-curvature="0" />
    <path
       d="m 11280,14750 -50,-20 -70,0 -70,20 -50,50 -20,50 -20,90 0,70 20,100 20,40 50,50 70,30 50,0 70,-30 20,-20 0,-170 -90,0"
       id="path4067"
       inkscape:connector-curvature="0" />
    <path
       d="m 11520,15230 0,-500 190,0 50,20 20,20 20,50 0,70 -20,50 -20,20 -50,30 -190,0"
       id="path4069"
       inkscape:connector-curvature="0" />
    <path
       d="m 12020,15230 0,-500"
       id="path4071"
       inkscape:connector-curvature="0" />
    <path
       d="m 12350,14730 100,0 50,20 40,50 30,90 0,170 -30,90 -40,50 -50,30 -100,0 -40,-30 -50,-50 -20,-90 0,-170 20,-90 50,-50 40,-20"
       id="path4073"
       inkscape:connector-curvature="0" />
    <path
       d="m 13040,15230 -280,0"
       id="path4075"
       inkscape:connector-curvature="0" />
    <path
       d="m 12900,15230 0,-500 -50,70 -50,50 -40,20"
       id="path4077"
       inkscape:connector-curvature="0" />
    <path
       d="m 13210,14730 310,0 -170,190 80,0 40,20 30,20 20,50 0,120 -20,50 -30,20 -40,30 -150,0 -40,-30 -30,-20"
       id="path4079"
       inkscape:connector-curvature="0" />
    <path
       d="m 8830,14380 330,0 -210,500"
       id="path4081"
       inkscape:connector-curvature="0" />
    <path
       d="m 10500,16000 -3000,0"
       id="path4083"
       inkscape:connector-curvature="0" />
    <path
       d="m 10950,15730 160,500 170,-500"
       id="path4085"
       inkscape:connector-curvature="0" />
    <path
       d="m 11730,16180 -20,20 -70,30 -50,0 -70,-30 -50,-50 -20,-40 -20,-100 0,-70 20,-90 20,-50 50,-50 70,-20 50,0 70,20 20,20"
       id="path4087"
       inkscape:connector-curvature="0" />
    <path
       d="m 12230,16180 -20,20 -70,30 -50,0 -70,-30 -50,-50 -20,-40 -20,-100 0,-70 20,-90 20,-50 50,-50 70,-20 50,0 70,20 20,20"
       id="path4089"
       inkscape:connector-curvature="0" />
    <path
       d="m 8950,15590 -50,-20 -20,-30 -20,-40 0,-30 20,-50 20,-20 50,-20 100,0 40,20 30,20 20,50 0,30 -20,40 -30,30 -40,20 -100,0 -50,20 -20,30 -20,50 0,90 20,50 20,20 50,30 100,0 40,-30 30,-20 20,-50 0,-90 -20,-50 -30,-30 -40,-20"
       id="path4091"
       inkscape:connector-curvature="0" />
    <path
       d="m 22500,16000 3000,0"
       id="path4093"
       inkscape:connector-curvature="0" />
    <path
       d="m 20960,15750 -50,-20 -70,0 -70,20 -50,50 -20,50 -20,90 0,70 20,100 20,40 50,50 70,30 50,0 70,-30 20,-20 0,-170 -90,0"
       id="path4095"
       inkscape:connector-curvature="0" />
    <path
       d="m 21200,16230 0,-500 280,500 0,-500"
       id="path4097"
       inkscape:connector-curvature="0" />
    <path
       d="m 21720,16230 0,-500 120,0 70,20 50,50 20,50 20,90 0,70 -20,100 -20,40 -50,50 -70,30 -120,0"
       id="path4099"
       inkscape:connector-curvature="0" />
    <path
       d="m 23900,15880 100,0 50,-30 20,-20 50,-70 20,-100 0,-190 -20,-50 -30,-20 -40,-20 -100,0 -50,20 -20,20 -20,50 0,120 20,50 20,20 50,30 100,0 40,-30 30,-20 20,-50"
       id="path4101"
       inkscape:connector-curvature="0" />
    <path
       d="m 22500,15000 3000,0"
       id="path4103"
       inkscape:connector-curvature="0" />
    <path
       d="m 19760,14750 -50,-20 -70,0 -70,20 -50,50 -20,50 -20,90 0,70 20,100 20,40 50,50 70,30 50,0 70,-30 20,-20 0,-170 -90,0"
       id="path4105"
       inkscape:connector-curvature="0" />
    <path
       d="m 20000,15230 0,-500 190,0 50,20 20,20 20,50 0,70 -20,50 -20,20 -50,30 -190,0"
       id="path4107"
       inkscape:connector-curvature="0" />
    <path
       d="m 20500,15230 0,-500"
       id="path4109"
       inkscape:connector-curvature="0" />
    <path
       d="m 20830,14730 100,0 50,20 40,50 30,90 0,170 -30,90 -40,50 -50,30 -100,0 -40,-30 -50,-50 -20,-90 0,-170 20,-90 50,-50 40,-20"
       id="path4111"
       inkscape:connector-curvature="0" />
    <path
       d="m 21520,15230 -280,0"
       id="path4113"
       inkscape:connector-curvature="0" />
    <path
       d="m 21380,15230 0,-500 -50,70 -50,50 -40,20"
       id="path4115"
       inkscape:connector-curvature="0" />
    <path
       d="m 21980,14730 -240,0 -20,230 20,-20 50,-20 120,0 40,20 30,20 20,50 0,120 -20,50 -30,20 -40,30 -120,0 -50,-30 -20,-20"
       id="path4117"
       inkscape:connector-curvature="0" />
    <path
       d="m 23900,14880 -280,0"
       id="path4119"
       inkscape:connector-curvature="0" />
    <path
       d="m 23760,14880 0,-500 -50,70 -50,50 -40,20"
       id="path4121"
       inkscape:connector-curvature="0" />
    <path
       d="m 24210,14380 50,0 50,20 20,20 30,50 20,100 0,120 -20,90 -30,50 -20,20 -50,30 -50,0 -40,-30 -30,-20 -20,-50 -20,-90 0,-120 20,-100 20,-50 30,-20 40,-20"
       id="path4123"
       inkscape:connector-curvature="0" />
    <path
       d="m 17000,18000 0,3000"
       id="path4125"
       inkscape:connector-curvature="0" />
    <path
       d="m 16750,17220 -20,50 0,70 20,70 50,50 50,20 90,20 70,0 100,-20 40,-20 50,-50 30,-70 0,-50 -30,-70 -20,-20 -170,0 0,90"
       id="path4127"
       inkscape:connector-curvature="0" />
    <path
       d="m 17230,16980 -500,0 0,-190 20,-50 20,-20 50,-20 70,0 50,20 20,20 30,50 0,190"
       id="path4129"
       inkscape:connector-curvature="0" />
    <path
       d="m 17230,16480 -500,0"
       id="path4131"
       inkscape:connector-curvature="0" />
    <path
       d="m 16730,16150 0,-100 20,-50 50,-40 90,-30 170,0 90,30 50,40 30,50 0,100 -30,40 -50,50 -90,20 -170,0 -90,-20 -50,-50 -20,-40"
       id="path4133"
       inkscape:connector-curvature="0" />
    <path
       d="m 17230,15460 0,280"
       id="path4135"
       inkscape:connector-curvature="0" />
    <path
       d="m 17230,15600 -500,0 70,50 50,50 20,40"
       id="path4137"
       inkscape:connector-curvature="0" />
    <path
       d="m 16730,15150 0,-50 20,-50 20,-20 50,-30 100,-20 120,0 90,20 50,30 20,20 30,50 0,50 -30,40 -20,30 -50,20 -90,20 -120,0 -100,-20 -50,-20 -20,-30 -20,-40"
       id="path4139"
       inkscape:connector-curvature="0" />
    <path
       d="m 16420,19880 -20,-20 -20,-50 0,-120 20,-40 20,-30 50,-20 50,0 70,20 290,290 0,-310"
       id="path4141"
       inkscape:connector-curvature="0" />
    <path
       d="m 16380,19290 0,-50 20,-50 20,-20 50,-30 100,-20 120,0 90,20 50,30 20,20 30,50 0,50 -30,40 -20,30 -50,20 -90,20 -120,0 -100,-20 -50,-20 -20,-30 -20,-40"
       id="path4143"
       inkscape:connector-curvature="0" />
    <path
       d="m 22500,14000 3000,0"
       id="path4145"
       inkscape:connector-curvature="0" />
    <path
       d="m 20240,13750 -50,-20 -70,0 -70,20 -50,50 -20,50 -20,90 0,70 20,100 20,40 50,50 70,30 50,0 70,-30 20,-20 0,-170 -90,0"
       id="path4147"
       inkscape:connector-curvature="0" />
    <path
       d="m 20480,14230 0,-500 190,0 50,20 20,20 20,50 0,70 -20,50 -20,20 -50,30 -190,0"
       id="path4149"
       inkscape:connector-curvature="0" />
    <path
       d="m 20980,14230 0,-500"
       id="path4151"
       inkscape:connector-curvature="0" />
    <path
       d="m 21310,13730 100,0 50,20 40,50 30,90 0,170 -30,90 -40,50 -50,30 -100,0 -40,-30 -50,-50 -20,-90 0,-170 20,-90 50,-50 40,-20"
       id="path4153"
       inkscape:connector-curvature="0" />
    <path
       d="m 21720,13770 20,-20 50,-20 120,0 40,20 30,20 20,50 0,50 -20,70 -290,290 310,0"
       id="path4155"
       inkscape:connector-curvature="0" />
    <path
       d="m 23900,13880 -280,0"
       id="path4157"
       inkscape:connector-curvature="0" />
    <path
       d="m 23760,13880 0,-500 -50,70 -50,50 -40,20"
       id="path4159"
       inkscape:connector-curvature="0" />
    <path
       d="m 24380,13880 -280,0"
       id="path4161"
       inkscape:connector-curvature="0" />
    <path
       d="m 24240,13880 0,-500 -50,70 -50,50 -40,20"
       id="path4163"
       inkscape:connector-curvature="0" />
    <path
       d="m 18000,18000 0,3000"
       id="path4165"
       inkscape:connector-curvature="0" />
    <path
       d="m 18230,17480 -500,0 350,-170 -350,-160 500,0"
       id="path4167"
       inkscape:connector-curvature="0" />
    <path
       d="m 17730,16820 0,-100 20,-50 50,-40 90,-30 170,0 90,30 50,40 30,50 0,100 -30,40 -50,50 -90,20 -170,0 -90,-20 -50,-50 -20,-40"
       id="path4169"
       inkscape:connector-curvature="0" />
    <path
       d="m 18200,16410 30,-70 0,-120 -30,-40 -20,-30 -50,-20 -50,0 -40,20 -30,30 -20,40 -30,100 -20,50 -20,20 -50,20 -50,0 -50,-20 -20,-20 -20,-50 0,-120 20,-70"
       id="path4171"
       inkscape:connector-curvature="0" />
    <path
       d="m 18230,15910 -500,0"
       id="path4173"
       inkscape:connector-curvature="0" />
    <path
       d="m 17420,19880 -20,-20 -20,-50 0,-120 20,-40 20,-30 50,-20 50,0 70,20 290,290 0,-310"
       id="path4175"
       inkscape:connector-curvature="0" />
    <path
       d="m 17880,19120 0,280"
       id="path4177"
       inkscape:connector-curvature="0" />
    <path
       d="m 17880,19260 -500,0 70,50 50,50 20,40"
       id="path4179"
       inkscape:connector-curvature="0" />
    <path
       d="m 22500,13000 3000,0"
       id="path4181"
       inkscape:connector-curvature="0" />
    <path
       d="m 20240,12750 -50,-20 -70,0 -70,20 -50,50 -20,50 -20,90 0,70 20,100 20,40 50,50 70,30 50,0 70,-30 20,-20 0,-170 -90,0"
       id="path4183"
       inkscape:connector-curvature="0" />
    <path
       d="m 20480,13230 0,-500 190,0 50,20 20,20 20,50 0,70 -20,50 -20,20 -50,30 -190,0"
       id="path4185"
       inkscape:connector-curvature="0" />
    <path
       d="m 20980,13230 0,-500"
       id="path4187"
       inkscape:connector-curvature="0" />
    <path
       d="m 21310,12730 100,0 50,20 40,50 30,90 0,170 -30,90 -40,50 -50,30 -100,0 -40,-30 -50,-50 -20,-90 0,-170 20,-90 50,-50 40,-20"
       id="path4189"
       inkscape:connector-curvature="0" />
    <path
       d="m 21830,12730 50,0 50,20 20,20 30,50 20,100 0,120 -20,90 -30,50 -20,20 -50,30 -50,0 -40,-30 -30,-20 -20,-50 -20,-90 0,-120 20,-100 20,-50 30,-20 40,-20"
       id="path4191"
       inkscape:connector-curvature="0" />
    <path
       d="m 23900,12880 -280,0"
       id="path4193"
       inkscape:connector-curvature="0" />
    <path
       d="m 23760,12880 0,-500 -50,70 -50,50 -40,20"
       id="path4195"
       inkscape:connector-curvature="0" />
    <path
       d="m 24100,12420 20,-20 50,-20 120,0 40,20 30,20 20,50 0,50 -20,70 -290,290 310,0"
       id="path4197"
       inkscape:connector-curvature="0" />
    <path
       d="m 19000,18000 0,3000"
       id="path4199"
       inkscape:connector-curvature="0" />
    <path
       d="m 19200,17500 30,-70 0,-120 -30,-40 -20,-30 -50,-20 -50,0 -40,20 -30,30 -20,40 -30,100 -20,50 -20,20 -50,20 -50,0 -50,-20 -20,-20 -20,-50 0,-120 20,-70"
       id="path4201"
       inkscape:connector-curvature="0" />
    <path
       d="m 19180,16720 20,20 30,70 0,50 -30,70 -50,50 -40,20 -100,20 -70,0 -90,-20 -50,-20 -50,-50 -20,-70 0,-50 20,-70 20,-20"
       id="path4203"
       inkscape:connector-curvature="0" />
    <path
       d="m 19230,16260 0,240 -500,0"
       id="path4205"
       inkscape:connector-curvature="0" />
    <path
       d="m 19230,16100 -500,0"
       id="path4207"
       inkscape:connector-curvature="0" />
    <path
       d="m 19230,15820 -290,210"
       id="path4209"
       inkscape:connector-curvature="0" />
    <path
       d="m 18730,15820 280,280"
       id="path4211"
       inkscape:connector-curvature="0" />
    <path
       d="m 18420,19880 -20,-20 -20,-50 0,-120 20,-40 20,-30 50,-20 50,0 70,20 290,290 0,-310"
       id="path4213"
       inkscape:connector-curvature="0" />
    <path
       d="m 18420,19400 -20,-20 -20,-50 0,-120 20,-40 20,-30 50,-20 50,0 70,20 290,290 0,-310"
       id="path4215"
       inkscape:connector-curvature="0" />
    <path
       d="m 22500,12000 3000,0"
       id="path4217"
       inkscape:connector-curvature="0" />
    <path
       d="m 20240,11750 -50,-20 -70,0 -70,20 -50,50 -20,50 -20,90 0,70 20,100 20,40 50,50 70,30 50,0 70,-30 20,-20 0,-170 -90,0"
       id="path4219"
       inkscape:connector-curvature="0" />
    <path
       d="m 20480,12230 0,-500 190,0 50,20 20,20 20,50 0,70 -20,50 -20,20 -50,30 -190,0"
       id="path4221"
       inkscape:connector-curvature="0" />
    <path
       d="m 20980,12230 0,-500"
       id="path4223"
       inkscape:connector-curvature="0" />
    <path
       d="m 21310,11730 100,0 50,20 40,50 30,90 0,170 -30,90 -40,50 -50,30 -100,0 -40,-30 -50,-50 -20,-90 0,-170 20,-90 50,-50 40,-20"
       id="path4225"
       inkscape:connector-curvature="0" />
    <path
       d="m 21950,11890 0,340"
       id="path4227"
       inkscape:connector-curvature="0" />
    <path
       d="m 21830,11700 -110,360 300,0"
       id="path4229"
       inkscape:connector-curvature="0" />
    <path
       d="m 23900,11880 -280,0"
       id="path4231"
       inkscape:connector-curvature="0" />
    <path
       d="m 23760,11880 0,-500 -50,70 -50,50 -40,20"
       id="path4233"
       inkscape:connector-curvature="0" />
    <path
       d="m 24070,11380 310,0 -170,190 80,0 40,20 30,20 20,50 0,120 -20,50 -30,20 -40,30 -150,0 -40,-30 -30,-20"
       id="path4235"
       inkscape:connector-curvature="0" />
    <path
       d="m 22500,11000 3000,0"
       id="path4237"
       inkscape:connector-curvature="0" />
    <path
       d="m 20240,10750 -50,-20 -70,0 -70,20 -50,50 -20,50 -20,90 0,70 20,100 20,40 50,50 70,30 50,0 70,-30 20,-20 0,-170 -90,0"
       id="path4239"
       inkscape:connector-curvature="0" />
    <path
       d="m 20480,11230 0,-500 190,0 50,20 20,20 20,50 0,70 -20,50 -20,20 -50,30 -190,0"
       id="path4241"
       inkscape:connector-curvature="0" />
    <path
       d="m 20980,11230 0,-500"
       id="path4243"
       inkscape:connector-curvature="0" />
    <path
       d="m 21310,10730 100,0 50,20 40,50 30,90 0,170 -30,90 -40,50 -50,30 -100,0 -40,-30 -50,-50 -20,-90 0,-170 20,-90 50,-50 40,-20"
       id="path4245"
       inkscape:connector-curvature="0" />
    <path
       d="m 21980,10730 -240,0 -20,230 20,-20 50,-20 120,0 40,20 30,20 20,50 0,120 -20,50 -30,20 -40,30 -120,0 -50,-30 -20,-20"
       id="path4247"
       inkscape:connector-curvature="0" />
    <path
       d="m 23900,10880 -280,0"
       id="path4249"
       inkscape:connector-curvature="0" />
    <path
       d="m 23760,10880 0,-500 -50,70 -50,50 -40,20"
       id="path4251"
       inkscape:connector-curvature="0" />
    <path
       d="m 24330,10540 0,340"
       id="path4253"
       inkscape:connector-curvature="0" />
    <path
       d="m 24210,10350 -110,360 300,0"
       id="path4255"
       inkscape:connector-curvature="0" />
    <path
       d="m 22500,10000 3000,0"
       id="path4257"
       inkscape:connector-curvature="0" />
    <path
       d="m 21020,10230 -160,-240"
       id="path4259"
       inkscape:connector-curvature="0" />
    <path
       d="m 20740,10230 0,-500 190,0 50,20 20,20 20,50 0,70 -20,50 -20,20 -50,30 -190,0"
       id="path4261"
       inkscape:connector-curvature="0" />
    <path
       d="m 21190,9730 330,500"
       id="path4263"
       inkscape:connector-curvature="0" />
    <path
       d="m 21520,9730 -330,500"
       id="path4265"
       inkscape:connector-curvature="0" />
    <path
       d="m 21720,10230 0,-500 120,0 70,20 50,50 20,50 20,90 0,70 -20,100 -20,40 -50,50 -70,30 -120,0"
       id="path4267"
       inkscape:connector-curvature="0" />
    <path
       d="m 23900,9880 -280,0"
       id="path4269"
       inkscape:connector-curvature="0" />
    <path
       d="m 23760,9880 0,-500 -50,70 -50,50 -40,20"
       id="path4271"
       inkscape:connector-curvature="0" />
    <path
       d="m 24360,9380 -240,0 -20,230 20,-20 50,-20 120,0 40,20 30,20 20,50 0,120 -20,50 -30,20 -40,30 -120,0 -50,-30 -20,-20"
       id="path4273"
       inkscape:connector-curvature="0" />
    <path
       d="m 22500,9000 3000,0"
       id="path4275"
       inkscape:connector-curvature="0" />
    <path
       d="m 20790,8730 280,0"
       id="path4277"
       inkscape:connector-curvature="0" />
    <path
       d="m 20930,9230 0,-500"
       id="path4279"
       inkscape:connector-curvature="0" />
    <path
       d="m 21190,8730 330,500"
       id="path4281"
       inkscape:connector-curvature="0" />
    <path
       d="m 21520,8730 -330,500"
       id="path4283"
       inkscape:connector-curvature="0" />
    <path
       d="m 21720,9230 0,-500 120,0 70,20 50,50 20,50 20,90 0,70 -20,100 -20,40 -50,50 -70,30 -120,0"
       id="path4285"
       inkscape:connector-curvature="0" />
    <path
       d="m 23900,8880 -280,0"
       id="path4287"
       inkscape:connector-curvature="0" />
    <path
       d="m 23760,8880 0,-500 -50,70 -50,50 -40,20"
       id="path4289"
       inkscape:connector-curvature="0" />
    <path
       d="m 24330,8380 -90,0 -50,20 -20,20 -50,80 -20,90 0,190 20,50 20,20 50,30 100,0 40,-30 30,-20 20,-50 0,-120 -20,-50 -30,-20 -40,-20 -100,0 -50,20 -20,20 -20,50"
       id="path4291"
       inkscape:connector-curvature="0" />
    <path
       d="m 14000,18000 0,3000"
       id="path4293"
       inkscape:connector-curvature="0" />
    <path
       d="m 14180,17200 20,20 30,70 0,50 -30,70 -50,50 -40,20 -100,20 -70,0 -90,-20 -50,-20 -50,-50 -20,-70 0,-50 20,-70 20,-20"
       id="path4295"
       inkscape:connector-curvature="0" />
    <path
       d="m 14200,17000 30,-70 0,-120 -30,-40 -20,-30 -50,-20 -50,0 -40,20 -30,30 -20,40 -30,100 -20,50 -20,20 -50,20 -50,0 -50,-20 -20,-20 -20,-50 0,-120 20,-70"
       id="path4297"
       inkscape:connector-curvature="0" />
    <path
       d="m 13730,16410 0,-50 20,-50 20,-20 50,-30 100,-20 120,0 90,20 50,30 20,20 30,50 0,50 -30,40 -20,30 -50,20 -90,20 -120,0 -100,-20 -50,-20 -20,-30 -20,-40"
       id="path4299"
       inkscape:connector-curvature="0" />
    <path
       d="m 13880,19600 0,280"
       id="path4301"
       inkscape:connector-curvature="0" />
    <path
       d="m 13880,19740 -500,0 70,50 50,50 20,40"
       id="path4303"
       inkscape:connector-curvature="0" />
    <path
       d="m 13380,19430 0,-330 500,210"
       id="path4305"
       inkscape:connector-curvature="0" />
    <path
       d="m 15000,18000 0,3000"
       id="path4307"
       inkscape:connector-curvature="0" />
    <path
       d="m 15230,17480 -500,0 350,-170 -350,-160 500,0"
       id="path4309"
       inkscape:connector-curvature="0" />
    <path
       d="m 15230,16910 -500,0"
       id="path4311"
       inkscape:connector-curvature="0" />
    <path
       d="m 15200,16690 30,-70 0,-120 -30,-40 -20,-30 -50,-20 -50,0 -40,20 -30,30 -20,40 -30,100 -20,50 -20,20 -50,20 -50,0 -50,-20 -20,-20 -20,-50 0,-120 20,-70"
       id="path4313"
       inkscape:connector-curvature="0" />
    <path
       d="m 14730,16100 0,-100 20,-50 50,-40 90,-30 170,0 90,30 50,40 30,50 0,100 -30,40 -50,50 -90,20 -170,0 -90,-20 -50,-50 -20,-40"
       id="path4315"
       inkscape:connector-curvature="0" />
    <path
       d="m 14880,19600 0,280"
       id="path4317"
       inkscape:connector-curvature="0" />
    <path
       d="m 14880,19740 -500,0 70,50 50,50 20,40"
       id="path4319"
       inkscape:connector-curvature="0" />
    <path
       d="m 14590,19310 -20,50 -30,20 -40,20 -30,0 -50,-20 -20,-20 -20,-50 0,-100 20,-40 20,-30 50,-20 30,0 40,20 30,30 20,40 0,100 20,50 30,20 50,20 90,0 50,-20 20,-20 30,-50 0,-100 -30,-40 -20,-30 -50,-20 -90,0 -50,20 -30,30 -20,40"
       id="path4321"
       inkscape:connector-curvature="0" />
    <path
       d="m 16000,18000 0,3000"
       id="path4323"
       inkscape:connector-curvature="0" />
    <path
       d="m 15750,17220 -20,50 0,70 20,70 50,50 50,20 90,20 70,0 100,-20 40,-20 50,-50 30,-70 0,-50 -30,-70 -20,-20 -170,0 0,90"
       id="path4325"
       inkscape:connector-curvature="0" />
    <path
       d="m 16230,16980 -500,0 0,-190 20,-50 20,-20 50,-20 70,0 50,20 20,20 30,50 0,190"
       id="path4327"
       inkscape:connector-curvature="0" />
    <path
       d="m 16230,16480 -500,0"
       id="path4329"
       inkscape:connector-curvature="0" />
    <path
       d="m 15730,16150 0,-100 20,-50 50,-40 90,-30 170,0 90,30 50,40 30,50 0,100 -30,40 -50,50 -90,20 -170,0 -90,-20 -50,-50 -20,-40"
       id="path4331"
       inkscape:connector-curvature="0" />
    <path
       d="m 16230,15700 0,-100 -30,-50 -20,-20 -70,-50 -100,-20 -190,0 -50,20 -20,30 -20,40 0,100 20,50 20,20 50,20 120,0 50,-20 20,-20 30,-50 0,-100 -30,-40 -20,-30 -50,-20"
       id="path4333"
       inkscape:connector-curvature="0" />
    <path
       d="m 15880,19600 0,280"
       id="path4335"
       inkscape:connector-curvature="0" />
    <path
       d="m 15880,19740 -500,0 70,50 50,50 20,40"
       id="path4337"
       inkscape:connector-curvature="0" />
    <path
       d="m 15880,19360 0,-100 -30,-50 -20,-20 -70,-50 -100,-20 -190,0 -50,20 -20,30 -20,40 0,100 20,50 20,20 50,20 120,0 50,-20 20,-20 30,-50 0,-100 -30,-40 -20,-30 -50,-20"
       id="path4339"
       inkscape:connector-curvature="0" />
    <path
       d="m 16150,12700 0,400 20,50 30,20 40,30 100,0 50,-30 20,-20 20,-50 0,-400"
       id="path4341"
       inkscape:connector-curvature="0" />
    <path
       d="m 16740,13150 20,20 -20,30 -20,-30 20,-20 0,50"
       id="path4343"
       inkscape:connector-curvature="0" />
    <path
       d="m 16650,12720 40,-20 120,0 50,20 20,50 0,50 -20,40 -20,30 -50,20 -30,20 -20,50 0,30"
       id="path4345"
       inkscape:connector-curvature="0" />
    <path
       d="m 14890,10930 170,0"
       id="path4347"
       inkscape:connector-curvature="0" />
    <path
       d="m 15130,11200 -240,0 0,-500 240,0"
       id="path4349"
       inkscape:connector-curvature="0" />
    <path
       d="m 15320,11170 70,30 120,0 40,-30 30,-20 20,-50 0,-50 -20,-40 -30,-30 -40,-20 -100,-30 -50,-20 -20,-20 -20,-50 0,-50 20,-50 20,-20 50,-20 120,0 70,20"
       id="path4351"
       inkscape:connector-curvature="0" />
    <path
       d="m 15820,11200 0,-500 190,0 50,20 20,20 20,50 0,70 -20,50 -20,20 -50,30 -190,0"
       id="path4353"
       inkscape:connector-curvature="0" />
    <path
       d="m 16320,11010 380,0"
       id="path4355"
       inkscape:connector-curvature="0" />
    <path
       d="m 17200,11200 -280,0"
       id="path4357"
       inkscape:connector-curvature="0" />
    <path
       d="m 17060,11200 0,-500 -50,70 -50,50 -40,20"
       id="path4359"
       inkscape:connector-curvature="0" />
    <path
       d="m 17400,10740 20,-20 50,-20 120,0 40,20 30,20 20,50 0,50 -20,70 -290,290 310,0"
       id="path4361"
       inkscape:connector-curvature="0" />
    <path
       d="m 17900,10930 170,0"
       id="path4363"
       inkscape:connector-curvature="0" />
    <path
       d="m 18140,11200 -240,0 0,-500 240,0"
       id="path4365"
       inkscape:connector-curvature="0" />
  </g>
  <g
     style="fill:#000000;fill-opacity:0;stroke:#000000;stroke-width:0;stroke-linecap:round;stroke-linejoin:round;stroke-opacity:1"
     id="g4367"
     transform="translate(0,-53546.115)" />
  <g
     style="fill:#000000;fill-opacity:0;stroke:#000000;stroke-width:60;stroke-linecap:round;stroke-linejoin:round;stroke-opacity:1"
     id="g4369"
     transform="translate(3209.0415,-1729.5385)">
    <polyline
       fill="none;"
       points="5500,25000 5500,25500 6000,25500 5500,26000 5000,25500 5500,25500 "
       id="polyline4371" />
    <path
       d="m 5120,26220 -50,-20 -70,0 -70,20 -50,50 -20,50 -20,90 0,70 20,100 20,40 50,50 70,30 50,0 70,-30 20,-20 0,-170 -90,0"
       id="path4373"
       inkscape:connector-curvature="0" />
    <path
       d="m 5360,26700 0,-500 280,500 0,-500"
       id="path4375"
       inkscape:connector-curvature="0" />
    <path
       d="m 5880,26700 0,-500 120,0 70,20 50,50 20,50 20,90 0,70 -20,100 -20,40 -50,50 -70,30 -120,0"
       id="path4377"
       inkscape:connector-curvature="0" />
  </g>
  <g
     style="fill:#000000;fill-opacity:0;stroke:#000000;stroke-width:0;stroke-linecap:round;stroke-linejoin:round;stroke-opacity:1"
     id="g4379"
     transform="translate(0,-53546.115)" />
  <g
     style="fill:#000000;fill-opacity:0;stroke:#000000;stroke-width:60;stroke-linecap:round;stroke-linejoin:round;stroke-opacity:1"
     id="g4381"
     transform="translate(3209.0415,-1729.5385)">
    <polyline
       fill="none;"
       points="5200,21500 5500,21000 "
       id="polyline4383" />
    <polyline
       fill="none;"
       points="5500,22000 5500,21000 "
       id="polyline4385" />
    <polyline
       fill="none;"
       points="5500,21000 5800,21500 "
       id="polyline4387" />
    <path
       d="m 4500,20610 380,0"
       id="path4389"
       inkscape:connector-curvature="0" />
    <path
       d="m 4690,20800 0,-380"
       id="path4391"
       inkscape:connector-curvature="0" />
    <path
       d="m 5070,20300 310,0 -170,190 80,0 40,20 30,20 20,50 0,120 -20,50 -30,20 -40,30 -150,0 -40,-30 -30,-20"
       id="path4393"
       inkscape:connector-curvature="0" />
    <path
       d="m 5600,20750 20,20 -20,30 -20,-30 20,-20 0,50"
       id="path4395"
       inkscape:connector-curvature="0" />
    <path
       d="m 5790,20300 310,0 -170,190 80,0 40,20 30,20 20,50 0,120 -20,50 -30,20 -40,30 -150,0 -40,-30 -30,-20"
       id="path4397"
       inkscape:connector-curvature="0" />
    <path
       d="m 6250,20300 160,500 170,-500"
       id="path4399"
       inkscape:connector-curvature="0" />
  </g>
  <g
     style="fill:#000000;fill-opacity:0;stroke:#000000;stroke-width:0;stroke-linecap:round;stroke-linejoin:round;stroke-opacity:1"
     id="g4401"
     transform="translate(0,-53546.115)" />
  <g
     style="fill:#000000;fill-opacity:0;stroke:#000000;stroke-width:60;stroke-linecap:round;stroke-linejoin:round;stroke-opacity:1"
     id="g4403"
     transform="translate(3209.0415,-1729.5385)">
    <polyline
       fill="none;"
       points="27500,22500 28500,22500 "
       id="polyline4405" />
    <polyline
       fill="none;"
       points="28250,22800 28650,23250 28400,23200 "
       id="polyline4407" />
    <polyline
       fill="none;"
       points="28400,22650 28800,23100 28550,23050 "
       id="polyline4409" />
  </g>
  <g
     style="fill:#000000;fill-opacity:1;stroke:#000000;stroke-width:60;stroke-linecap:round;stroke-linejoin:round;stroke-opacity:1"
     id="g4411"
     transform="translate(3209.0415,-1729.5385)">
    <polyline
       style="fill-rule:evenodd"
       points="27500,21500 28000,22500 28500,21500 "
       id="polyline4413" />
  </g>
  <g
     style="fill:#000000;fill-opacity:0;stroke:#000000;stroke-width:60;stroke-linecap:round;stroke-linejoin:round;stroke-opacity:1"
     id="g4415"
     transform="translate(3209.0415,-1729.5385)">
    <path
       d="m 28000,22500 0,1500"
       id="path4417"
       inkscape:connector-curvature="0" />
    <path
       d="m 27880,23140 0,220"
       id="path4419"
       inkscape:connector-curvature="0" />
    <path
       d="m 27880,23250 -400,0 60,40 40,40 20,30"
       id="path4421"
       inkscape:connector-curvature="0" />
    <path
       d="m 28000,21500 0,-1500"
       id="path4423"
       inkscape:connector-curvature="0" />
    <path
       d="m 27520,20860 -20,-20 -20,-30 0,-100 20,-40 20,-20 40,-10 40,0 50,10 230,230 0,-240"
       id="path4425"
       inkscape:connector-curvature="0" />
    <path
       d="m 27200,22300 0,240 -500,0"
       id="path4427"
       inkscape:connector-curvature="0" />
    <path
       d="m 26930,22140 0,-170"
       id="path4429"
       inkscape:connector-curvature="0" />
    <path
       d="m 27200,21900 0,240 -500,0 0,-240"
       id="path4431"
       inkscape:connector-curvature="0" />
    <path
       d="m 27200,21690 -500,0 0,-120 20,-70 50,-50 50,-20 90,-20 70,0 100,20 40,20 50,50 30,70 0,120"
       id="path4433"
       inkscape:connector-curvature="0" />
    <path
       d="m 28740,23680 -20,-20 -20,-50 0,-120 20,-40 20,-30 50,-20 50,0 70,20 290,290 0,-310"
       id="path4435"
       inkscape:connector-curvature="0" />
    <path
       d="m 29170,23160 30,0 40,20 30,20"
       id="path4437"
       inkscape:connector-curvature="0" />
    <path
       d="m 28700,22700 0,240 230,20 -20,-20 -20,-50 0,-120 20,-40 20,-30 50,-20 120,0 50,20 20,30 30,40 0,120 -30,50 -20,20"
       id="path4439"
       inkscape:connector-curvature="0" />
    <path
       d="m 28700,22530 500,-160 -500,-170"
       id="path4441"
       inkscape:connector-curvature="0" />
    <path
       d="m 28740,21670 -20,-20 -20,-50 0,-120 20,-40 20,-30 50,-20 50,0 70,20 290,290 0,-310"
       id="path4443"
       inkscape:connector-curvature="0" />
    <path
       d="m 29200,21170 -340,0"
       id="path4445"
       inkscape:connector-curvature="0" />
    <path
       d="m 28910,21170 -20,-20 -30,-50 0,-70 30,-50 40,-20 270,0"
       id="path4447"
       inkscape:connector-curvature="0" />
    <path
       d="m 28930,20960 -40,-30 -30,-40 0,-80 30,-40 40,-30 270,0"
       id="path4449"
       inkscape:connector-curvature="0" />
    <path
       d="m 29050,20520 0,-230"
       id="path4451"
       inkscape:connector-curvature="0" />
    <path
       d="m 29200,20570 -500,-160 500,-170"
       id="path4453"
       inkscape:connector-curvature="0" />
  </g>
  <g
     style="fill:#000000;fill-opacity:0;stroke:#000000;stroke-width:0;stroke-linecap:round;stroke-linejoin:round;stroke-opacity:1"
     id="g4455"
     transform="translate(0,-53546.115)" />
  <g
     style="fill:#000000;fill-opacity:0;stroke:#000000;stroke-width:100;stroke-linecap:round;stroke-linejoin:round;stroke-opacity:1"
     id="g4457"
     transform="translate(3209.0415,-1729.5385)">
    <rect
       x="27600"
       y="14000"
       width="800"
       height="2000"
       rx="0"
       id="rect4459" />
  </g>
  <g
     style="fill:#000000;fill-opacity:0;stroke:#000000;stroke-width:60;stroke-linecap:round;stroke-linejoin:round;stroke-opacity:1"
     id="g4461"
     transform="translate(3209.0415,-1729.5385)">
    <path
       d="m 28000,14000 0,-500"
       id="path4463"
       inkscape:connector-curvature="0" />
    <path
       d="m 28000,16000 0,500"
       id="path4465"
       inkscape:connector-curvature="0" />
    <path
       d="m 29000,14850 -240,160"
       id="path4467"
       inkscape:connector-curvature="0" />
    <path
       d="m 29000,15130 -500,0 0,-190 20,-50 20,-20 50,-20 70,0 50,20 20,20 30,50 0,190"
       id="path4469"
       inkscape:connector-curvature="0" />
    <path
       d="m 28150,15310 20,-20 30,20 -30,20 -20,-20 50,0"
       id="path4471"
       inkscape:connector-curvature="0" />
    <path
       d="m 27720,15400 -20,-40 0,-120 20,-50 50,-20 50,0 40,20 30,20 20,50 20,30 50,20 30,0"
       id="path4473"
       inkscape:connector-curvature="0" />
    <path
       d="m 28200,14970 0,-110 -100,0 -20,40 -50,50 -70,20 -120,0 -70,-20 -50,-50 -20,-70 0,-90 20,-70 50,-50 70,-30 120,0 70,30 50,50 20,40 100,0 0,-120"
       id="path4475"
       inkscape:connector-curvature="0" />
    <path
       d="m 5500,22000 2000,0"
       id="path4477"
       inkscape:connector-curvature="0" />
    <path
       d="m 5500,25000 20000,0"
       id="path4479"
       inkscape:connector-curvature="0" />
    <path
       d="m 25500,25000 2500,0"
       id="path4481"
       inkscape:connector-curvature="0" />
    <path
       d="m 7500,16000 0,6000"
       id="path4483"
       inkscape:connector-curvature="0" />
  </g>
  <g
     style="fill:#000000;fill-opacity:0;stroke:#000000;stroke-width:0;stroke-linecap:round;stroke-linejoin:round;stroke-opacity:1"
     id="g4485"
     transform="translate(0,-53546.115)" />
  <g
     style="fill:#000000;fill-opacity:1;stroke:#000000;stroke-width:100;stroke-linecap:round;stroke-linejoin:round;stroke-opacity:1"
     id="g4487"
     transform="translate(3209.0415,-1729.5385)">
    <circle
       cx="7500"
       cy="22000"
       r="200"
       id="circle4489" />
  </g>
  <g
     style="fill:#000000;fill-opacity:1;stroke:#000000;stroke-width:60;stroke-linecap:round;stroke-linejoin:round;stroke-opacity:1"
     id="g4491"
     transform="translate(0,-53546.115)" />
  <g
     style="fill:#000000;fill-opacity:0;stroke:#000000;stroke-width:60;stroke-linecap:round;stroke-linejoin:round;stroke-opacity:1"
     id="g4493"
     transform="translate(3209.0415,-1729.5385)">
    <path
       d="m 25500,16000 0,9000"
       id="path4495"
       inkscape:connector-curvature="0" />
  </g>
  <g
     style="fill:#000000;fill-opacity:0;stroke:#000000;stroke-width:0;stroke-linecap:round;stroke-linejoin:round;stroke-opacity:1"
     id="g4497"
     transform="translate(0,-53546.115)" />
  <g
     style="fill:#000000;fill-opacity:1;stroke:#000000;stroke-width:100;stroke-linecap:round;stroke-linejoin:round;stroke-opacity:1"
     id="g4499"
     transform="translate(3209.0415,-1729.5385)">
    <circle
       cx="25500"
       cy="25000"
       r="200"
       id="circle4501" />
  </g>
  <g
     style="fill:#000000;fill-opacity:1;stroke:#000000;stroke-width:60;stroke-linecap:round;stroke-linejoin:round;stroke-opacity:1"
     id="g4503"
     transform="translate(0,-53546.115)" />
  <g
     style="fill:#000000;fill-opacity:0;stroke:#000000;stroke-width:60;stroke-linecap:round;stroke-linejoin:round;stroke-opacity:1"
     id="g4505"
     transform="translate(3209.0415,-1729.5385)">
    <path
       d="m 28000,16500 0,3500"
       id="path4507"
       inkscape:connector-curvature="0" />
    <path
       d="m 28000,24000 0,1000"
       id="path4509"
       inkscape:connector-curvature="0" />
  </g>
  <g
     style="fill:#000000;fill-opacity:0;stroke:#000000;stroke-width:0;stroke-linecap:round;stroke-linejoin:round;stroke-opacity:1"
     id="g4511"
     transform="translate(0,-53546.115)" />
  <g
     style="fill:#000000;fill-opacity:1;stroke:#000000;stroke-width:100;stroke-linecap:round;stroke-linejoin:round;stroke-opacity:1"
     id="g4513"
     transform="translate(3209.0415,-1729.5385)">
    <circle
       cx="28000"
       cy="25000"
       r="200"
       id="circle4515" />
  </g>
  <g
     style="fill:#000000;fill-opacity:1;stroke:#000000;stroke-width:60;stroke-linecap:round;stroke-linejoin:round;stroke-opacity:1"
     id="g4517"
     transform="translate(0,-53546.115)" />
  <g
     style="fill:#000000;fill-opacity:0;stroke:#000000;stroke-width:60;stroke-linecap:round;stroke-linejoin:round;stroke-opacity:1"
     id="g4519"
     transform="translate(3209.0415,-1729.5385)">
    <path
       d="m 25500,11000 2500,0"
       id="path4521"
       inkscape:connector-curvature="0" />
    <path
       d="m 28000,11000 0,2500"
       id="path4523"
       inkscape:connector-curvature="0" />
  </g>
</svg>
