<?xml version="1.0" encoding="UTF-8" standalone="no"?>
<svg
   xmlns:dc="http://purl.org/dc/elements/1.1/"
   xmlns:cc="http://creativecommons.org/ns#"
   xmlns:rdf="http://www.w3.org/1999/02/22-rdf-syntax-ns#"
   xmlns:svg="http://www.w3.org/2000/svg"
   xmlns="http://www.w3.org/2000/svg"
   xmlns:sodipodi="http://sodipodi.sourceforge.net/DTD/sodipodi-0.dtd"
   xmlns:inkscape="http://www.inkscape.org/namespaces/inkscape"
   version="1.1"
   width="105mm"
   height="74mm"
   viewBox="0 0 41338.612 29133.886"
   id="svg2"
   inkscape:version="0.91 r13725"
   sodipodi:docname="transistor.sch.svg">
  <metadata
     id="metadata636">
    <rdf:RDF>
      <cc:Work
         rdf:about="">
        <dc:format>image/svg+xml</dc:format>
        <dc:type
           rdf:resource="http://purl.org/dc/dcmitype/StillImage" />
        <dc:title>SVG Picture created as transistor.sch.svg date 2017/07/15 12:15:18 </dc:title>
      </cc:Work>
    </rdf:RDF>
  </metadata>
  <defs
     id="defs634" />
  <sodipodi:namedview
     pagecolor="#ffffff"
     bordercolor="#666666"
     borderopacity="1"
     objecttolerance="10"
     gridtolerance="10"
     guidetolerance="10"
     inkscape:pageopacity="0"
     inkscape:pageshadow="2"
     inkscape:window-width="1920"
     inkscape:window-height="1043"
     id="namedview632"
     showgrid="false"
     units="mm"
     inkscape:zoom="1"
     inkscape:cx="526.18463"
     inkscape:cy="372.05965"
     inkscape:window-x="1366"
     inkscape:window-y="672"
     inkscape:window-maximized="1"
     inkscape:current-layer="svg2" />
  <title
     id="title4">SVG Picture created as transistor.sch.svg date 2017/07/15 12:15:18 </title>
  <desc
     id="desc6">Picture generated by Eeschema-SVG </desc>
  <g
     style="fill:#000000;fill-opacity:1;stroke:#000000;stroke-linecap:round;stroke-linejoin:round;stroke-opacity:1"
     id="g8"
     transform="translate(0,-53546.115)" />
  <g
     style="fill:#000000;fill-opacity:0;stroke:#000000;stroke-width:0;stroke-linecap:round;stroke-linejoin:round;stroke-opacity:1"
     id="g10"
     transform="translate(0,-53546.115)" />
  <g
     style="fill:#000000;fill-opacity:0;stroke:#000000;stroke-width:60;stroke-linecap:round;stroke-linejoin:round;stroke-opacity:1"
     id="g12"
     transform="translate(393.70385,-4333.1387)">
    <rect
       x="9000"
       y="6000"
       width="12000"
       height="12000"
       rx="0"
       id="rect14" />
    <path
       d="m 9000,9000 -3000,0"
       id="path16"
       inkscape:connector-curvature="0" />
    <path
       d="M 9800,9230 9640,8990"
       id="path18"
       inkscape:connector-curvature="0" />
    <path
       d="m 9520,9230 0,-500 190,0 50,20 20,20 20,50 0,70 -20,50 -20,20 -50,30 -190,0"
       id="path20"
       inkscape:connector-curvature="0" />
    <path
       d="m 10020,8960 170,0"
       id="path22"
       inkscape:connector-curvature="0" />
    <path
       d="m 10260,9230 -240,0 0,-500 240,0"
       id="path24"
       inkscape:connector-curvature="0" />
    <path
       d="m 10450,9200 70,30 120,0 40,-30 30,-20 20,-50 0,-50 -20,-40 -30,-30 -40,-20 -100,-30 -50,-20 -20,-20 -20,-50 0,-50 20,-50 20,-20 50,-20 120,0 70,20"
       id="path26"
       inkscape:connector-curvature="0" />
    <path
       d="m 10880,8730 280,0"
       id="path28"
       inkscape:connector-curvature="0" />
    <path
       d="m 11020,9230 0,-500"
       id="path30"
       inkscape:connector-curvature="0" />
    <path
       d="m 7640,8880 -280,0"
       id="path32"
       inkscape:connector-curvature="0" />
    <path
       d="m 7500,8880 0,-500 -50,70 -50,50 -40,20"
       id="path34"
       inkscape:connector-curvature="0" />
    <path
       d="m 9000,10000 -3000,0"
       id="path36"
       inkscape:connector-curvature="0" />
    <path
       d="m 9500,10080 230,0"
       id="path38"
       inkscape:connector-curvature="0" />
    <path
       d="m 9450,10230 160,-500 170,500"
       id="path40"
       inkscape:connector-curvature="0" />
    <path
       d="m 9950,10230 0,-500 120,0 70,20 50,50 20,50 20,90 0,70 -20,100 -20,40 -50,50 -70,30 -120,0"
       id="path42"
       inkscape:connector-curvature="0" />
    <path
       d="m 10730,10180 -20,20 -70,30 -50,0 -70,-30 -50,-50 -20,-40 -20,-100 0,-70 20,-90 20,-50 50,-50 70,-20 50,0 70,20 20,20"
       id="path44"
       inkscape:connector-curvature="0" />
    <path
       d="m 7360,9420 20,-20 50,-20 120,0 40,20 30,20 20,50 0,50 -20,70 -290,290 310,0"
       id="path46"
       inkscape:connector-curvature="0" />
    <path
       d="m 9000,11000 -3000,0"
       id="path48"
       inkscape:connector-curvature="0" />
    <path
       d="m 9800,11180 -20,20 -70,30 -50,0 -70,-30 -50,-50 -20,-40 -20,-100 0,-70 20,-90 20,-50 50,-50 70,-20 50,0 70,20 20,20"
       id="path50"
       inkscape:connector-curvature="0" />
    <path
       d="m 10020,11230 0,-500"
       id="path52"
       inkscape:connector-curvature="0" />
    <path
       d="m 10020,10960 280,0"
       id="path54"
       inkscape:connector-curvature="0" />
    <path
       d="m 10300,11230 0,-500"
       id="path56"
       inkscape:connector-curvature="0" />
    <path
       d="m 10420,11270 380,0"
       id="path58"
       inkscape:connector-curvature="0" />
    <path
       d="m 10920,11230 0,-500 190,0 50,20 20,20 20,50 0,70 -20,50 -20,20 -50,30 -190,0"
       id="path60"
       inkscape:connector-curvature="0" />
    <path
       d="m 11420,11230 0,-500 120,0 70,20 50,50 20,50 20,90 0,70 -20,100 -20,40 -50,50 -70,30 -120,0"
       id="path62"
       inkscape:connector-curvature="0" />
    <path
       d="m 7330,10380 310,0 -170,190 80,0 40,20 30,20 20,50 0,120 -20,50 -30,20 -40,30 -150,0 -40,-30 -30,-20"
       id="path64"
       inkscape:connector-curvature="0" />
    <path
       d="m 9000,12000 -3000,0"
       id="path66"
       inkscape:connector-curvature="0" />
    <path
       d="m 9780,11750 -50,-20 -70,0 -70,20 -50,50 -20,50 -20,90 0,70 20,100 20,40 50,50 70,30 50,0 70,-30 20,-20 0,-170 -90,0"
       id="path68"
       inkscape:connector-curvature="0" />
    <path
       d="m 10020,12230 0,-500 190,0 50,20 20,20 20,50 0,70 -20,50 -20,20 -50,30 -190,0"
       id="path70"
       inkscape:connector-curvature="0" />
    <path
       d="m 10520,12230 0,-500"
       id="path72"
       inkscape:connector-curvature="0" />
    <path
       d="m 10850,11730 100,0 50,20 40,50 30,90 0,170 -30,90 -40,50 -50,30 -100,0 -40,-30 -50,-50 -20,-90 0,-170 20,-90 50,-50 40,-20"
       id="path74"
       inkscape:connector-curvature="0" />
    <path
       d="m 11540,12230 -280,0"
       id="path76"
       inkscape:connector-curvature="0" />
    <path
       d="m 11400,12230 0,-500 -50,70 -50,50 -40,20"
       id="path78"
       inkscape:connector-curvature="0" />
    <path
       d="m 11970,11730 -90,0 -50,20 -20,20 -50,80 -20,90 0,190 20,50 20,20 50,30 100,0 40,-30 30,-20 20,-50 0,-120 -20,-50 -30,-20 -40,-20 -100,0 -50,20 -20,20 -20,50"
       id="path80"
       inkscape:connector-curvature="0" />
    <path
       d="m 7590,11540 0,340"
       id="path82"
       inkscape:connector-curvature="0" />
    <path
       d="m 7470,11350 -110,360 300,0"
       id="path84"
       inkscape:connector-curvature="0" />
    <path
       d="m 9000,13000 -3000,0"
       id="path86"
       inkscape:connector-curvature="0" />
    <path
       d="m 9780,12750 -50,-20 -70,0 -70,20 -50,50 -20,50 -20,90 0,70 20,100 20,40 50,50 70,30 50,0 70,-30 20,-20 0,-170 -90,0"
       id="path88"
       inkscape:connector-curvature="0" />
    <path
       d="m 10020,13230 0,-500 190,0 50,20 20,20 20,50 0,70 -20,50 -20,20 -50,30 -190,0"
       id="path90"
       inkscape:connector-curvature="0" />
    <path
       d="m 10520,13230 0,-500"
       id="path92"
       inkscape:connector-curvature="0" />
    <path
       d="m 10850,12730 100,0 50,20 40,50 30,90 0,170 -30,90 -40,50 -50,30 -100,0 -40,-30 -50,-50 -20,-90 0,-170 20,-90 50,-50 40,-20"
       id="path94"
       inkscape:connector-curvature="0" />
    <path
       d="m 11540,13230 -280,0"
       id="path96"
       inkscape:connector-curvature="0" />
    <path
       d="m 11400,13230 0,-500 -50,70 -50,50 -40,20"
       id="path98"
       inkscape:connector-curvature="0" />
    <path
       d="m 11970,12890 0,340"
       id="path100"
       inkscape:connector-curvature="0" />
    <path
       d="m 11850,12700 -110,360 300,0"
       id="path102"
       inkscape:connector-curvature="0" />
    <path
       d="m 7620,12380 -240,0 -20,230 20,-20 50,-20 120,0 40,20 30,20 20,50 0,120 -20,50 -30,20 -40,30 -120,0 -50,-30 -20,-20"
       id="path104"
       inkscape:connector-curvature="0" />
    <path
       d="m 9000,14000 -3000,0"
       id="path106"
       inkscape:connector-curvature="0" />
    <path
       d="m 9780,13750 -50,-20 -70,0 -70,20 -50,50 -20,50 -20,90 0,70 20,100 20,40 50,50 70,30 50,0 70,-30 20,-20 0,-170 -90,0"
       id="path108"
       inkscape:connector-curvature="0" />
    <path
       d="m 10020,14230 0,-500 190,0 50,20 20,20 20,50 0,70 -20,50 -20,20 -50,30 -190,0"
       id="path110"
       inkscape:connector-curvature="0" />
    <path
       d="m 10520,14230 0,-500"
       id="path112"
       inkscape:connector-curvature="0" />
    <path
       d="m 10850,13730 100,0 50,20 40,50 30,90 0,170 -30,90 -40,50 -50,30 -100,0 -40,-30 -50,-50 -20,-90 0,-170 20,-90 50,-50 40,-20"
       id="path114"
       inkscape:connector-curvature="0" />
    <path
       d="m 11540,14230 -280,0"
       id="path116"
       inkscape:connector-curvature="0" />
    <path
       d="m 11400,14230 0,-500 -50,70 -50,50 -40,20"
       id="path118"
       inkscape:connector-curvature="0" />
    <path
       d="m 11740,13770 20,-20 50,-20 120,0 40,20 30,20 20,50 0,50 -20,70 -290,290 310,0"
       id="path120"
       inkscape:connector-curvature="0" />
    <path
       d="m 7590,13380 -90,0 -50,20 -20,20 -50,80 -20,90 0,190 20,50 20,20 50,30 100,0 40,-30 30,-20 20,-50 0,-120 -20,-50 -30,-20 -40,-20 -100,0 -50,20 -20,20 -20,50"
       id="path122"
       inkscape:connector-curvature="0" />
    <path
       d="m 9000,15000 -3000,0"
       id="path124"
       inkscape:connector-curvature="0" />
    <path
       d="m 9780,14750 -50,-20 -70,0 -70,20 -50,50 -20,50 -20,90 0,70 20,100 20,40 50,50 70,30 50,0 70,-30 20,-20 0,-170 -90,0"
       id="path126"
       inkscape:connector-curvature="0" />
    <path
       d="m 10020,15230 0,-500 190,0 50,20 20,20 20,50 0,70 -20,50 -20,20 -50,30 -190,0"
       id="path128"
       inkscape:connector-curvature="0" />
    <path
       d="m 10520,15230 0,-500"
       id="path130"
       inkscape:connector-curvature="0" />
    <path
       d="m 10850,14730 100,0 50,20 40,50 30,90 0,170 -30,90 -40,50 -50,30 -100,0 -40,-30 -50,-50 -20,-90 0,-170 20,-90 50,-50 40,-20"
       id="path132"
       inkscape:connector-curvature="0" />
    <path
       d="m 11540,15230 -280,0"
       id="path134"
       inkscape:connector-curvature="0" />
    <path
       d="m 11400,15230 0,-500 -50,70 -50,50 -40,20"
       id="path136"
       inkscape:connector-curvature="0" />
    <path
       d="m 11710,14730 310,0 -170,190 80,0 40,20 30,20 20,50 0,120 -20,50 -30,20 -40,30 -150,0 -40,-30 -30,-20"
       id="path138"
       inkscape:connector-curvature="0" />
    <path
       d="m 7330,14380 330,0 -210,500"
       id="path140"
       inkscape:connector-curvature="0" />
    <path
       d="m 9000,16000 -3000,0"
       id="path142"
       inkscape:connector-curvature="0" />
    <path
       d="m 9450,15730 160,500 170,-500"
       id="path144"
       inkscape:connector-curvature="0" />
    <path
       d="m 10230,16180 -20,20 -70,30 -50,0 -70,-30 -50,-50 -20,-40 -20,-100 0,-70 20,-90 20,-50 50,-50 70,-20 50,0 70,20 20,20"
       id="path146"
       inkscape:connector-curvature="0" />
    <path
       d="m 10730,16180 -20,20 -70,30 -50,0 -70,-30 -50,-50 -20,-40 -20,-100 0,-70 20,-90 20,-50 50,-50 70,-20 50,0 70,20 20,20"
       id="path148"
       inkscape:connector-curvature="0" />
    <path
       d="m 7450,15590 -50,-20 -20,-30 -20,-40 0,-30 20,-50 20,-20 50,-20 100,0 40,20 30,20 20,50 0,30 -20,40 -30,30 -40,20 -100,0 -50,20 -20,30 -20,50 0,90 20,50 20,20 50,30 100,0 40,-30 30,-20 20,-50 0,-90 -20,-50 -30,-30 -40,-20"
       id="path150"
       inkscape:connector-curvature="0" />
    <path
       d="m 21000,16000 3000,0"
       id="path152"
       inkscape:connector-curvature="0" />
    <path
       d="m 19460,15750 -50,-20 -70,0 -70,20 -50,50 -20,50 -20,90 0,70 20,100 20,40 50,50 70,30 50,0 70,-30 20,-20 0,-170 -90,0"
       id="path154"
       inkscape:connector-curvature="0" />
    <path
       d="m 19700,16230 0,-500 280,500 0,-500"
       id="path156"
       inkscape:connector-curvature="0" />
    <path
       d="m 20220,16230 0,-500 120,0 70,20 50,50 20,50 20,90 0,70 -20,100 -20,40 -50,50 -70,30 -120,0"
       id="path158"
       inkscape:connector-curvature="0" />
    <path
       d="m 22400,15880 100,0 50,-30 20,-20 50,-70 20,-100 0,-190 -20,-50 -30,-20 -40,-20 -100,0 -50,20 -20,20 -20,50 0,120 20,50 20,20 50,30 100,0 40,-30 30,-20 20,-50"
       id="path160"
       inkscape:connector-curvature="0" />
    <path
       d="m 21000,15000 3000,0"
       id="path162"
       inkscape:connector-curvature="0" />
    <path
       d="m 18260,14750 -50,-20 -70,0 -70,20 -50,50 -20,50 -20,90 0,70 20,100 20,40 50,50 70,30 50,0 70,-30 20,-20 0,-170 -90,0"
       id="path164"
       inkscape:connector-curvature="0" />
    <path
       d="m 18500,15230 0,-500 190,0 50,20 20,20 20,50 0,70 -20,50 -20,20 -50,30 -190,0"
       id="path166"
       inkscape:connector-curvature="0" />
    <path
       d="m 19000,15230 0,-500"
       id="path168"
       inkscape:connector-curvature="0" />
    <path
       d="m 19330,14730 100,0 50,20 40,50 30,90 0,170 -30,90 -40,50 -50,30 -100,0 -40,-30 -50,-50 -20,-90 0,-170 20,-90 50,-50 40,-20"
       id="path170"
       inkscape:connector-curvature="0" />
    <path
       d="m 20020,15230 -280,0"
       id="path172"
       inkscape:connector-curvature="0" />
    <path
       d="m 19880,15230 0,-500 -50,70 -50,50 -40,20"
       id="path174"
       inkscape:connector-curvature="0" />
    <path
       d="m 20480,14730 -240,0 -20,230 20,-20 50,-20 120,0 40,20 30,20 20,50 0,120 -20,50 -30,20 -40,30 -120,0 -50,-30 -20,-20"
       id="path176"
       inkscape:connector-curvature="0" />
    <path
       d="m 22400,14880 -280,0"
       id="path178"
       inkscape:connector-curvature="0" />
    <path
       d="m 22260,14880 0,-500 -50,70 -50,50 -40,20"
       id="path180"
       inkscape:connector-curvature="0" />
    <path
       d="m 22710,14380 50,0 50,20 20,20 30,50 20,100 0,120 -20,90 -30,50 -20,20 -50,30 -50,0 -40,-30 -30,-20 -20,-50 -20,-90 0,-120 20,-100 20,-50 30,-20 40,-20"
       id="path182"
       inkscape:connector-curvature="0" />
    <path
       d="m 15500,18000 0,3000"
       id="path184"
       inkscape:connector-curvature="0" />
    <path
       d="m 15250,17220 -20,50 0,70 20,70 50,50 50,20 90,20 70,0 100,-20 40,-20 50,-50 30,-70 0,-50 -30,-70 -20,-20 -170,0 0,90"
       id="path186"
       inkscape:connector-curvature="0" />
    <path
       d="m 15730,16980 -500,0 0,-190 20,-50 20,-20 50,-20 70,0 50,20 20,20 30,50 0,190"
       id="path188"
       inkscape:connector-curvature="0" />
    <path
       d="m 15730,16480 -500,0"
       id="path190"
       inkscape:connector-curvature="0" />
    <path
       d="m 15230,16150 0,-100 20,-50 50,-40 90,-30 170,0 90,30 50,40 30,50 0,100 -30,40 -50,50 -90,20 -170,0 -90,-20 -50,-50 -20,-40"
       id="path192"
       inkscape:connector-curvature="0" />
    <path
       d="m 15730,15460 0,280"
       id="path194"
       inkscape:connector-curvature="0" />
    <path
       d="m 15730,15600 -500,0 70,50 50,50 20,40"
       id="path196"
       inkscape:connector-curvature="0" />
    <path
       d="m 15230,15150 0,-50 20,-50 20,-20 50,-30 100,-20 120,0 90,20 50,30 20,20 30,50 0,50 -30,40 -20,30 -50,20 -90,20 -120,0 -100,-20 -50,-20 -20,-30 -20,-40"
       id="path198"
       inkscape:connector-curvature="0" />
    <path
       d="m 14920,19880 -20,-20 -20,-50 0,-120 20,-40 20,-30 50,-20 50,0 70,20 290,290 0,-310"
       id="path200"
       inkscape:connector-curvature="0" />
    <path
       d="m 14880,19290 0,-50 20,-50 20,-20 50,-30 100,-20 120,0 90,20 50,30 20,20 30,50 0,50 -30,40 -20,30 -50,20 -90,20 -120,0 -100,-20 -50,-20 -20,-30 -20,-40"
       id="path202"
       inkscape:connector-curvature="0" />
    <path
       d="m 21000,14000 3000,0"
       id="path204"
       inkscape:connector-curvature="0" />
    <path
       d="m 18740,13750 -50,-20 -70,0 -70,20 -50,50 -20,50 -20,90 0,70 20,100 20,40 50,50 70,30 50,0 70,-30 20,-20 0,-170 -90,0"
       id="path206"
       inkscape:connector-curvature="0" />
    <path
       d="m 18980,14230 0,-500 190,0 50,20 20,20 20,50 0,70 -20,50 -20,20 -50,30 -190,0"
       id="path208"
       inkscape:connector-curvature="0" />
    <path
       d="m 19480,14230 0,-500"
       id="path210"
       inkscape:connector-curvature="0" />
    <path
       d="m 19810,13730 100,0 50,20 40,50 30,90 0,170 -30,90 -40,50 -50,30 -100,0 -40,-30 -50,-50 -20,-90 0,-170 20,-90 50,-50 40,-20"
       id="path212"
       inkscape:connector-curvature="0" />
    <path
       d="m 20220,13770 20,-20 50,-20 120,0 40,20 30,20 20,50 0,50 -20,70 -290,290 310,0"
       id="path214"
       inkscape:connector-curvature="0" />
    <path
       d="m 22400,13880 -280,0"
       id="path216"
       inkscape:connector-curvature="0" />
    <path
       d="m 22260,13880 0,-500 -50,70 -50,50 -40,20"
       id="path218"
       inkscape:connector-curvature="0" />
    <path
       d="m 22880,13880 -280,0"
       id="path220"
       inkscape:connector-curvature="0" />
    <path
       d="m 22740,13880 0,-500 -50,70 -50,50 -40,20"
       id="path222"
       inkscape:connector-curvature="0" />
    <path
       d="m 16500,18000 0,3000"
       id="path224"
       inkscape:connector-curvature="0" />
    <path
       d="m 16730,17480 -500,0 350,-170 -350,-160 500,0"
       id="path226"
       inkscape:connector-curvature="0" />
    <path
       d="m 16230,16820 0,-100 20,-50 50,-40 90,-30 170,0 90,30 50,40 30,50 0,100 -30,40 -50,50 -90,20 -170,0 -90,-20 -50,-50 -20,-40"
       id="path228"
       inkscape:connector-curvature="0" />
    <path
       d="m 16700,16410 30,-70 0,-120 -30,-40 -20,-30 -50,-20 -50,0 -40,20 -30,30 -20,40 -30,100 -20,50 -20,20 -50,20 -50,0 -50,-20 -20,-20 -20,-50 0,-120 20,-70"
       id="path230"
       inkscape:connector-curvature="0" />
    <path
       d="m 16730,15910 -500,0"
       id="path232"
       inkscape:connector-curvature="0" />
    <path
       d="m 15920,19880 -20,-20 -20,-50 0,-120 20,-40 20,-30 50,-20 50,0 70,20 290,290 0,-310"
       id="path234"
       inkscape:connector-curvature="0" />
    <path
       d="m 16380,19120 0,280"
       id="path236"
       inkscape:connector-curvature="0" />
    <path
       d="m 16380,19260 -500,0 70,50 50,50 20,40"
       id="path238"
       inkscape:connector-curvature="0" />
    <path
       d="m 21000,13000 3000,0"
       id="path240"
       inkscape:connector-curvature="0" />
    <path
       d="m 18740,12750 -50,-20 -70,0 -70,20 -50,50 -20,50 -20,90 0,70 20,100 20,40 50,50 70,30 50,0 70,-30 20,-20 0,-170 -90,0"
       id="path242"
       inkscape:connector-curvature="0" />
    <path
       d="m 18980,13230 0,-500 190,0 50,20 20,20 20,50 0,70 -20,50 -20,20 -50,30 -190,0"
       id="path244"
       inkscape:connector-curvature="0" />
    <path
       d="m 19480,13230 0,-500"
       id="path246"
       inkscape:connector-curvature="0" />
    <path
       d="m 19810,12730 100,0 50,20 40,50 30,90 0,170 -30,90 -40,50 -50,30 -100,0 -40,-30 -50,-50 -20,-90 0,-170 20,-90 50,-50 40,-20"
       id="path248"
       inkscape:connector-curvature="0" />
    <path
       d="m 20330,12730 50,0 50,20 20,20 30,50 20,100 0,120 -20,90 -30,50 -20,20 -50,30 -50,0 -40,-30 -30,-20 -20,-50 -20,-90 0,-120 20,-100 20,-50 30,-20 40,-20"
       id="path250"
       inkscape:connector-curvature="0" />
    <path
       d="m 22400,12880 -280,0"
       id="path252"
       inkscape:connector-curvature="0" />
    <path
       d="m 22260,12880 0,-500 -50,70 -50,50 -40,20"
       id="path254"
       inkscape:connector-curvature="0" />
    <path
       d="m 22600,12420 20,-20 50,-20 120,0 40,20 30,20 20,50 0,50 -20,70 -290,290 310,0"
       id="path256"
       inkscape:connector-curvature="0" />
    <path
       d="m 17500,18000 0,3000"
       id="path258"
       inkscape:connector-curvature="0" />
    <path
       d="m 17700,17500 30,-70 0,-120 -30,-40 -20,-30 -50,-20 -50,0 -40,20 -30,30 -20,40 -30,100 -20,50 -20,20 -50,20 -50,0 -50,-20 -20,-20 -20,-50 0,-120 20,-70"
       id="path260"
       inkscape:connector-curvature="0" />
    <path
       d="m 17680,16720 20,20 30,70 0,50 -30,70 -50,50 -40,20 -100,20 -70,0 -90,-20 -50,-20 -50,-50 -20,-70 0,-50 20,-70 20,-20"
       id="path262"
       inkscape:connector-curvature="0" />
    <path
       d="m 17730,16260 0,240 -500,0"
       id="path264"
       inkscape:connector-curvature="0" />
    <path
       d="m 17730,16100 -500,0"
       id="path266"
       inkscape:connector-curvature="0" />
    <path
       d="m 17730,15820 -290,210"
       id="path268"
       inkscape:connector-curvature="0" />
    <path
       d="m 17230,15820 280,280"
       id="path270"
       inkscape:connector-curvature="0" />
    <path
       d="m 16920,19880 -20,-20 -20,-50 0,-120 20,-40 20,-30 50,-20 50,0 70,20 290,290 0,-310"
       id="path272"
       inkscape:connector-curvature="0" />
    <path
       d="m 16920,19400 -20,-20 -20,-50 0,-120 20,-40 20,-30 50,-20 50,0 70,20 290,290 0,-310"
       id="path274"
       inkscape:connector-curvature="0" />
    <path
       d="m 21000,12000 3000,0"
       id="path276"
       inkscape:connector-curvature="0" />
    <path
       d="m 18740,11750 -50,-20 -70,0 -70,20 -50,50 -20,50 -20,90 0,70 20,100 20,40 50,50 70,30 50,0 70,-30 20,-20 0,-170 -90,0"
       id="path278"
       inkscape:connector-curvature="0" />
    <path
       d="m 18980,12230 0,-500 190,0 50,20 20,20 20,50 0,70 -20,50 -20,20 -50,30 -190,0"
       id="path280"
       inkscape:connector-curvature="0" />
    <path
       d="m 19480,12230 0,-500"
       id="path282"
       inkscape:connector-curvature="0" />
    <path
       d="m 19810,11730 100,0 50,20 40,50 30,90 0,170 -30,90 -40,50 -50,30 -100,0 -40,-30 -50,-50 -20,-90 0,-170 20,-90 50,-50 40,-20"
       id="path284"
       inkscape:connector-curvature="0" />
    <path
       d="m 20450,11890 0,340"
       id="path286"
       inkscape:connector-curvature="0" />
    <path
       d="m 20330,11700 -110,360 300,0"
       id="path288"
       inkscape:connector-curvature="0" />
    <path
       d="m 22400,11880 -280,0"
       id="path290"
       inkscape:connector-curvature="0" />
    <path
       d="m 22260,11880 0,-500 -50,70 -50,50 -40,20"
       id="path292"
       inkscape:connector-curvature="0" />
    <path
       d="m 22570,11380 310,0 -170,190 80,0 40,20 30,20 20,50 0,120 -20,50 -30,20 -40,30 -150,0 -40,-30 -30,-20"
       id="path294"
       inkscape:connector-curvature="0" />
    <path
       d="m 21000,11000 3000,0"
       id="path296"
       inkscape:connector-curvature="0" />
    <path
       d="m 18740,10750 -50,-20 -70,0 -70,20 -50,50 -20,50 -20,90 0,70 20,100 20,40 50,50 70,30 50,0 70,-30 20,-20 0,-170 -90,0"
       id="path298"
       inkscape:connector-curvature="0" />
    <path
       d="m 18980,11230 0,-500 190,0 50,20 20,20 20,50 0,70 -20,50 -20,20 -50,30 -190,0"
       id="path300"
       inkscape:connector-curvature="0" />
    <path
       d="m 19480,11230 0,-500"
       id="path302"
       inkscape:connector-curvature="0" />
    <path
       d="m 19810,10730 100,0 50,20 40,50 30,90 0,170 -30,90 -40,50 -50,30 -100,0 -40,-30 -50,-50 -20,-90 0,-170 20,-90 50,-50 40,-20"
       id="path304"
       inkscape:connector-curvature="0" />
    <path
       d="m 20480,10730 -240,0 -20,230 20,-20 50,-20 120,0 40,20 30,20 20,50 0,120 -20,50 -30,20 -40,30 -120,0 -50,-30 -20,-20"
       id="path306"
       inkscape:connector-curvature="0" />
    <path
       d="m 22400,10880 -280,0"
       id="path308"
       inkscape:connector-curvature="0" />
    <path
       d="m 22260,10880 0,-500 -50,70 -50,50 -40,20"
       id="path310"
       inkscape:connector-curvature="0" />
    <path
       d="m 22830,10540 0,340"
       id="path312"
       inkscape:connector-curvature="0" />
    <path
       d="m 22710,10350 -110,360 300,0"
       id="path314"
       inkscape:connector-curvature="0" />
    <path
       d="m 21000,10000 3000,0"
       id="path316"
       inkscape:connector-curvature="0" />
    <path
       d="m 19520,10230 -160,-240"
       id="path318"
       inkscape:connector-curvature="0" />
    <path
       d="m 19240,10230 0,-500 190,0 50,20 20,20 20,50 0,70 -20,50 -20,20 -50,30 -190,0"
       id="path320"
       inkscape:connector-curvature="0" />
    <path
       d="m 19690,9730 330,500"
       id="path322"
       inkscape:connector-curvature="0" />
    <path
       d="m 20020,9730 -330,500"
       id="path324"
       inkscape:connector-curvature="0" />
    <path
       d="m 20220,10230 0,-500 120,0 70,20 50,50 20,50 20,90 0,70 -20,100 -20,40 -50,50 -70,30 -120,0"
       id="path326"
       inkscape:connector-curvature="0" />
    <path
       d="m 22400,9880 -280,0"
       id="path328"
       inkscape:connector-curvature="0" />
    <path
       d="m 22260,9880 0,-500 -50,70 -50,50 -40,20"
       id="path330"
       inkscape:connector-curvature="0" />
    <path
       d="m 22860,9380 -240,0 -20,230 20,-20 50,-20 120,0 40,20 30,20 20,50 0,120 -20,50 -30,20 -40,30 -120,0 -50,-30 -20,-20"
       id="path332"
       inkscape:connector-curvature="0" />
    <path
       d="m 21000,9000 3000,0"
       id="path334"
       inkscape:connector-curvature="0" />
    <path
       d="m 19290,8730 280,0"
       id="path336"
       inkscape:connector-curvature="0" />
    <path
       d="m 19430,9230 0,-500"
       id="path338"
       inkscape:connector-curvature="0" />
    <path
       d="m 19690,8730 330,500"
       id="path340"
       inkscape:connector-curvature="0" />
    <path
       d="m 20020,8730 -330,500"
       id="path342"
       inkscape:connector-curvature="0" />
    <path
       d="m 20220,9230 0,-500 120,0 70,20 50,50 20,50 20,90 0,70 -20,100 -20,40 -50,50 -70,30 -120,0"
       id="path344"
       inkscape:connector-curvature="0" />
    <path
       d="m 22400,8880 -280,0"
       id="path346"
       inkscape:connector-curvature="0" />
    <path
       d="m 22260,8880 0,-500 -50,70 -50,50 -40,20"
       id="path348"
       inkscape:connector-curvature="0" />
    <path
       d="m 22830,8380 -90,0 -50,20 -20,20 -50,80 -20,90 0,190 20,50 20,20 50,30 100,0 40,-30 30,-20 20,-50 0,-120 -20,-50 -30,-20 -40,-20 -100,0 -50,20 -20,20 -20,50"
       id="path350"
       inkscape:connector-curvature="0" />
    <path
       d="m 12500,18000 0,3000"
       id="path352"
       inkscape:connector-curvature="0" />
    <path
       d="m 12680,17200 20,20 30,70 0,50 -30,70 -50,50 -40,20 -100,20 -70,0 -90,-20 -50,-20 -50,-50 -20,-70 0,-50 20,-70 20,-20"
       id="path354"
       inkscape:connector-curvature="0" />
    <path
       d="m 12700,17000 30,-70 0,-120 -30,-40 -20,-30 -50,-20 -50,0 -40,20 -30,30 -20,40 -30,100 -20,50 -20,20 -50,20 -50,0 -50,-20 -20,-20 -20,-50 0,-120 20,-70"
       id="path356"
       inkscape:connector-curvature="0" />
    <path
       d="m 12230,16410 0,-50 20,-50 20,-20 50,-30 100,-20 120,0 90,20 50,30 20,20 30,50 0,50 -30,40 -20,30 -50,20 -90,20 -120,0 -100,-20 -50,-20 -20,-30 -20,-40"
       id="path358"
       inkscape:connector-curvature="0" />
    <path
       d="m 12380,19600 0,280"
       id="path360"
       inkscape:connector-curvature="0" />
    <path
       d="m 12380,19740 -500,0 70,50 50,50 20,40"
       id="path362"
       inkscape:connector-curvature="0" />
    <path
       d="m 11880,19430 0,-330 500,210"
       id="path364"
       inkscape:connector-curvature="0" />
    <path
       d="m 13500,18000 0,3000"
       id="path366"
       inkscape:connector-curvature="0" />
    <path
       d="m 13730,17480 -500,0 350,-170 -350,-160 500,0"
       id="path368"
       inkscape:connector-curvature="0" />
    <path
       d="m 13730,16910 -500,0"
       id="path370"
       inkscape:connector-curvature="0" />
    <path
       d="m 13700,16690 30,-70 0,-120 -30,-40 -20,-30 -50,-20 -50,0 -40,20 -30,30 -20,40 -30,100 -20,50 -20,20 -50,20 -50,0 -50,-20 -20,-20 -20,-50 0,-120 20,-70"
       id="path372"
       inkscape:connector-curvature="0" />
    <path
       d="m 13230,16100 0,-100 20,-50 50,-40 90,-30 170,0 90,30 50,40 30,50 0,100 -30,40 -50,50 -90,20 -170,0 -90,-20 -50,-50 -20,-40"
       id="path374"
       inkscape:connector-curvature="0" />
    <path
       d="m 13380,19600 0,280"
       id="path376"
       inkscape:connector-curvature="0" />
    <path
       d="m 13380,19740 -500,0 70,50 50,50 20,40"
       id="path378"
       inkscape:connector-curvature="0" />
    <path
       d="m 13090,19310 -20,50 -30,20 -40,20 -30,0 -50,-20 -20,-20 -20,-50 0,-100 20,-40 20,-30 50,-20 30,0 40,20 30,30 20,40 0,100 20,50 30,20 50,20 90,0 50,-20 20,-20 30,-50 0,-100 -30,-40 -20,-30 -50,-20 -90,0 -50,20 -30,30 -20,40"
       id="path380"
       inkscape:connector-curvature="0" />
    <path
       d="m 14500,18000 0,3000"
       id="path382"
       inkscape:connector-curvature="0" />
    <path
       d="m 14250,17220 -20,50 0,70 20,70 50,50 50,20 90,20 70,0 100,-20 40,-20 50,-50 30,-70 0,-50 -30,-70 -20,-20 -170,0 0,90"
       id="path384"
       inkscape:connector-curvature="0" />
    <path
       d="m 14730,16980 -500,0 0,-190 20,-50 20,-20 50,-20 70,0 50,20 20,20 30,50 0,190"
       id="path386"
       inkscape:connector-curvature="0" />
    <path
       d="m 14730,16480 -500,0"
       id="path388"
       inkscape:connector-curvature="0" />
    <path
       d="m 14230,16150 0,-100 20,-50 50,-40 90,-30 170,0 90,30 50,40 30,50 0,100 -30,40 -50,50 -90,20 -170,0 -90,-20 -50,-50 -20,-40"
       id="path390"
       inkscape:connector-curvature="0" />
    <path
       d="m 14730,15700 0,-100 -30,-50 -20,-20 -70,-50 -100,-20 -190,0 -50,20 -20,30 -20,40 0,100 20,50 20,20 50,20 120,0 50,-20 20,-20 30,-50 0,-100 -30,-40 -20,-30 -50,-20"
       id="path392"
       inkscape:connector-curvature="0" />
    <path
       d="m 14380,19600 0,280"
       id="path394"
       inkscape:connector-curvature="0" />
    <path
       d="m 14380,19740 -500,0 70,50 50,50 20,40"
       id="path396"
       inkscape:connector-curvature="0" />
    <path
       d="m 14380,19360 0,-100 -30,-50 -20,-20 -70,-50 -100,-20 -190,0 -50,20 -20,30 -20,40 0,100 20,50 20,20 50,20 120,0 50,-20 20,-20 30,-50 0,-100 -30,-40 -20,-30 -50,-20"
       id="path398"
       inkscape:connector-curvature="0" />
    <path
       d="m 14650,12700 0,400 20,50 30,20 40,30 100,0 50,-30 20,-20 20,-50 0,-400"
       id="path400"
       inkscape:connector-curvature="0" />
    <path
       d="m 15240,13150 20,20 -20,30 -20,-30 20,-20 0,50"
       id="path402"
       inkscape:connector-curvature="0" />
    <path
       d="m 15150,12720 40,-20 120,0 50,20 20,50 0,50 -20,40 -20,30 -50,20 -30,20 -20,50 0,30"
       id="path404"
       inkscape:connector-curvature="0" />
    <path
       d="m 13390,10930 170,0"
       id="path406"
       inkscape:connector-curvature="0" />
    <path
       d="m 13630,11200 -240,0 0,-500 240,0"
       id="path408"
       inkscape:connector-curvature="0" />
    <path
       d="m 13820,11170 70,30 120,0 40,-30 30,-20 20,-50 0,-50 -20,-40 -30,-30 -40,-20 -100,-30 -50,-20 -20,-20 -20,-50 0,-50 20,-50 20,-20 50,-20 120,0 70,20"
       id="path410"
       inkscape:connector-curvature="0" />
    <path
       d="m 14320,11200 0,-500 190,0 50,20 20,20 20,50 0,70 -20,50 -20,20 -50,30 -190,0"
       id="path412"
       inkscape:connector-curvature="0" />
    <path
       d="m 14820,11010 380,0"
       id="path414"
       inkscape:connector-curvature="0" />
    <path
       d="m 15700,11200 -280,0"
       id="path416"
       inkscape:connector-curvature="0" />
    <path
       d="m 15560,11200 0,-500 -50,70 -50,50 -40,20"
       id="path418"
       inkscape:connector-curvature="0" />
    <path
       d="m 15900,10740 20,-20 50,-20 120,0 40,20 30,20 20,50 0,50 -20,70 -290,290 310,0"
       id="path420"
       inkscape:connector-curvature="0" />
    <path
       d="m 16400,10930 170,0"
       id="path422"
       inkscape:connector-curvature="0" />
    <path
       d="m 16640,11200 -240,0 0,-500 240,0"
       id="path424"
       inkscape:connector-curvature="0" />
  </g>
  <g
     style="fill:#000000;fill-opacity:0;stroke:#000000;stroke-width:0;stroke-linecap:round;stroke-linejoin:round;stroke-opacity:1"
     id="g426"
     transform="translate(0,-53546.115)" />
  <g
     style="fill:#000000;fill-opacity:0;stroke:#000000;stroke-width:60;stroke-linecap:round;stroke-linejoin:round;stroke-opacity:1"
     id="g428"
     transform="translate(393.70385,-4333.1387)">
    <polyline
       fill="none;"
       points="7200,27000 7500,26500 "
       id="polyline430" />
    <polyline
       fill="none;"
       points="7500,27500 7500,26500 "
       id="polyline432" />
    <polyline
       fill="none;"
       points="7500,26500 7800,27000 "
       id="polyline434" />
    <path
       d="m 6500,26110 380,0"
       id="path436"
       inkscape:connector-curvature="0" />
    <path
       d="m 6690,26300 0,-380"
       id="path438"
       inkscape:connector-curvature="0" />
    <path
       d="m 7070,25800 310,0 -170,190 80,0 40,20 30,20 20,50 0,120 -20,50 -30,20 -40,30 -150,0 -40,-30 -30,-20"
       id="path440"
       inkscape:connector-curvature="0" />
    <path
       d="m 7600,26250 20,20 -20,30 -20,-30 20,-20 0,50"
       id="path442"
       inkscape:connector-curvature="0" />
    <path
       d="m 7790,25800 310,0 -170,190 80,0 40,20 30,20 20,50 0,120 -20,50 -30,20 -40,30 -150,0 -40,-30 -30,-20"
       id="path444"
       inkscape:connector-curvature="0" />
    <path
       d="m 8250,25800 160,500 170,-500"
       id="path446"
       inkscape:connector-curvature="0" />
  </g>
  <g
     style="fill:#000000;fill-opacity:0;stroke:#000000;stroke-width:0;stroke-linecap:round;stroke-linejoin:round;stroke-opacity:1"
     id="g448"
     transform="translate(0,-53546.115)" />
  <g
     style="fill:#000000;fill-opacity:0;stroke:#000000;stroke-width:60;stroke-linecap:round;stroke-linejoin:round;stroke-opacity:1"
     id="g450"
     transform="translate(393.70385,-4333.1387)">
    <polyline
       fill="none;"
       points="34200,8000 34500,7500 "
       id="polyline452" />
    <polyline
       fill="none;"
       points="34500,8500 34500,7500 "
       id="polyline454" />
    <polyline
       fill="none;"
       points="34500,7500 34800,8000 "
       id="polyline456" />
    <path
       d="m 33620,7110 380,0"
       id="path458"
       inkscape:connector-curvature="0" />
    <path
       d="m 33810,7300 0,-380"
       id="path460"
       inkscape:connector-curvature="0" />
    <path
       d="m 34500,7300 -280,0"
       id="path462"
       inkscape:connector-curvature="0" />
    <path
       d="m 34360,7300 0,-500 -50,70 -50,50 -40,20"
       id="path464"
       inkscape:connector-curvature="0" />
    <path
       d="m 34700,6840 20,-20 50,-20 120,0 40,20 30,20 20,50 0,50 -20,70 -290,290 310,0"
       id="path466"
       inkscape:connector-curvature="0" />
    <path
       d="m 35130,6800 160,500 170,-500"
       id="path468"
       inkscape:connector-curvature="0" />
  </g>
  <g
     style="fill:#000000;fill-opacity:0;stroke:#000000;stroke-width:0;stroke-linecap:round;stroke-linejoin:round;stroke-opacity:1"
     id="g470"
     transform="translate(0,-53546.115)" />
  <g
     style="fill:#000000;fill-opacity:0;stroke:#000000;stroke-width:60;stroke-linecap:round;stroke-linejoin:round;stroke-opacity:1"
     id="g472"
     transform="translate(393.70385,-4333.1387)">
    <polyline
       fill="none;"
       points="6000,29500 6000,30000 6500,30000 6000,30500 5500,30000 6000,30000 "
       id="polyline474" />
    <path
       d="m 5620,30720 -50,-20 -70,0 -70,20 -50,50 -20,50 -20,90 0,70 20,100 20,40 50,50 70,30 50,0 70,-30 20,-20 0,-170 -90,0"
       id="path476"
       inkscape:connector-curvature="0" />
    <path
       d="m 5860,31200 0,-500 280,500 0,-500"
       id="path478"
       inkscape:connector-curvature="0" />
    <path
       d="m 6380,31200 0,-500 120,0 70,20 50,50 20,50 20,90 0,70 -20,100 -20,40 -50,50 -70,30 -120,0"
       id="path480"
       inkscape:connector-curvature="0" />
  </g>
  <g
     style="fill:#000000;fill-opacity:0;stroke:#000000;stroke-width:0;stroke-linecap:round;stroke-linejoin:round;stroke-opacity:1"
     id="g482"
     transform="translate(0,-53546.115)" />
  <g
     style="fill:#000000;fill-opacity:0;stroke:#000000;stroke-width:60;stroke-linecap:round;stroke-linejoin:round;stroke-opacity:1"
     id="g484"
     transform="translate(393.70385,-4333.1387)">
    <polyline
       fill="none;"
       points="34000,13500 35000,13500 "
       id="polyline486" />
    <polyline
       fill="none;"
       points="34750,13800 35150,14250 34900,14200 "
       id="polyline488" />
    <polyline
       fill="none;"
       points="34900,13650 35300,14100 35050,14050 "
       id="polyline490" />
  </g>
  <g
     style="fill:#000000;fill-opacity:1;stroke:#000000;stroke-width:60;stroke-linecap:round;stroke-linejoin:round;stroke-opacity:1"
     id="g492"
     transform="translate(393.70385,-4333.1387)">
    <polyline
       style="fill-rule:evenodd"
       points="34000,12500 34500,13500 35000,12500 "
       id="polyline494" />
  </g>
  <g
     style="fill:#000000;fill-opacity:0;stroke:#000000;stroke-width:60;stroke-linecap:round;stroke-linejoin:round;stroke-opacity:1"
     id="g496"
     transform="translate(393.70385,-4333.1387)">
    <path
       d="m 34500,13500 0,1500"
       id="path498"
       inkscape:connector-curvature="0" />
    <path
       d="m 34380,14140 0,220"
       id="path500"
       inkscape:connector-curvature="0" />
    <path
       d="m 34380,14250 -400,0 60,40 40,40 20,30"
       id="path502"
       inkscape:connector-curvature="0" />
    <path
       d="m 34500,12500 0,-1500"
       id="path504"
       inkscape:connector-curvature="0" />
    <path
       d="m 34020,11860 -20,-20 -20,-30 0,-100 20,-40 20,-20 40,-10 40,0 50,10 230,230 0,-240"
       id="path506"
       inkscape:connector-curvature="0" />
    <path
       d="m 33700,13300 0,240 -500,0"
       id="path508"
       inkscape:connector-curvature="0" />
    <path
       d="m 33430,13140 0,-170"
       id="path510"
       inkscape:connector-curvature="0" />
    <path
       d="m 33700,12900 0,240 -500,0 0,-240"
       id="path512"
       inkscape:connector-curvature="0" />
    <path
       d="m 33700,12690 -500,0 0,-120 20,-70 50,-50 50,-20 90,-20 70,0 100,20 40,20 50,50 30,70 0,120"
       id="path514"
       inkscape:connector-curvature="0" />
    <path
       d="m 35700,14390 0,280"
       id="path516"
       inkscape:connector-curvature="0" />
    <path
       d="m 35700,14530 -500,0 70,50 50,50 20,40"
       id="path518"
       inkscape:connector-curvature="0" />
    <path
       d="m 35240,14190 -20,-20 -20,-50 0,-120 20,-40 20,-30 50,-20 50,0 70,20 290,290 0,-310"
       id="path520"
       inkscape:connector-curvature="0" />
    <path
       d="m 35200,13760 500,-160 -500,-170"
       id="path522"
       inkscape:connector-curvature="0" />
    <path
       d="m 35700,12620 0,280"
       id="path524"
       inkscape:connector-curvature="0" />
    <path
       d="m 35700,12760 -500,0 70,50 50,50 20,40"
       id="path526"
       inkscape:connector-curvature="0" />
    <path
       d="m 35670,12380 30,0 40,20 30,20"
       id="path528"
       inkscape:connector-curvature="0" />
    <path
       d="m 35200,11920 0,240 230,20 -20,-20 -20,-50 0,-120 20,-40 20,-30 50,-20 120,0 50,20 20,30 30,40 0,120 -30,50 -20,20"
       id="path530"
       inkscape:connector-curvature="0" />
    <path
       d="m 35200,11730 500,-120 -360,-100 360,-90 -500,-120"
       id="path532"
       inkscape:connector-curvature="0" />
  </g>
  <g
     style="fill:#000000;fill-opacity:0;stroke:#000000;stroke-width:0;stroke-linecap:round;stroke-linejoin:round;stroke-opacity:1"
     id="g534"
     transform="translate(0,-53546.115)" />
  <g
     style="fill:#000000;fill-opacity:0;stroke:#000000;stroke-width:100;stroke-linecap:round;stroke-linejoin:round;stroke-opacity:1"
     id="g536"
     transform="translate(393.70385,-4333.1387)">
    <rect
       x="27600"
       y="11500"
       width="800"
       height="2000"
       rx="0"
       id="rect538" />
  </g>
  <g
     style="fill:#000000;fill-opacity:0;stroke:#000000;stroke-width:60;stroke-linecap:round;stroke-linejoin:round;stroke-opacity:1"
     id="g540"
     transform="translate(393.70385,-4333.1387)">
    <path
       d="m 28000,11500 0,-500"
       id="path542"
       inkscape:connector-curvature="0" />
    <path
       d="m 28000,13500 0,500"
       id="path544"
       inkscape:connector-curvature="0" />
    <path
       d="m 29000,12350 -240,160"
       id="path546"
       inkscape:connector-curvature="0" />
    <path
       d="m 29000,12630 -500,0 0,-190 20,-50 20,-20 50,-20 70,0 50,20 20,20 30,50 0,190"
       id="path548"
       inkscape:connector-curvature="0" />
    <path
       d="m 28150,12810 20,-20 30,20 -30,20 -20,-20 50,0"
       id="path550"
       inkscape:connector-curvature="0" />
    <path
       d="m 27720,12900 -20,-40 0,-120 20,-50 50,-20 50,0 40,20 30,20 20,50 20,30 50,20 30,0"
       id="path552"
       inkscape:connector-curvature="0" />
    <path
       d="m 28200,12470 0,-110 -100,0 -20,40 -50,50 -70,20 -120,0 -70,-20 -50,-50 -20,-70 0,-90 20,-70 50,-50 70,-30 120,0 70,30 50,50 20,40 100,0 0,-120"
       id="path554"
       inkscape:connector-curvature="0" />
  </g>
  <g
     style="fill:#000000;fill-opacity:0;stroke:#000000;stroke-width:0;stroke-linecap:round;stroke-linejoin:round;stroke-opacity:1"
     id="g556"
     transform="translate(0,-53546.115)" />
  <g
     style="fill:#000000;fill-opacity:0;stroke:#000000;stroke-width:100;stroke-linecap:round;stroke-linejoin:round;stroke-opacity:1"
     id="g558"
     transform="translate(393.70385,-4333.1387)">
    <circle
       cx="34000"
       cy="18500"
       r="1110"
       id="circle560" />
  </g>
  <g
     style="fill:#000000;fill-opacity:0;stroke:#000000;stroke-width:60;stroke-linecap:round;stroke-linejoin:round;stroke-opacity:1"
     id="g562"
     transform="translate(393.70385,-4333.1387)">
    <polyline
       fill="none;"
       points="33750,18250 34500,17500 "
       id="polyline564" />
    <polyline
       fill="none;"
       points="33750,18750 34500,19500 34500,19500 "
       id="polyline566" />
  </g>
  <g
     style="fill:#000000;fill-opacity:0;stroke:#000000;stroke-width:200;stroke-linecap:round;stroke-linejoin:round;stroke-opacity:1"
     id="g568"
     transform="translate(393.70385,-4333.1387)">
    <polyline
       fill="none;"
       points="33750,17750 33750,19250 33750,19250 "
       id="polyline570" />
  </g>
  <g
     style="fill:#000000;fill-opacity:1;stroke:#000000;stroke-width:60;stroke-linecap:round;stroke-linejoin:round;stroke-opacity:1"
     id="g572"
     transform="translate(393.70385,-4333.1387)">
    <polyline
       style="fill-rule:evenodd"
       points="34000,19200 34200,19000 34400,19400 34000,19200 34000,19200 "
       id="polyline574" />
  </g>
  <g
     style="fill:#000000;fill-opacity:0;stroke:#000000;stroke-width:60;stroke-linecap:round;stroke-linejoin:round;stroke-opacity:1"
     id="g576"
     transform="translate(393.70385,-4333.1387)">
    <path
       d="m 33750,18500 -2250,0"
       id="path578"
       inkscape:connector-curvature="0" />
    <path
       d="m 32760,19080 -280,0"
       id="path580"
       inkscape:connector-curvature="0" />
    <path
       d="m 32620,19080 0,-500 -50,70 -50,50 -40,20"
       id="path582"
       inkscape:connector-curvature="0" />
    <path
       d="m 34500,17500 0,-1000"
       id="path584"
       inkscape:connector-curvature="0" />
    <path
       d="m 34620,17140 -20,-20 -20,-50 0,-120 20,-40 20,-30 50,-20 50,0 70,20 290,290 0,-310"
       id="path586"
       inkscape:connector-curvature="0" />
    <path
       d="m 34500,19500 0,1000"
       id="path588"
       inkscape:connector-curvature="0" />
    <path
       d="m 34580,20170 0,-310 190,170 0,-80 20,-40 20,-30 50,-20 120,0 50,20 20,30 30,40 0,150 -30,40 -20,30"
       id="path590"
       inkscape:connector-curvature="0" />
    <path
       d="m 36430,18240 -50,-20 -40,-50 -70,-70 -50,-20 -50,0"
       id="path592"
       inkscape:connector-curvature="0" />
    <path
       d="m 36190,18200 -40,-30 -50,-50 -20,-90 0,-170 20,-90 50,-50 40,-20 100,0 50,20 40,50 30,90 0,170 -30,90 -40,50 -50,30 -100,0"
       id="path594"
       inkscape:connector-curvature="0" />
    <path
       d="m 35230,19200 0,-500 280,500 0,-500"
       id="path596"
       inkscape:connector-curvature="0" />
    <path
       d="m 35750,19200 0,-500 190,0 50,20 20,20 20,50 0,70 -20,50 -20,20 -50,30 -190,0"
       id="path598"
       inkscape:connector-curvature="0" />
    <path
       d="m 36250,19200 0,-500 280,500 0,-500"
       id="path600"
       inkscape:connector-curvature="0" />
    <path
       d="m 34500,8500 0,2500"
       id="path602"
       inkscape:connector-curvature="0" />
    <path
       d="m 34500,15000 0,1500"
       id="path604"
       inkscape:connector-curvature="0" />
    <path
       d="m 28000,18500 4000,0"
       id="path606"
       inkscape:connector-curvature="0" />
    <path
       d="m 6000,29500 28500,0"
       id="path608"
       inkscape:connector-curvature="0" />
    <path
       d="m 24000,29500 0,-13500"
       id="path610"
       inkscape:connector-curvature="0" />
  </g>
  <g
     style="fill:#000000;fill-opacity:0;stroke:#000000;stroke-width:0;stroke-linecap:round;stroke-linejoin:round;stroke-opacity:1"
     id="g612"
     transform="translate(0,-53546.115)" />
  <g
     style="fill:#000000;fill-opacity:1;stroke:#000000;stroke-width:100;stroke-linecap:round;stroke-linejoin:round;stroke-opacity:1"
     id="g614"
     transform="translate(393.70385,-4333.1387)">
    <circle
       cx="24000"
       cy="29500"
       r="200"
       id="circle616" />
  </g>
  <g
     style="fill:#000000;fill-opacity:1;stroke:#000000;stroke-width:60;stroke-linecap:round;stroke-linejoin:round;stroke-opacity:1"
     id="g618"
     transform="translate(0,-53546.115)" />
  <g
     style="fill:#000000;fill-opacity:0;stroke:#000000;stroke-width:60;stroke-linecap:round;stroke-linejoin:round;stroke-opacity:1"
     id="g620"
     transform="translate(393.70385,-4333.1387)">
    <path
       d="m 24000,11000 4000,0"
       id="path622"
       inkscape:connector-curvature="0" />
    <path
       d="m 6000,16000 0,11500"
       id="path624"
       inkscape:connector-curvature="0" />
    <path
       d="m 6000,27500 1500,0"
       id="path626"
       inkscape:connector-curvature="0" />
    <path
       d="m 34500,29500 0,-9000"
       id="path628"
       inkscape:connector-curvature="0" />
    <path
       d="m 28000,14000 0,4500"
       id="path630"
       inkscape:connector-curvature="0" />
  </g>
</svg>
