<?xml version="1.0" encoding="UTF-8" standalone="no"?>
<svg
   xmlns:dc="http://purl.org/dc/elements/1.1/"
   xmlns:cc="http://creativecommons.org/ns#"
   xmlns:rdf="http://www.w3.org/1999/02/22-rdf-syntax-ns#"
   xmlns:svg="http://www.w3.org/2000/svg"
   xmlns="http://www.w3.org/2000/svg"
   xmlns:sodipodi="http://sodipodi.sourceforge.net/DTD/sodipodi-0.dtd"
   xmlns:inkscape="http://www.inkscape.org/namespaces/inkscape"
   version="1.1"
   width="105mm"
   height="74mm"
   viewBox="0 0 41338.612 29133.885"
   id="svg2"
   inkscape:version="0.91 r13725"
   sodipodi:docname="pullup.sch.svg">
  <metadata
     id="metadata562">
    <rdf:RDF>
      <cc:Work
         rdf:about="">
        <dc:format>image/svg+xml</dc:format>
        <dc:type
           rdf:resource="http://purl.org/dc/dcmitype/StillImage" />
        <dc:title>SVG Picture created as pullup.sch.svg date 2017/07/15 12:27:18 </dc:title>
      </cc:Work>
    </rdf:RDF>
  </metadata>
  <defs
     id="defs560" />
  <sodipodi:namedview
     pagecolor="#ffffff"
     bordercolor="#666666"
     borderopacity="1"
     objecttolerance="10"
     gridtolerance="10"
     guidetolerance="10"
     inkscape:pageopacity="0"
     inkscape:pageshadow="2"
     inkscape:window-width="1920"
     inkscape:window-height="1043"
     id="namedview558"
     showgrid="false"
     units="mm"
     inkscape:zoom="1.03"
     inkscape:cx="526.18463"
     inkscape:cy="372.05965"
     inkscape:window-x="1366"
     inkscape:window-y="672"
     inkscape:window-maximized="1"
     inkscape:current-layer="svg2" />
  <title
     id="title4">SVG Picture created as pullup.sch.svg date 2017/07/15 12:27:18 </title>
  <desc
     id="desc6">Picture generated by Eeschema-SVG </desc>
  <g
     style="fill:#000000;fill-opacity:1;stroke:#000000;stroke-linecap:round;stroke-linejoin:round;stroke-opacity:1"
     id="g8"
     transform="translate(0,-53546.114)" />
  <g
     style="fill:#000000;fill-opacity:0;stroke:#000000;stroke-width:0;stroke-linecap:round;stroke-linejoin:round;stroke-opacity:1"
     id="g10"
     transform="translate(0,-53546.114)" />
  <g
     style="fill:#000000;fill-opacity:0;stroke:#000000;stroke-width:60;stroke-linecap:round;stroke-linejoin:round;stroke-opacity:1"
     id="g12"
     transform="translate(-1968.5191,-9057.5834)">
    <rect
       x="15500"
       y="12500"
       width="12000"
       height="12000"
       rx="0"
       id="rect14" />
    <path
       d="m 15500,15500 -3000,0"
       id="path16"
       inkscape:connector-curvature="0" />
    <path
       d="m 16300,15730 -160,-240"
       id="path18"
       inkscape:connector-curvature="0" />
    <path
       d="m 16020,15730 0,-500 190,0 50,20 20,20 20,50 0,70 -20,50 -20,20 -50,30 -190,0"
       id="path20"
       inkscape:connector-curvature="0" />
    <path
       d="m 16520,15460 170,0"
       id="path22"
       inkscape:connector-curvature="0" />
    <path
       d="m 16760,15730 -240,0 0,-500 240,0"
       id="path24"
       inkscape:connector-curvature="0" />
    <path
       d="m 16950,15700 70,30 120,0 40,-30 30,-20 20,-50 0,-50 -20,-40 -30,-30 -40,-20 -100,-30 -50,-20 -20,-20 -20,-50 0,-50 20,-50 20,-20 50,-20 120,0 70,20"
       id="path26"
       inkscape:connector-curvature="0" />
    <path
       d="m 17380,15230 280,0"
       id="path28"
       inkscape:connector-curvature="0" />
    <path
       d="m 17520,15730 0,-500"
       id="path30"
       inkscape:connector-curvature="0" />
    <path
       d="m 14140,15380 -280,0"
       id="path32"
       inkscape:connector-curvature="0" />
    <path
       d="m 14000,15380 0,-500 -50,70 -50,50 -40,20"
       id="path34"
       inkscape:connector-curvature="0" />
    <path
       d="m 15500,16500 -3000,0"
       id="path36"
       inkscape:connector-curvature="0" />
    <path
       d="m 16000,16580 230,0"
       id="path38"
       inkscape:connector-curvature="0" />
    <path
       d="m 15950,16730 160,-500 170,500"
       id="path40"
       inkscape:connector-curvature="0" />
    <path
       d="m 16450,16730 0,-500 120,0 70,20 50,50 20,50 20,90 0,70 -20,100 -20,40 -50,50 -70,30 -120,0"
       id="path42"
       inkscape:connector-curvature="0" />
    <path
       d="m 17230,16680 -20,20 -70,30 -50,0 -70,-30 -50,-50 -20,-40 -20,-100 0,-70 20,-90 20,-50 50,-50 70,-20 50,0 70,20 20,20"
       id="path44"
       inkscape:connector-curvature="0" />
    <path
       d="m 13860,15920 20,-20 50,-20 120,0 40,20 30,20 20,50 0,50 -20,70 -290,290 310,0"
       id="path46"
       inkscape:connector-curvature="0" />
    <path
       d="m 15500,17500 -3000,0"
       id="path48"
       inkscape:connector-curvature="0" />
    <path
       d="m 16300,17680 -20,20 -70,30 -50,0 -70,-30 -50,-50 -20,-40 -20,-100 0,-70 20,-90 20,-50 50,-50 70,-20 50,0 70,20 20,20"
       id="path50"
       inkscape:connector-curvature="0" />
    <path
       d="m 16520,17730 0,-500"
       id="path52"
       inkscape:connector-curvature="0" />
    <path
       d="m 16520,17460 280,0"
       id="path54"
       inkscape:connector-curvature="0" />
    <path
       d="m 16800,17730 0,-500"
       id="path56"
       inkscape:connector-curvature="0" />
    <path
       d="m 16920,17770 380,0"
       id="path58"
       inkscape:connector-curvature="0" />
    <path
       d="m 17420,17730 0,-500 190,0 50,20 20,20 20,50 0,70 -20,50 -20,20 -50,30 -190,0"
       id="path60"
       inkscape:connector-curvature="0" />
    <path
       d="m 17920,17730 0,-500 120,0 70,20 50,50 20,50 20,90 0,70 -20,100 -20,40 -50,50 -70,30 -120,0"
       id="path62"
       inkscape:connector-curvature="0" />
    <path
       d="m 13830,16880 310,0 -170,190 80,0 40,20 30,20 20,50 0,120 -20,50 -30,20 -40,30 -150,0 -40,-30 -30,-20"
       id="path64"
       inkscape:connector-curvature="0" />
    <path
       d="m 15500,18500 -3000,0"
       id="path66"
       inkscape:connector-curvature="0" />
    <path
       d="m 16280,18250 -50,-20 -70,0 -70,20 -50,50 -20,50 -20,90 0,70 20,100 20,40 50,50 70,30 50,0 70,-30 20,-20 0,-170 -90,0"
       id="path68"
       inkscape:connector-curvature="0" />
    <path
       d="m 16520,18730 0,-500 190,0 50,20 20,20 20,50 0,70 -20,50 -20,20 -50,30 -190,0"
       id="path70"
       inkscape:connector-curvature="0" />
    <path
       d="m 17020,18730 0,-500"
       id="path72"
       inkscape:connector-curvature="0" />
    <path
       d="m 17350,18230 100,0 50,20 40,50 30,90 0,170 -30,90 -40,50 -50,30 -100,0 -40,-30 -50,-50 -20,-90 0,-170 20,-90 50,-50 40,-20"
       id="path74"
       inkscape:connector-curvature="0" />
    <path
       d="m 18040,18730 -280,0"
       id="path76"
       inkscape:connector-curvature="0" />
    <path
       d="m 17900,18730 0,-500 -50,70 -50,50 -40,20"
       id="path78"
       inkscape:connector-curvature="0" />
    <path
       d="m 18470,18230 -90,0 -50,20 -20,20 -50,80 -20,90 0,190 20,50 20,20 50,30 100,0 40,-30 30,-20 20,-50 0,-120 -20,-50 -30,-20 -40,-20 -100,0 -50,20 -20,20 -20,50"
       id="path80"
       inkscape:connector-curvature="0" />
    <path
       d="m 14090,18040 0,340"
       id="path82"
       inkscape:connector-curvature="0" />
    <path
       d="m 13970,17850 -110,360 300,0"
       id="path84"
       inkscape:connector-curvature="0" />
    <path
       d="m 15500,19500 -3000,0"
       id="path86"
       inkscape:connector-curvature="0" />
    <path
       d="m 16280,19250 -50,-20 -70,0 -70,20 -50,50 -20,50 -20,90 0,70 20,100 20,40 50,50 70,30 50,0 70,-30 20,-20 0,-170 -90,0"
       id="path88"
       inkscape:connector-curvature="0" />
    <path
       d="m 16520,19730 0,-500 190,0 50,20 20,20 20,50 0,70 -20,50 -20,20 -50,30 -190,0"
       id="path90"
       inkscape:connector-curvature="0" />
    <path
       d="m 17020,19730 0,-500"
       id="path92"
       inkscape:connector-curvature="0" />
    <path
       d="m 17350,19230 100,0 50,20 40,50 30,90 0,170 -30,90 -40,50 -50,30 -100,0 -40,-30 -50,-50 -20,-90 0,-170 20,-90 50,-50 40,-20"
       id="path94"
       inkscape:connector-curvature="0" />
    <path
       d="m 18040,19730 -280,0"
       id="path96"
       inkscape:connector-curvature="0" />
    <path
       d="m 17900,19730 0,-500 -50,70 -50,50 -40,20"
       id="path98"
       inkscape:connector-curvature="0" />
    <path
       d="m 18470,19390 0,340"
       id="path100"
       inkscape:connector-curvature="0" />
    <path
       d="m 18350,19200 -110,360 300,0"
       id="path102"
       inkscape:connector-curvature="0" />
    <path
       d="m 14120,18880 -240,0 -20,230 20,-20 50,-20 120,0 40,20 30,20 20,50 0,120 -20,50 -30,20 -40,30 -120,0 -50,-30 -20,-20"
       id="path104"
       inkscape:connector-curvature="0" />
    <path
       d="m 15500,20500 -3000,0"
       id="path106"
       inkscape:connector-curvature="0" />
    <path
       d="m 16280,20250 -50,-20 -70,0 -70,20 -50,50 -20,50 -20,90 0,70 20,100 20,40 50,50 70,30 50,0 70,-30 20,-20 0,-170 -90,0"
       id="path108"
       inkscape:connector-curvature="0" />
    <path
       d="m 16520,20730 0,-500 190,0 50,20 20,20 20,50 0,70 -20,50 -20,20 -50,30 -190,0"
       id="path110"
       inkscape:connector-curvature="0" />
    <path
       d="m 17020,20730 0,-500"
       id="path112"
       inkscape:connector-curvature="0" />
    <path
       d="m 17350,20230 100,0 50,20 40,50 30,90 0,170 -30,90 -40,50 -50,30 -100,0 -40,-30 -50,-50 -20,-90 0,-170 20,-90 50,-50 40,-20"
       id="path114"
       inkscape:connector-curvature="0" />
    <path
       d="m 18040,20730 -280,0"
       id="path116"
       inkscape:connector-curvature="0" />
    <path
       d="m 17900,20730 0,-500 -50,70 -50,50 -40,20"
       id="path118"
       inkscape:connector-curvature="0" />
    <path
       d="m 18240,20270 20,-20 50,-20 120,0 40,20 30,20 20,50 0,50 -20,70 -290,290 310,0"
       id="path120"
       inkscape:connector-curvature="0" />
    <path
       d="m 14090,19880 -90,0 -50,20 -20,20 -50,80 -20,90 0,190 20,50 20,20 50,30 100,0 40,-30 30,-20 20,-50 0,-120 -20,-50 -30,-20 -40,-20 -100,0 -50,20 -20,20 -20,50"
       id="path122"
       inkscape:connector-curvature="0" />
    <path
       d="m 15500,21500 -3000,0"
       id="path124"
       inkscape:connector-curvature="0" />
    <path
       d="m 16280,21250 -50,-20 -70,0 -70,20 -50,50 -20,50 -20,90 0,70 20,100 20,40 50,50 70,30 50,0 70,-30 20,-20 0,-170 -90,0"
       id="path126"
       inkscape:connector-curvature="0" />
    <path
       d="m 16520,21730 0,-500 190,0 50,20 20,20 20,50 0,70 -20,50 -20,20 -50,30 -190,0"
       id="path128"
       inkscape:connector-curvature="0" />
    <path
       d="m 17020,21730 0,-500"
       id="path130"
       inkscape:connector-curvature="0" />
    <path
       d="m 17350,21230 100,0 50,20 40,50 30,90 0,170 -30,90 -40,50 -50,30 -100,0 -40,-30 -50,-50 -20,-90 0,-170 20,-90 50,-50 40,-20"
       id="path132"
       inkscape:connector-curvature="0" />
    <path
       d="m 18040,21730 -280,0"
       id="path134"
       inkscape:connector-curvature="0" />
    <path
       d="m 17900,21730 0,-500 -50,70 -50,50 -40,20"
       id="path136"
       inkscape:connector-curvature="0" />
    <path
       d="m 18210,21230 310,0 -170,190 80,0 40,20 30,20 20,50 0,120 -20,50 -30,20 -40,30 -150,0 -40,-30 -30,-20"
       id="path138"
       inkscape:connector-curvature="0" />
    <path
       d="m 13830,20880 330,0 -210,500"
       id="path140"
       inkscape:connector-curvature="0" />
    <path
       d="m 15500,22500 -3000,0"
       id="path142"
       inkscape:connector-curvature="0" />
    <path
       d="m 15950,22230 160,500 170,-500"
       id="path144"
       inkscape:connector-curvature="0" />
    <path
       d="m 16730,22680 -20,20 -70,30 -50,0 -70,-30 -50,-50 -20,-40 -20,-100 0,-70 20,-90 20,-50 50,-50 70,-20 50,0 70,20 20,20"
       id="path146"
       inkscape:connector-curvature="0" />
    <path
       d="m 17230,22680 -20,20 -70,30 -50,0 -70,-30 -50,-50 -20,-40 -20,-100 0,-70 20,-90 20,-50 50,-50 70,-20 50,0 70,20 20,20"
       id="path148"
       inkscape:connector-curvature="0" />
    <path
       d="m 13950,22090 -50,-20 -20,-30 -20,-40 0,-30 20,-50 20,-20 50,-20 100,0 40,20 30,20 20,50 0,30 -20,40 -30,30 -40,20 -100,0 -50,20 -20,30 -20,50 0,90 20,50 20,20 50,30 100,0 40,-30 30,-20 20,-50 0,-90 -20,-50 -30,-30 -40,-20"
       id="path150"
       inkscape:connector-curvature="0" />
    <path
       d="m 27500,22500 3000,0"
       id="path152"
       inkscape:connector-curvature="0" />
    <path
       d="m 25960,22250 -50,-20 -70,0 -70,20 -50,50 -20,50 -20,90 0,70 20,100 20,40 50,50 70,30 50,0 70,-30 20,-20 0,-170 -90,0"
       id="path154"
       inkscape:connector-curvature="0" />
    <path
       d="m 26200,22730 0,-500 280,500 0,-500"
       id="path156"
       inkscape:connector-curvature="0" />
    <path
       d="m 26720,22730 0,-500 120,0 70,20 50,50 20,50 20,90 0,70 -20,100 -20,40 -50,50 -70,30 -120,0"
       id="path158"
       inkscape:connector-curvature="0" />
    <path
       d="m 28900,22380 100,0 50,-30 20,-20 50,-70 20,-100 0,-190 -20,-50 -30,-20 -40,-20 -100,0 -50,20 -20,20 -20,50 0,120 20,50 20,20 50,30 100,0 40,-30 30,-20 20,-50"
       id="path160"
       inkscape:connector-curvature="0" />
    <path
       d="m 27500,21500 3000,0"
       id="path162"
       inkscape:connector-curvature="0" />
    <path
       d="m 24760,21250 -50,-20 -70,0 -70,20 -50,50 -20,50 -20,90 0,70 20,100 20,40 50,50 70,30 50,0 70,-30 20,-20 0,-170 -90,0"
       id="path164"
       inkscape:connector-curvature="0" />
    <path
       d="m 25000,21730 0,-500 190,0 50,20 20,20 20,50 0,70 -20,50 -20,20 -50,30 -190,0"
       id="path166"
       inkscape:connector-curvature="0" />
    <path
       d="m 25500,21730 0,-500"
       id="path168"
       inkscape:connector-curvature="0" />
    <path
       d="m 25830,21230 100,0 50,20 40,50 30,90 0,170 -30,90 -40,50 -50,30 -100,0 -40,-30 -50,-50 -20,-90 0,-170 20,-90 50,-50 40,-20"
       id="path170"
       inkscape:connector-curvature="0" />
    <path
       d="m 26520,21730 -280,0"
       id="path172"
       inkscape:connector-curvature="0" />
    <path
       d="m 26380,21730 0,-500 -50,70 -50,50 -40,20"
       id="path174"
       inkscape:connector-curvature="0" />
    <path
       d="m 26980,21230 -240,0 -20,230 20,-20 50,-20 120,0 40,20 30,20 20,50 0,120 -20,50 -30,20 -40,30 -120,0 -50,-30 -20,-20"
       id="path176"
       inkscape:connector-curvature="0" />
    <path
       d="m 28900,21380 -280,0"
       id="path178"
       inkscape:connector-curvature="0" />
    <path
       d="m 28760,21380 0,-500 -50,70 -50,50 -40,20"
       id="path180"
       inkscape:connector-curvature="0" />
    <path
       d="m 29210,20880 50,0 50,20 20,20 30,50 20,100 0,120 -20,90 -30,50 -20,20 -50,30 -50,0 -40,-30 -30,-20 -20,-50 -20,-90 0,-120 20,-100 20,-50 30,-20 40,-20"
       id="path182"
       inkscape:connector-curvature="0" />
    <path
       d="m 22000,24500 0,3000"
       id="path184"
       inkscape:connector-curvature="0" />
    <path
       d="m 21750,23720 -20,50 0,70 20,70 50,50 50,20 90,20 70,0 100,-20 40,-20 50,-50 30,-70 0,-50 -30,-70 -20,-20 -170,0 0,90"
       id="path186"
       inkscape:connector-curvature="0" />
    <path
       d="m 22230,23480 -500,0 0,-190 20,-50 20,-20 50,-20 70,0 50,20 20,20 30,50 0,190"
       id="path188"
       inkscape:connector-curvature="0" />
    <path
       d="m 22230,22980 -500,0"
       id="path190"
       inkscape:connector-curvature="0" />
    <path
       d="m 21730,22650 0,-100 20,-50 50,-40 90,-30 170,0 90,30 50,40 30,50 0,100 -30,40 -50,50 -90,20 -170,0 -90,-20 -50,-50 -20,-40"
       id="path192"
       inkscape:connector-curvature="0" />
    <path
       d="m 22230,21960 0,280"
       id="path194"
       inkscape:connector-curvature="0" />
    <path
       d="m 22230,22100 -500,0 70,50 50,50 20,40"
       id="path196"
       inkscape:connector-curvature="0" />
    <path
       d="m 21730,21650 0,-50 20,-50 20,-20 50,-30 100,-20 120,0 90,20 50,30 20,20 30,50 0,50 -30,40 -20,30 -50,20 -90,20 -120,0 -100,-20 -50,-20 -20,-30 -20,-40"
       id="path198"
       inkscape:connector-curvature="0" />
    <path
       d="m 21420,26380 -20,-20 -20,-50 0,-120 20,-40 20,-30 50,-20 50,0 70,20 290,290 0,-310"
       id="path200"
       inkscape:connector-curvature="0" />
    <path
       d="m 21380,25790 0,-50 20,-50 20,-20 50,-30 100,-20 120,0 90,20 50,30 20,20 30,50 0,50 -30,40 -20,30 -50,20 -90,20 -120,0 -100,-20 -50,-20 -20,-30 -20,-40"
       id="path202"
       inkscape:connector-curvature="0" />
    <path
       d="m 27500,20500 3000,0"
       id="path204"
       inkscape:connector-curvature="0" />
    <path
       d="m 25240,20250 -50,-20 -70,0 -70,20 -50,50 -20,50 -20,90 0,70 20,100 20,40 50,50 70,30 50,0 70,-30 20,-20 0,-170 -90,0"
       id="path206"
       inkscape:connector-curvature="0" />
    <path
       d="m 25480,20730 0,-500 190,0 50,20 20,20 20,50 0,70 -20,50 -20,20 -50,30 -190,0"
       id="path208"
       inkscape:connector-curvature="0" />
    <path
       d="m 25980,20730 0,-500"
       id="path210"
       inkscape:connector-curvature="0" />
    <path
       d="m 26310,20230 100,0 50,20 40,50 30,90 0,170 -30,90 -40,50 -50,30 -100,0 -40,-30 -50,-50 -20,-90 0,-170 20,-90 50,-50 40,-20"
       id="path212"
       inkscape:connector-curvature="0" />
    <path
       d="m 26720,20270 20,-20 50,-20 120,0 40,20 30,20 20,50 0,50 -20,70 -290,290 310,0"
       id="path214"
       inkscape:connector-curvature="0" />
    <path
       d="m 28900,20380 -280,0"
       id="path216"
       inkscape:connector-curvature="0" />
    <path
       d="m 28760,20380 0,-500 -50,70 -50,50 -40,20"
       id="path218"
       inkscape:connector-curvature="0" />
    <path
       d="m 29380,20380 -280,0"
       id="path220"
       inkscape:connector-curvature="0" />
    <path
       d="m 29240,20380 0,-500 -50,70 -50,50 -40,20"
       id="path222"
       inkscape:connector-curvature="0" />
    <path
       d="m 23000,24500 0,3000"
       id="path224"
       inkscape:connector-curvature="0" />
    <path
       d="m 23230,23980 -500,0 350,-170 -350,-160 500,0"
       id="path226"
       inkscape:connector-curvature="0" />
    <path
       d="m 22730,23320 0,-100 20,-50 50,-40 90,-30 170,0 90,30 50,40 30,50 0,100 -30,40 -50,50 -90,20 -170,0 -90,-20 -50,-50 -20,-40"
       id="path228"
       inkscape:connector-curvature="0" />
    <path
       d="m 23200,22910 30,-70 0,-120 -30,-40 -20,-30 -50,-20 -50,0 -40,20 -30,30 -20,40 -30,100 -20,50 -20,20 -50,20 -50,0 -50,-20 -20,-20 -20,-50 0,-120 20,-70"
       id="path230"
       inkscape:connector-curvature="0" />
    <path
       d="m 23230,22410 -500,0"
       id="path232"
       inkscape:connector-curvature="0" />
    <path
       d="m 22420,26380 -20,-20 -20,-50 0,-120 20,-40 20,-30 50,-20 50,0 70,20 290,290 0,-310"
       id="path234"
       inkscape:connector-curvature="0" />
    <path
       d="m 22880,25620 0,280"
       id="path236"
       inkscape:connector-curvature="0" />
    <path
       d="m 22880,25760 -500,0 70,50 50,50 20,40"
       id="path238"
       inkscape:connector-curvature="0" />
    <path
       d="m 27500,19500 3000,0"
       id="path240"
       inkscape:connector-curvature="0" />
    <path
       d="m 25240,19250 -50,-20 -70,0 -70,20 -50,50 -20,50 -20,90 0,70 20,100 20,40 50,50 70,30 50,0 70,-30 20,-20 0,-170 -90,0"
       id="path242"
       inkscape:connector-curvature="0" />
    <path
       d="m 25480,19730 0,-500 190,0 50,20 20,20 20,50 0,70 -20,50 -20,20 -50,30 -190,0"
       id="path244"
       inkscape:connector-curvature="0" />
    <path
       d="m 25980,19730 0,-500"
       id="path246"
       inkscape:connector-curvature="0" />
    <path
       d="m 26310,19230 100,0 50,20 40,50 30,90 0,170 -30,90 -40,50 -50,30 -100,0 -40,-30 -50,-50 -20,-90 0,-170 20,-90 50,-50 40,-20"
       id="path248"
       inkscape:connector-curvature="0" />
    <path
       d="m 26830,19230 50,0 50,20 20,20 30,50 20,100 0,120 -20,90 -30,50 -20,20 -50,30 -50,0 -40,-30 -30,-20 -20,-50 -20,-90 0,-120 20,-100 20,-50 30,-20 40,-20"
       id="path250"
       inkscape:connector-curvature="0" />
    <path
       d="m 28900,19380 -280,0"
       id="path252"
       inkscape:connector-curvature="0" />
    <path
       d="m 28760,19380 0,-500 -50,70 -50,50 -40,20"
       id="path254"
       inkscape:connector-curvature="0" />
    <path
       d="m 29100,18920 20,-20 50,-20 120,0 40,20 30,20 20,50 0,50 -20,70 -290,290 310,0"
       id="path256"
       inkscape:connector-curvature="0" />
    <path
       d="m 24000,24500 0,3000"
       id="path258"
       inkscape:connector-curvature="0" />
    <path
       d="m 24200,24000 30,-70 0,-120 -30,-40 -20,-30 -50,-20 -50,0 -40,20 -30,30 -20,40 -30,100 -20,50 -20,20 -50,20 -50,0 -50,-20 -20,-20 -20,-50 0,-120 20,-70"
       id="path260"
       inkscape:connector-curvature="0" />
    <path
       d="m 24180,23220 20,20 30,70 0,50 -30,70 -50,50 -40,20 -100,20 -70,0 -90,-20 -50,-20 -50,-50 -20,-70 0,-50 20,-70 20,-20"
       id="path262"
       inkscape:connector-curvature="0" />
    <path
       d="m 24230,22760 0,240 -500,0"
       id="path264"
       inkscape:connector-curvature="0" />
    <path
       d="m 24230,22600 -500,0"
       id="path266"
       inkscape:connector-curvature="0" />
    <path
       d="m 24230,22320 -290,210"
       id="path268"
       inkscape:connector-curvature="0" />
    <path
       d="m 23730,22320 280,280"
       id="path270"
       inkscape:connector-curvature="0" />
    <path
       d="m 23420,26380 -20,-20 -20,-50 0,-120 20,-40 20,-30 50,-20 50,0 70,20 290,290 0,-310"
       id="path272"
       inkscape:connector-curvature="0" />
    <path
       d="m 23420,25900 -20,-20 -20,-50 0,-120 20,-40 20,-30 50,-20 50,0 70,20 290,290 0,-310"
       id="path274"
       inkscape:connector-curvature="0" />
    <path
       d="m 27500,18500 3000,0"
       id="path276"
       inkscape:connector-curvature="0" />
    <path
       d="m 25240,18250 -50,-20 -70,0 -70,20 -50,50 -20,50 -20,90 0,70 20,100 20,40 50,50 70,30 50,0 70,-30 20,-20 0,-170 -90,0"
       id="path278"
       inkscape:connector-curvature="0" />
    <path
       d="m 25480,18730 0,-500 190,0 50,20 20,20 20,50 0,70 -20,50 -20,20 -50,30 -190,0"
       id="path280"
       inkscape:connector-curvature="0" />
    <path
       d="m 25980,18730 0,-500"
       id="path282"
       inkscape:connector-curvature="0" />
    <path
       d="m 26310,18230 100,0 50,20 40,50 30,90 0,170 -30,90 -40,50 -50,30 -100,0 -40,-30 -50,-50 -20,-90 0,-170 20,-90 50,-50 40,-20"
       id="path284"
       inkscape:connector-curvature="0" />
    <path
       d="m 26950,18390 0,340"
       id="path286"
       inkscape:connector-curvature="0" />
    <path
       d="m 26830,18200 -110,360 300,0"
       id="path288"
       inkscape:connector-curvature="0" />
    <path
       d="m 28900,18380 -280,0"
       id="path290"
       inkscape:connector-curvature="0" />
    <path
       d="m 28760,18380 0,-500 -50,70 -50,50 -40,20"
       id="path292"
       inkscape:connector-curvature="0" />
    <path
       d="m 29070,17880 310,0 -170,190 80,0 40,20 30,20 20,50 0,120 -20,50 -30,20 -40,30 -150,0 -40,-30 -30,-20"
       id="path294"
       inkscape:connector-curvature="0" />
    <path
       d="m 27500,17500 3000,0"
       id="path296"
       inkscape:connector-curvature="0" />
    <path
       d="m 25240,17250 -50,-20 -70,0 -70,20 -50,50 -20,50 -20,90 0,70 20,100 20,40 50,50 70,30 50,0 70,-30 20,-20 0,-170 -90,0"
       id="path298"
       inkscape:connector-curvature="0" />
    <path
       d="m 25480,17730 0,-500 190,0 50,20 20,20 20,50 0,70 -20,50 -20,20 -50,30 -190,0"
       id="path300"
       inkscape:connector-curvature="0" />
    <path
       d="m 25980,17730 0,-500"
       id="path302"
       inkscape:connector-curvature="0" />
    <path
       d="m 26310,17230 100,0 50,20 40,50 30,90 0,170 -30,90 -40,50 -50,30 -100,0 -40,-30 -50,-50 -20,-90 0,-170 20,-90 50,-50 40,-20"
       id="path304"
       inkscape:connector-curvature="0" />
    <path
       d="m 26980,17230 -240,0 -20,230 20,-20 50,-20 120,0 40,20 30,20 20,50 0,120 -20,50 -30,20 -40,30 -120,0 -50,-30 -20,-20"
       id="path306"
       inkscape:connector-curvature="0" />
    <path
       d="m 28900,17380 -280,0"
       id="path308"
       inkscape:connector-curvature="0" />
    <path
       d="m 28760,17380 0,-500 -50,70 -50,50 -40,20"
       id="path310"
       inkscape:connector-curvature="0" />
    <path
       d="m 29330,17040 0,340"
       id="path312"
       inkscape:connector-curvature="0" />
    <path
       d="m 29210,16850 -110,360 300,0"
       id="path314"
       inkscape:connector-curvature="0" />
    <path
       d="m 27500,16500 3000,0"
       id="path316"
       inkscape:connector-curvature="0" />
    <path
       d="m 26020,16730 -160,-240"
       id="path318"
       inkscape:connector-curvature="0" />
    <path
       d="m 25740,16730 0,-500 190,0 50,20 20,20 20,50 0,70 -20,50 -20,20 -50,30 -190,0"
       id="path320"
       inkscape:connector-curvature="0" />
    <path
       d="m 26190,16230 330,500"
       id="path322"
       inkscape:connector-curvature="0" />
    <path
       d="m 26520,16230 -330,500"
       id="path324"
       inkscape:connector-curvature="0" />
    <path
       d="m 26720,16730 0,-500 120,0 70,20 50,50 20,50 20,90 0,70 -20,100 -20,40 -50,50 -70,30 -120,0"
       id="path326"
       inkscape:connector-curvature="0" />
    <path
       d="m 28900,16380 -280,0"
       id="path328"
       inkscape:connector-curvature="0" />
    <path
       d="m 28760,16380 0,-500 -50,70 -50,50 -40,20"
       id="path330"
       inkscape:connector-curvature="0" />
    <path
       d="m 29360,15880 -240,0 -20,230 20,-20 50,-20 120,0 40,20 30,20 20,50 0,120 -20,50 -30,20 -40,30 -120,0 -50,-30 -20,-20"
       id="path332"
       inkscape:connector-curvature="0" />
    <path
       d="m 27500,15500 3000,0"
       id="path334"
       inkscape:connector-curvature="0" />
    <path
       d="m 25790,15230 280,0"
       id="path336"
       inkscape:connector-curvature="0" />
    <path
       d="m 25930,15730 0,-500"
       id="path338"
       inkscape:connector-curvature="0" />
    <path
       d="m 26190,15230 330,500"
       id="path340"
       inkscape:connector-curvature="0" />
    <path
       d="m 26520,15230 -330,500"
       id="path342"
       inkscape:connector-curvature="0" />
    <path
       d="m 26720,15730 0,-500 120,0 70,20 50,50 20,50 20,90 0,70 -20,100 -20,40 -50,50 -70,30 -120,0"
       id="path344"
       inkscape:connector-curvature="0" />
    <path
       d="m 28900,15380 -280,0"
       id="path346"
       inkscape:connector-curvature="0" />
    <path
       d="m 28760,15380 0,-500 -50,70 -50,50 -40,20"
       id="path348"
       inkscape:connector-curvature="0" />
    <path
       d="m 29330,14880 -90,0 -50,20 -20,20 -50,80 -20,90 0,190 20,50 20,20 50,30 100,0 40,-30 30,-20 20,-50 0,-120 -20,-50 -30,-20 -40,-20 -100,0 -50,20 -20,20 -20,50"
       id="path350"
       inkscape:connector-curvature="0" />
    <path
       d="m 19000,24500 0,3000"
       id="path352"
       inkscape:connector-curvature="0" />
    <path
       d="m 19180,23700 20,20 30,70 0,50 -30,70 -50,50 -40,20 -100,20 -70,0 -90,-20 -50,-20 -50,-50 -20,-70 0,-50 20,-70 20,-20"
       id="path354"
       inkscape:connector-curvature="0" />
    <path
       d="m 19200,23500 30,-70 0,-120 -30,-40 -20,-30 -50,-20 -50,0 -40,20 -30,30 -20,40 -30,100 -20,50 -20,20 -50,20 -50,0 -50,-20 -20,-20 -20,-50 0,-120 20,-70"
       id="path356"
       inkscape:connector-curvature="0" />
    <path
       d="m 18730,22910 0,-50 20,-50 20,-20 50,-30 100,-20 120,0 90,20 50,30 20,20 30,50 0,50 -30,40 -20,30 -50,20 -90,20 -120,0 -100,-20 -50,-20 -20,-30 -20,-40"
       id="path358"
       inkscape:connector-curvature="0" />
    <path
       d="m 18880,26100 0,280"
       id="path360"
       inkscape:connector-curvature="0" />
    <path
       d="m 18880,26240 -500,0 70,50 50,50 20,40"
       id="path362"
       inkscape:connector-curvature="0" />
    <path
       d="m 18380,25930 0,-330 500,210"
       id="path364"
       inkscape:connector-curvature="0" />
    <path
       d="m 20000,24500 0,3000"
       id="path366"
       inkscape:connector-curvature="0" />
    <path
       d="m 20230,23980 -500,0 350,-170 -350,-160 500,0"
       id="path368"
       inkscape:connector-curvature="0" />
    <path
       d="m 20230,23410 -500,0"
       id="path370"
       inkscape:connector-curvature="0" />
    <path
       d="m 20200,23190 30,-70 0,-120 -30,-40 -20,-30 -50,-20 -50,0 -40,20 -30,30 -20,40 -30,100 -20,50 -20,20 -50,20 -50,0 -50,-20 -20,-20 -20,-50 0,-120 20,-70"
       id="path372"
       inkscape:connector-curvature="0" />
    <path
       d="m 19730,22600 0,-100 20,-50 50,-40 90,-30 170,0 90,30 50,40 30,50 0,100 -30,40 -50,50 -90,20 -170,0 -90,-20 -50,-50 -20,-40"
       id="path374"
       inkscape:connector-curvature="0" />
    <path
       d="m 19880,26100 0,280"
       id="path376"
       inkscape:connector-curvature="0" />
    <path
       d="m 19880,26240 -500,0 70,50 50,50 20,40"
       id="path378"
       inkscape:connector-curvature="0" />
    <path
       d="m 19590,25810 -20,50 -30,20 -40,20 -30,0 -50,-20 -20,-20 -20,-50 0,-100 20,-40 20,-30 50,-20 30,0 40,20 30,30 20,40 0,100 20,50 30,20 50,20 90,0 50,-20 20,-20 30,-50 0,-100 -30,-40 -20,-30 -50,-20 -90,0 -50,20 -30,30 -20,40"
       id="path380"
       inkscape:connector-curvature="0" />
    <path
       d="m 21000,24500 0,3000"
       id="path382"
       inkscape:connector-curvature="0" />
    <path
       d="m 20750,23720 -20,50 0,70 20,70 50,50 50,20 90,20 70,0 100,-20 40,-20 50,-50 30,-70 0,-50 -30,-70 -20,-20 -170,0 0,90"
       id="path384"
       inkscape:connector-curvature="0" />
    <path
       d="m 21230,23480 -500,0 0,-190 20,-50 20,-20 50,-20 70,0 50,20 20,20 30,50 0,190"
       id="path386"
       inkscape:connector-curvature="0" />
    <path
       d="m 21230,22980 -500,0"
       id="path388"
       inkscape:connector-curvature="0" />
    <path
       d="m 20730,22650 0,-100 20,-50 50,-40 90,-30 170,0 90,30 50,40 30,50 0,100 -30,40 -50,50 -90,20 -170,0 -90,-20 -50,-50 -20,-40"
       id="path390"
       inkscape:connector-curvature="0" />
    <path
       d="m 21230,22200 0,-100 -30,-50 -20,-20 -70,-50 -100,-20 -190,0 -50,20 -20,30 -20,40 0,100 20,50 20,20 50,20 120,0 50,-20 20,-20 30,-50 0,-100 -30,-40 -20,-30 -50,-20"
       id="path392"
       inkscape:connector-curvature="0" />
    <path
       d="m 20880,26100 0,280"
       id="path394"
       inkscape:connector-curvature="0" />
    <path
       d="m 20880,26240 -500,0 70,50 50,50 20,40"
       id="path396"
       inkscape:connector-curvature="0" />
    <path
       d="m 20880,25860 0,-100 -30,-50 -20,-20 -70,-50 -100,-20 -190,0 -50,20 -20,30 -20,40 0,100 20,50 20,20 50,20 120,0 50,-20 20,-20 30,-50 0,-100 -30,-40 -20,-30 -50,-20"
       id="path398"
       inkscape:connector-curvature="0" />
    <path
       d="m 21150,19200 0,400 20,50 30,20 40,30 100,0 50,-30 20,-20 20,-50 0,-400"
       id="path400"
       inkscape:connector-curvature="0" />
    <path
       d="m 21740,19650 20,20 -20,30 -20,-30 20,-20 0,50"
       id="path402"
       inkscape:connector-curvature="0" />
    <path
       d="m 21650,19220 40,-20 120,0 50,20 20,50 0,50 -20,40 -20,30 -50,20 -30,20 -20,50 0,30"
       id="path404"
       inkscape:connector-curvature="0" />
    <path
       d="m 19890,17430 170,0"
       id="path406"
       inkscape:connector-curvature="0" />
    <path
       d="m 20130,17700 -240,0 0,-500 240,0"
       id="path408"
       inkscape:connector-curvature="0" />
    <path
       d="m 20320,17670 70,30 120,0 40,-30 30,-20 20,-50 0,-50 -20,-40 -30,-30 -40,-20 -100,-30 -50,-20 -20,-20 -20,-50 0,-50 20,-50 20,-20 50,-20 120,0 70,20"
       id="path410"
       inkscape:connector-curvature="0" />
    <path
       d="m 20820,17700 0,-500 190,0 50,20 20,20 20,50 0,70 -20,50 -20,20 -50,30 -190,0"
       id="path412"
       inkscape:connector-curvature="0" />
    <path
       d="m 21320,17510 380,0"
       id="path414"
       inkscape:connector-curvature="0" />
    <path
       d="m 22200,17700 -280,0"
       id="path416"
       inkscape:connector-curvature="0" />
    <path
       d="m 22060,17700 0,-500 -50,70 -50,50 -40,20"
       id="path418"
       inkscape:connector-curvature="0" />
    <path
       d="m 22400,17240 20,-20 50,-20 120,0 40,20 30,20 20,50 0,50 -20,70 -290,290 310,0"
       id="path420"
       inkscape:connector-curvature="0" />
    <path
       d="m 22900,17430 170,0"
       id="path422"
       inkscape:connector-curvature="0" />
    <path
       d="m 23140,17700 -240,0 0,-500 240,0"
       id="path424"
       inkscape:connector-curvature="0" />
  </g>
  <g
     style="fill:#000000;fill-opacity:0;stroke:#000000;stroke-width:0;stroke-linecap:round;stroke-linejoin:round;stroke-opacity:1"
     id="g426"
     transform="translate(0,-53546.114)" />
  <g
     style="fill:#000000;fill-opacity:0;stroke:#000000;stroke-width:60;stroke-linecap:round;stroke-linejoin:round;stroke-opacity:1"
     id="g428"
     transform="translate(-1968.5191,-9057.5834)">
    <polyline
       fill="none;"
       points="8700,30500 9000,30000 "
       id="polyline430" />
    <polyline
       fill="none;"
       points="9000,31000 9000,30000 "
       id="polyline432" />
    <polyline
       fill="none;"
       points="9000,30000 9300,30500 "
       id="polyline434" />
    <path
       d="m 8000,29610 380,0"
       id="path436"
       inkscape:connector-curvature="0" />
    <path
       d="m 8190,29800 0,-380"
       id="path438"
       inkscape:connector-curvature="0" />
    <path
       d="m 8570,29300 310,0 -170,190 80,0 40,20 30,20 20,50 0,120 -20,50 -30,20 -40,30 -150,0 -40,-30 -30,-20"
       id="path440"
       inkscape:connector-curvature="0" />
    <path
       d="m 9100,29750 20,20 -20,30 -20,-30 20,-20 0,50"
       id="path442"
       inkscape:connector-curvature="0" />
    <path
       d="m 9290,29300 310,0 -170,190 80,0 40,20 30,20 20,50 0,120 -20,50 -30,20 -40,30 -150,0 -40,-30 -30,-20"
       id="path444"
       inkscape:connector-curvature="0" />
    <path
       d="m 9750,29300 160,500 170,-500"
       id="path446"
       inkscape:connector-curvature="0" />
  </g>
  <g
     style="fill:#000000;fill-opacity:0;stroke:#000000;stroke-width:0;stroke-linecap:round;stroke-linejoin:round;stroke-opacity:1"
     id="g448"
     transform="translate(0,-53546.114)" />
  <g
     style="fill:#000000;fill-opacity:0;stroke:#000000;stroke-width:60;stroke-linecap:round;stroke-linejoin:round;stroke-opacity:1"
     id="g450"
     transform="translate(-1968.5191,-9057.5834)">
    <polyline
       fill="none;"
       points="9000,34500 9000,35000 9500,35000 9000,35500 8500,35000 9000,35000 "
       id="polyline452" />
    <path
       d="m 8620,35720 -50,-20 -70,0 -70,20 -50,50 -20,50 -20,90 0,70 20,100 20,40 50,50 70,30 50,0 70,-30 20,-20 0,-170 -90,0"
       id="path454"
       inkscape:connector-curvature="0" />
    <path
       d="m 8860,36200 0,-500 280,500 0,-500"
       id="path456"
       inkscape:connector-curvature="0" />
    <path
       d="m 9380,36200 0,-500 120,0 70,20 50,50 20,50 20,90 0,70 -20,100 -20,40 -50,50 -70,30 -120,0"
       id="path458"
       inkscape:connector-curvature="0" />
  </g>
  <g
     style="fill:#000000;fill-opacity:0;stroke:#000000;stroke-width:0;stroke-linecap:round;stroke-linejoin:round;stroke-opacity:1"
     id="g460"
     transform="translate(0,-53546.114)" />
  <g
     style="fill:#000000;fill-opacity:0;stroke:#000000;stroke-width:100;stroke-linecap:round;stroke-linejoin:round;stroke-opacity:1"
     id="g462"
     transform="translate(-1968.5191,-9057.5834)">
    <rect
       x="32100"
       y="19500"
       width="800"
       height="2000"
       rx="0"
       id="rect464" />
  </g>
  <g
     style="fill:#000000;fill-opacity:0;stroke:#000000;stroke-width:60;stroke-linecap:round;stroke-linejoin:round;stroke-opacity:1"
     id="g466"
     transform="translate(-1968.5191,-9057.5834)">
    <path
       d="m 32500,19500 0,-500"
       id="path468"
       inkscape:connector-curvature="0" />
    <path
       d="m 32500,21500 0,500"
       id="path470"
       inkscape:connector-curvature="0" />
    <path
       d="m 33500,20350 -240,160"
       id="path472"
       inkscape:connector-curvature="0" />
    <path
       d="m 33500,20630 -500,0 0,-190 20,-50 20,-20 50,-20 70,0 50,20 20,20 30,50 0,190"
       id="path474"
       inkscape:connector-curvature="0" />
    <path
       d="m 32700,21260 0,280"
       id="path476"
       inkscape:connector-curvature="0" />
    <path
       d="m 32700,21400 -500,0 70,50 50,50 20,40"
       id="path478"
       inkscape:connector-curvature="0" />
    <path
       d="m 32200,20950 0,-50 20,-50 20,-20 50,-30 100,-20 120,0 90,20 50,30 20,20 30,50 0,50 -30,40 -20,30 -50,20 -90,20 -120,0 -100,-20 -50,-20 -20,-30 -20,-40"
       id="path480"
       inkscape:connector-curvature="0" />
    <path
       d="m 32700,20180 -500,0"
       id="path482"
       inkscape:connector-curvature="0" />
    <path
       d="m 32510,20130 190,-140"
       id="path484"
       inkscape:connector-curvature="0" />
    <path
       d="m 32360,19990 190,190"
       id="path486"
       inkscape:connector-curvature="0" />
    <path
       d="m 32700,19800 0,-110 -100,0 -20,40 -50,50 -70,20 -120,0 -70,-20 -50,-50 -20,-70 0,-90 20,-70 50,-50 70,-30 120,0 70,30 50,50 20,40 100,0 0,-120"
       id="path488"
       inkscape:connector-curvature="0" />
  </g>
  <g
     style="fill:#000000;fill-opacity:0;stroke:#000000;stroke-width:0;stroke-linecap:round;stroke-linejoin:round;stroke-opacity:1"
     id="g490"
     transform="translate(0,-53546.114)" />
  <g
     style="fill:#000000;fill-opacity:0;stroke:#000000;stroke-width:60;stroke-linecap:round;stroke-linejoin:round;stroke-opacity:1"
     id="g492"
     transform="translate(-1968.5191,-9057.5834)">
    <rect
       x="36000"
       y="18800"
       width="100"
       height="3400"
       rx="0"
       id="rect494" />
    <polyline
       fill="none;"
       points="36100,20100 36400,20200 36400,20800 36100,20900 "
       id="polyline496" />
    <circle
       cx="35500"
       cy="19250"
       r="250"
       id="circle498" />
    <path
       d="m 35500,19000 0,-1500"
       id="path500"
       inkscape:connector-curvature="0" />
    <circle
       cx="35500"
       cy="21750"
       r="250"
       id="circle502" />
    <path
       d="m 35500,22000 0,1500"
       id="path504"
       inkscape:connector-curvature="0" />
    <path
       d="m 36830,22420 30,-70 0,-120 -30,-40 -20,-30 -50,-20 -50,0 -40,20 -30,30 -20,40 -30,100 -20,50 -20,20 -50,20 -50,0 -50,-20 -20,-20 -20,-50 0,-120 20,-70"
       id="path506"
       inkscape:connector-curvature="0" />
    <path
       d="m 36360,21970 500,-120 -360,-100 360,-90 -500,-120"
       id="path508"
       inkscape:connector-curvature="0" />
    <path
       d="m 34960,20880 0,240 -500,0"
       id="path510"
       inkscape:connector-curvature="0" />
    <path
       d="m 34460,20630 0,-100 20,-50 50,-40 90,-30 170,0 90,30 50,40 30,50 0,100 -30,40 -50,50 -90,20 -170,0 -90,-20 -50,-50 -20,-40"
       id="path512"
       inkscape:connector-curvature="0" />
    <path
       d="m 34460,20250 500,-120 -360,-100 360,-90 -500,-120"
       id="path514"
       inkscape:connector-curvature="0" />
    <path
       d="m 30500,17500 5000,0"
       id="path516"
       inkscape:connector-curvature="0" />
    <path
       d="m 32500,17500 0,1500"
       id="path518"
       inkscape:connector-curvature="0" />
    <path
       d="m 9000,31000 23500,0"
       id="path520"
       inkscape:connector-curvature="0" />
    <path
       d="m 12500,31000 0,-8500"
       id="path522"
       inkscape:connector-curvature="0" />
  </g>
  <g
     style="fill:#000000;fill-opacity:0;stroke:#000000;stroke-width:0;stroke-linecap:round;stroke-linejoin:round;stroke-opacity:1"
     id="g524"
     transform="translate(0,-53546.114)" />
  <g
     style="fill:#000000;fill-opacity:1;stroke:#000000;stroke-width:100;stroke-linecap:round;stroke-linejoin:round;stroke-opacity:1"
     id="g526"
     transform="translate(-1968.5191,-9057.5834)">
    <circle
       cx="12500"
       cy="31000"
       r="200"
       id="circle528" />
  </g>
  <g
     style="fill:#000000;fill-opacity:1;stroke:#000000;stroke-width:0;stroke-linecap:round;stroke-linejoin:round;stroke-opacity:1"
     id="g530"
     transform="translate(0,-53546.114)" />
  <g
     style="fill:#000000;fill-opacity:1;stroke:#000000;stroke-width:100;stroke-linecap:round;stroke-linejoin:round;stroke-opacity:1"
     id="g532"
     transform="translate(-1968.5191,-9057.5834)">
    <circle
       cx="32500"
       cy="17500"
       r="200"
       id="circle534" />
  </g>
  <g
     style="fill:#000000;fill-opacity:1;stroke:#000000;stroke-width:60;stroke-linecap:round;stroke-linejoin:round;stroke-opacity:1"
     id="g536"
     transform="translate(0,-53546.114)" />
  <g
     style="fill:#000000;fill-opacity:0;stroke:#000000;stroke-width:60;stroke-linecap:round;stroke-linejoin:round;stroke-opacity:1"
     id="g538"
     transform="translate(-1968.5191,-9057.5834)">
    <path
       d="m 9000,34500 26500,0"
       id="path540"
       inkscape:connector-curvature="0" />
    <path
       d="m 35500,34500 0,-11000"
       id="path542"
       inkscape:connector-curvature="0" />
    <path
       d="m 30500,22500 0,12000"
       id="path544"
       inkscape:connector-curvature="0" />
  </g>
  <g
     style="fill:#000000;fill-opacity:0;stroke:#000000;stroke-width:0;stroke-linecap:round;stroke-linejoin:round;stroke-opacity:1"
     id="g546"
     transform="translate(0,-53546.114)" />
  <g
     style="fill:#000000;fill-opacity:1;stroke:#000000;stroke-width:100;stroke-linecap:round;stroke-linejoin:round;stroke-opacity:1"
     id="g548"
     transform="translate(-1968.5191,-9057.5834)">
    <circle
       cx="30500"
       cy="34500"
       r="200"
       id="circle550" />
  </g>
  <g
     style="fill:#000000;fill-opacity:1;stroke:#000000;stroke-width:60;stroke-linecap:round;stroke-linejoin:round;stroke-opacity:1"
     id="g552"
     transform="translate(0,-53546.114)" />
  <g
     style="fill:#000000;fill-opacity:0;stroke:#000000;stroke-width:60;stroke-linecap:round;stroke-linejoin:round;stroke-opacity:1"
     id="g554"
     transform="translate(-1968.5191,-9057.5834)">
    <path
       d="m 32500,31000 0,-9000"
       id="path556"
       inkscape:connector-curvature="0" />
  </g>
</svg>
