<?xml version="1.0" encoding="UTF-8" standalone="no"?>
<svg
   xmlns:dc="http://purl.org/dc/elements/1.1/"
   xmlns:cc="http://creativecommons.org/ns#"
   xmlns:rdf="http://www.w3.org/1999/02/22-rdf-syntax-ns#"
   xmlns:svg="http://www.w3.org/2000/svg"
   xmlns="http://www.w3.org/2000/svg"
   xmlns:sodipodi="http://sodipodi.sourceforge.net/DTD/sodipodi-0.dtd"
   xmlns:inkscape="http://www.inkscape.org/namespaces/inkscape"
   version="1.1"
   width="105mm"
   height="74mm"
   viewBox="0 0 41338.612 29133.886"
   id="svg2"
   inkscape:version="0.91 r13725"
   sodipodi:docname="pullup.sch.svg">
  <metadata
     id="metadata638">
    <rdf:RDF>
      <cc:Work
         rdf:about="">
        <dc:format>image/svg+xml</dc:format>
        <dc:type
           rdf:resource="http://purl.org/dc/dcmitype/StillImage" />
        <dc:title>SVG Picture created as pullup.sch.svg date 2017/07/15 20:47:32 </dc:title>
      </cc:Work>
    </rdf:RDF>
  </metadata>
  <defs
     id="defs636" />
  <sodipodi:namedview
     pagecolor="#ffffff"
     bordercolor="#666666"
     borderopacity="1"
     objecttolerance="10"
     gridtolerance="10"
     guidetolerance="10"
     inkscape:pageopacity="0"
     inkscape:pageshadow="2"
     inkscape:window-width="1920"
     inkscape:window-height="1043"
     id="namedview634"
     showgrid="false"
     units="mm"
     inkscape:zoom="1.18"
     inkscape:cx="526.18463"
     inkscape:cy="372.05965"
     inkscape:window-x="1366"
     inkscape:window-y="672"
     inkscape:window-maximized="1"
     inkscape:current-layer="svg2" />
  <title
     id="title4">SVG Picture created as pullup.sch.svg date 2017/07/15 20:47:32 </title>
  <desc
     id="desc6">Picture generated by Eeschema-SVG </desc>
  <g
     style="fill:#000000;fill-opacity:1;stroke:#000000;stroke-linecap:round;stroke-linejoin:round;stroke-opacity:1"
     id="g8"
     transform="translate(0,-53546.115)" />
  <g
     style="fill:#000000;fill-opacity:0;stroke:#000000;stroke-width:0;stroke-linecap:round;stroke-linejoin:round;stroke-opacity:1"
     id="g10"
     transform="translate(0,-53546.115)" />
  <g
     style="fill:#000000;fill-opacity:0;stroke:#000000;stroke-width:60;stroke-linecap:round;stroke-linejoin:round;stroke-opacity:1"
     id="g12"
     transform="translate(393.70385,-6695.3615)">
    <rect
       x="12000"
       y="9000"
       width="12000"
       height="12000"
       rx="0"
       id="rect14" />
    <path
       d="m 12000,12000 -3000,0"
       id="path16"
       inkscape:connector-curvature="0" />
    <path
       d="m 12800,12230 -160,-240"
       id="path18"
       inkscape:connector-curvature="0" />
    <path
       d="m 12520,12230 0,-500 190,0 50,20 20,20 20,50 0,70 -20,50 -20,20 -50,30 -190,0"
       id="path20"
       inkscape:connector-curvature="0" />
    <path
       d="m 13020,11960 170,0"
       id="path22"
       inkscape:connector-curvature="0" />
    <path
       d="m 13260,12230 -240,0 0,-500 240,0"
       id="path24"
       inkscape:connector-curvature="0" />
    <path
       d="m 13450,12200 70,30 120,0 40,-30 30,-20 20,-50 0,-50 -20,-40 -30,-30 -40,-20 -100,-30 -50,-20 -20,-20 -20,-50 0,-50 20,-50 20,-20 50,-20 120,0 70,20"
       id="path26"
       inkscape:connector-curvature="0" />
    <path
       d="m 13880,11730 280,0"
       id="path28"
       inkscape:connector-curvature="0" />
    <path
       d="m 14020,12230 0,-500"
       id="path30"
       inkscape:connector-curvature="0" />
    <path
       d="m 10640,11880 -280,0"
       id="path32"
       inkscape:connector-curvature="0" />
    <path
       d="m 10500,11880 0,-500 -50,70 -50,50 -40,20"
       id="path34"
       inkscape:connector-curvature="0" />
    <path
       d="m 12000,13000 -3000,0"
       id="path36"
       inkscape:connector-curvature="0" />
    <path
       d="m 12500,13080 230,0"
       id="path38"
       inkscape:connector-curvature="0" />
    <path
       d="m 12450,13230 160,-500 170,500"
       id="path40"
       inkscape:connector-curvature="0" />
    <path
       d="m 12950,13230 0,-500 120,0 70,20 50,50 20,50 20,90 0,70 -20,100 -20,40 -50,50 -70,30 -120,0"
       id="path42"
       inkscape:connector-curvature="0" />
    <path
       d="m 13730,13180 -20,20 -70,30 -50,0 -70,-30 -50,-50 -20,-40 -20,-100 0,-70 20,-90 20,-50 50,-50 70,-20 50,0 70,20 20,20"
       id="path44"
       inkscape:connector-curvature="0" />
    <path
       d="m 10360,12420 20,-20 50,-20 120,0 40,20 30,20 20,50 0,50 -20,70 -290,290 310,0"
       id="path46"
       inkscape:connector-curvature="0" />
    <path
       d="m 12000,14000 -3000,0"
       id="path48"
       inkscape:connector-curvature="0" />
    <path
       d="m 12800,14180 -20,20 -70,30 -50,0 -70,-30 -50,-50 -20,-40 -20,-100 0,-70 20,-90 20,-50 50,-50 70,-20 50,0 70,20 20,20"
       id="path50"
       inkscape:connector-curvature="0" />
    <path
       d="m 13020,14230 0,-500"
       id="path52"
       inkscape:connector-curvature="0" />
    <path
       d="m 13020,13960 280,0"
       id="path54"
       inkscape:connector-curvature="0" />
    <path
       d="m 13300,14230 0,-500"
       id="path56"
       inkscape:connector-curvature="0" />
    <path
       d="m 13420,14270 380,0"
       id="path58"
       inkscape:connector-curvature="0" />
    <path
       d="m 13920,14230 0,-500 190,0 50,20 20,20 20,50 0,70 -20,50 -20,20 -50,30 -190,0"
       id="path60"
       inkscape:connector-curvature="0" />
    <path
       d="m 14420,14230 0,-500 120,0 70,20 50,50 20,50 20,90 0,70 -20,100 -20,40 -50,50 -70,30 -120,0"
       id="path62"
       inkscape:connector-curvature="0" />
    <path
       d="m 10330,13380 310,0 -170,190 80,0 40,20 30,20 20,50 0,120 -20,50 -30,20 -40,30 -150,0 -40,-30 -30,-20"
       id="path64"
       inkscape:connector-curvature="0" />
    <path
       d="m 12000,15000 -3000,0"
       id="path66"
       inkscape:connector-curvature="0" />
    <path
       d="m 12780,14750 -50,-20 -70,0 -70,20 -50,50 -20,50 -20,90 0,70 20,100 20,40 50,50 70,30 50,0 70,-30 20,-20 0,-170 -90,0"
       id="path68"
       inkscape:connector-curvature="0" />
    <path
       d="m 13020,15230 0,-500 190,0 50,20 20,20 20,50 0,70 -20,50 -20,20 -50,30 -190,0"
       id="path70"
       inkscape:connector-curvature="0" />
    <path
       d="m 13520,15230 0,-500"
       id="path72"
       inkscape:connector-curvature="0" />
    <path
       d="m 13850,14730 100,0 50,20 40,50 30,90 0,170 -30,90 -40,50 -50,30 -100,0 -40,-30 -50,-50 -20,-90 0,-170 20,-90 50,-50 40,-20"
       id="path74"
       inkscape:connector-curvature="0" />
    <path
       d="m 14540,15230 -280,0"
       id="path76"
       inkscape:connector-curvature="0" />
    <path
       d="m 14400,15230 0,-500 -50,70 -50,50 -40,20"
       id="path78"
       inkscape:connector-curvature="0" />
    <path
       d="m 14970,14730 -90,0 -50,20 -20,20 -50,80 -20,90 0,190 20,50 20,20 50,30 100,0 40,-30 30,-20 20,-50 0,-120 -20,-50 -30,-20 -40,-20 -100,0 -50,20 -20,20 -20,50"
       id="path80"
       inkscape:connector-curvature="0" />
    <path
       d="m 10590,14540 0,340"
       id="path82"
       inkscape:connector-curvature="0" />
    <path
       d="m 10470,14350 -110,360 300,0"
       id="path84"
       inkscape:connector-curvature="0" />
    <path
       d="m 12000,16000 -3000,0"
       id="path86"
       inkscape:connector-curvature="0" />
    <path
       d="m 12780,15750 -50,-20 -70,0 -70,20 -50,50 -20,50 -20,90 0,70 20,100 20,40 50,50 70,30 50,0 70,-30 20,-20 0,-170 -90,0"
       id="path88"
       inkscape:connector-curvature="0" />
    <path
       d="m 13020,16230 0,-500 190,0 50,20 20,20 20,50 0,70 -20,50 -20,20 -50,30 -190,0"
       id="path90"
       inkscape:connector-curvature="0" />
    <path
       d="m 13520,16230 0,-500"
       id="path92"
       inkscape:connector-curvature="0" />
    <path
       d="m 13850,15730 100,0 50,20 40,50 30,90 0,170 -30,90 -40,50 -50,30 -100,0 -40,-30 -50,-50 -20,-90 0,-170 20,-90 50,-50 40,-20"
       id="path94"
       inkscape:connector-curvature="0" />
    <path
       d="m 14540,16230 -280,0"
       id="path96"
       inkscape:connector-curvature="0" />
    <path
       d="m 14400,16230 0,-500 -50,70 -50,50 -40,20"
       id="path98"
       inkscape:connector-curvature="0" />
    <path
       d="m 14970,15890 0,340"
       id="path100"
       inkscape:connector-curvature="0" />
    <path
       d="m 14850,15700 -110,360 300,0"
       id="path102"
       inkscape:connector-curvature="0" />
    <path
       d="m 10620,15380 -240,0 -20,230 20,-20 50,-20 120,0 40,20 30,20 20,50 0,120 -20,50 -30,20 -40,30 -120,0 -50,-30 -20,-20"
       id="path104"
       inkscape:connector-curvature="0" />
    <path
       d="m 12000,17000 -3000,0"
       id="path106"
       inkscape:connector-curvature="0" />
    <path
       d="m 12780,16750 -50,-20 -70,0 -70,20 -50,50 -20,50 -20,90 0,70 20,100 20,40 50,50 70,30 50,0 70,-30 20,-20 0,-170 -90,0"
       id="path108"
       inkscape:connector-curvature="0" />
    <path
       d="m 13020,17230 0,-500 190,0 50,20 20,20 20,50 0,70 -20,50 -20,20 -50,30 -190,0"
       id="path110"
       inkscape:connector-curvature="0" />
    <path
       d="m 13520,17230 0,-500"
       id="path112"
       inkscape:connector-curvature="0" />
    <path
       d="m 13850,16730 100,0 50,20 40,50 30,90 0,170 -30,90 -40,50 -50,30 -100,0 -40,-30 -50,-50 -20,-90 0,-170 20,-90 50,-50 40,-20"
       id="path114"
       inkscape:connector-curvature="0" />
    <path
       d="m 14540,17230 -280,0"
       id="path116"
       inkscape:connector-curvature="0" />
    <path
       d="m 14400,17230 0,-500 -50,70 -50,50 -40,20"
       id="path118"
       inkscape:connector-curvature="0" />
    <path
       d="m 14740,16770 20,-20 50,-20 120,0 40,20 30,20 20,50 0,50 -20,70 -290,290 310,0"
       id="path120"
       inkscape:connector-curvature="0" />
    <path
       d="m 10590,16380 -90,0 -50,20 -20,20 -50,80 -20,90 0,190 20,50 20,20 50,30 100,0 40,-30 30,-20 20,-50 0,-120 -20,-50 -30,-20 -40,-20 -100,0 -50,20 -20,20 -20,50"
       id="path122"
       inkscape:connector-curvature="0" />
    <path
       d="m 12000,18000 -3000,0"
       id="path124"
       inkscape:connector-curvature="0" />
    <path
       d="m 12780,17750 -50,-20 -70,0 -70,20 -50,50 -20,50 -20,90 0,70 20,100 20,40 50,50 70,30 50,0 70,-30 20,-20 0,-170 -90,0"
       id="path126"
       inkscape:connector-curvature="0" />
    <path
       d="m 13020,18230 0,-500 190,0 50,20 20,20 20,50 0,70 -20,50 -20,20 -50,30 -190,0"
       id="path128"
       inkscape:connector-curvature="0" />
    <path
       d="m 13520,18230 0,-500"
       id="path130"
       inkscape:connector-curvature="0" />
    <path
       d="m 13850,17730 100,0 50,20 40,50 30,90 0,170 -30,90 -40,50 -50,30 -100,0 -40,-30 -50,-50 -20,-90 0,-170 20,-90 50,-50 40,-20"
       id="path132"
       inkscape:connector-curvature="0" />
    <path
       d="m 14540,18230 -280,0"
       id="path134"
       inkscape:connector-curvature="0" />
    <path
       d="m 14400,18230 0,-500 -50,70 -50,50 -40,20"
       id="path136"
       inkscape:connector-curvature="0" />
    <path
       d="m 14710,17730 310,0 -170,190 80,0 40,20 30,20 20,50 0,120 -20,50 -30,20 -40,30 -150,0 -40,-30 -30,-20"
       id="path138"
       inkscape:connector-curvature="0" />
    <path
       d="m 10330,17380 330,0 -210,500"
       id="path140"
       inkscape:connector-curvature="0" />
    <path
       d="m 12000,19000 -3000,0"
       id="path142"
       inkscape:connector-curvature="0" />
    <path
       d="m 12450,18730 160,500 170,-500"
       id="path144"
       inkscape:connector-curvature="0" />
    <path
       d="m 13230,19180 -20,20 -70,30 -50,0 -70,-30 -50,-50 -20,-40 -20,-100 0,-70 20,-90 20,-50 50,-50 70,-20 50,0 70,20 20,20"
       id="path146"
       inkscape:connector-curvature="0" />
    <path
       d="m 13730,19180 -20,20 -70,30 -50,0 -70,-30 -50,-50 -20,-40 -20,-100 0,-70 20,-90 20,-50 50,-50 70,-20 50,0 70,20 20,20"
       id="path148"
       inkscape:connector-curvature="0" />
    <path
       d="m 10450,18590 -50,-20 -20,-30 -20,-40 0,-30 20,-50 20,-20 50,-20 100,0 40,20 30,20 20,50 0,30 -20,40 -30,30 -40,20 -100,0 -50,20 -20,30 -20,50 0,90 20,50 20,20 50,30 100,0 40,-30 30,-20 20,-50 0,-90 -20,-50 -30,-30 -40,-20"
       id="path150"
       inkscape:connector-curvature="0" />
    <path
       d="m 24000,19000 3000,0"
       id="path152"
       inkscape:connector-curvature="0" />
    <path
       d="m 22460,18750 -50,-20 -70,0 -70,20 -50,50 -20,50 -20,90 0,70 20,100 20,40 50,50 70,30 50,0 70,-30 20,-20 0,-170 -90,0"
       id="path154"
       inkscape:connector-curvature="0" />
    <path
       d="m 22700,19230 0,-500 280,500 0,-500"
       id="path156"
       inkscape:connector-curvature="0" />
    <path
       d="m 23220,19230 0,-500 120,0 70,20 50,50 20,50 20,90 0,70 -20,100 -20,40 -50,50 -70,30 -120,0"
       id="path158"
       inkscape:connector-curvature="0" />
    <path
       d="m 25400,18880 100,0 50,-30 20,-20 50,-70 20,-100 0,-190 -20,-50 -30,-20 -40,-20 -100,0 -50,20 -20,20 -20,50 0,120 20,50 20,20 50,30 100,0 40,-30 30,-20 20,-50"
       id="path160"
       inkscape:connector-curvature="0" />
    <path
       d="m 24000,18000 3000,0"
       id="path162"
       inkscape:connector-curvature="0" />
    <path
       d="m 21260,17750 -50,-20 -70,0 -70,20 -50,50 -20,50 -20,90 0,70 20,100 20,40 50,50 70,30 50,0 70,-30 20,-20 0,-170 -90,0"
       id="path164"
       inkscape:connector-curvature="0" />
    <path
       d="m 21500,18230 0,-500 190,0 50,20 20,20 20,50 0,70 -20,50 -20,20 -50,30 -190,0"
       id="path166"
       inkscape:connector-curvature="0" />
    <path
       d="m 22000,18230 0,-500"
       id="path168"
       inkscape:connector-curvature="0" />
    <path
       d="m 22330,17730 100,0 50,20 40,50 30,90 0,170 -30,90 -40,50 -50,30 -100,0 -40,-30 -50,-50 -20,-90 0,-170 20,-90 50,-50 40,-20"
       id="path170"
       inkscape:connector-curvature="0" />
    <path
       d="m 23020,18230 -280,0"
       id="path172"
       inkscape:connector-curvature="0" />
    <path
       d="m 22880,18230 0,-500 -50,70 -50,50 -40,20"
       id="path174"
       inkscape:connector-curvature="0" />
    <path
       d="m 23480,17730 -240,0 -20,230 20,-20 50,-20 120,0 40,20 30,20 20,50 0,120 -20,50 -30,20 -40,30 -120,0 -50,-30 -20,-20"
       id="path176"
       inkscape:connector-curvature="0" />
    <path
       d="m 25400,17880 -280,0"
       id="path178"
       inkscape:connector-curvature="0" />
    <path
       d="m 25260,17880 0,-500 -50,70 -50,50 -40,20"
       id="path180"
       inkscape:connector-curvature="0" />
    <path
       d="m 25710,17380 50,0 50,20 20,20 30,50 20,100 0,120 -20,90 -30,50 -20,20 -50,30 -50,0 -40,-30 -30,-20 -20,-50 -20,-90 0,-120 20,-100 20,-50 30,-20 40,-20"
       id="path182"
       inkscape:connector-curvature="0" />
    <path
       d="m 18500,21000 0,3000"
       id="path184"
       inkscape:connector-curvature="0" />
    <path
       d="m 18250,20220 -20,50 0,70 20,70 50,50 50,20 90,20 70,0 100,-20 40,-20 50,-50 30,-70 0,-50 -30,-70 -20,-20 -170,0 0,90"
       id="path186"
       inkscape:connector-curvature="0" />
    <path
       d="m 18730,19980 -500,0 0,-190 20,-50 20,-20 50,-20 70,0 50,20 20,20 30,50 0,190"
       id="path188"
       inkscape:connector-curvature="0" />
    <path
       d="m 18730,19480 -500,0"
       id="path190"
       inkscape:connector-curvature="0" />
    <path
       d="m 18230,19150 0,-100 20,-50 50,-40 90,-30 170,0 90,30 50,40 30,50 0,100 -30,40 -50,50 -90,20 -170,0 -90,-20 -50,-50 -20,-40"
       id="path192"
       inkscape:connector-curvature="0" />
    <path
       d="m 18730,18460 0,280"
       id="path194"
       inkscape:connector-curvature="0" />
    <path
       d="m 18730,18600 -500,0 70,50 50,50 20,40"
       id="path196"
       inkscape:connector-curvature="0" />
    <path
       d="m 18230,18150 0,-50 20,-50 20,-20 50,-30 100,-20 120,0 90,20 50,30 20,20 30,50 0,50 -30,40 -20,30 -50,20 -90,20 -120,0 -100,-20 -50,-20 -20,-30 -20,-40"
       id="path198"
       inkscape:connector-curvature="0" />
    <path
       d="m 17920,22880 -20,-20 -20,-50 0,-120 20,-40 20,-30 50,-20 50,0 70,20 290,290 0,-310"
       id="path200"
       inkscape:connector-curvature="0" />
    <path
       d="m 17880,22290 0,-50 20,-50 20,-20 50,-30 100,-20 120,0 90,20 50,30 20,20 30,50 0,50 -30,40 -20,30 -50,20 -90,20 -120,0 -100,-20 -50,-20 -20,-30 -20,-40"
       id="path202"
       inkscape:connector-curvature="0" />
    <path
       d="m 24000,17000 3000,0"
       id="path204"
       inkscape:connector-curvature="0" />
    <path
       d="m 21740,16750 -50,-20 -70,0 -70,20 -50,50 -20,50 -20,90 0,70 20,100 20,40 50,50 70,30 50,0 70,-30 20,-20 0,-170 -90,0"
       id="path206"
       inkscape:connector-curvature="0" />
    <path
       d="m 21980,17230 0,-500 190,0 50,20 20,20 20,50 0,70 -20,50 -20,20 -50,30 -190,0"
       id="path208"
       inkscape:connector-curvature="0" />
    <path
       d="m 22480,17230 0,-500"
       id="path210"
       inkscape:connector-curvature="0" />
    <path
       d="m 22810,16730 100,0 50,20 40,50 30,90 0,170 -30,90 -40,50 -50,30 -100,0 -40,-30 -50,-50 -20,-90 0,-170 20,-90 50,-50 40,-20"
       id="path212"
       inkscape:connector-curvature="0" />
    <path
       d="m 23220,16770 20,-20 50,-20 120,0 40,20 30,20 20,50 0,50 -20,70 -290,290 310,0"
       id="path214"
       inkscape:connector-curvature="0" />
    <path
       d="m 25400,16880 -280,0"
       id="path216"
       inkscape:connector-curvature="0" />
    <path
       d="m 25260,16880 0,-500 -50,70 -50,50 -40,20"
       id="path218"
       inkscape:connector-curvature="0" />
    <path
       d="m 25880,16880 -280,0"
       id="path220"
       inkscape:connector-curvature="0" />
    <path
       d="m 25740,16880 0,-500 -50,70 -50,50 -40,20"
       id="path222"
       inkscape:connector-curvature="0" />
    <path
       d="m 19500,21000 0,3000"
       id="path224"
       inkscape:connector-curvature="0" />
    <path
       d="m 19730,20480 -500,0 350,-170 -350,-160 500,0"
       id="path226"
       inkscape:connector-curvature="0" />
    <path
       d="m 19230,19820 0,-100 20,-50 50,-40 90,-30 170,0 90,30 50,40 30,50 0,100 -30,40 -50,50 -90,20 -170,0 -90,-20 -50,-50 -20,-40"
       id="path228"
       inkscape:connector-curvature="0" />
    <path
       d="m 19700,19410 30,-70 0,-120 -30,-40 -20,-30 -50,-20 -50,0 -40,20 -30,30 -20,40 -30,100 -20,50 -20,20 -50,20 -50,0 -50,-20 -20,-20 -20,-50 0,-120 20,-70"
       id="path230"
       inkscape:connector-curvature="0" />
    <path
       d="m 19730,18910 -500,0"
       id="path232"
       inkscape:connector-curvature="0" />
    <path
       d="m 18920,22880 -20,-20 -20,-50 0,-120 20,-40 20,-30 50,-20 50,0 70,20 290,290 0,-310"
       id="path234"
       inkscape:connector-curvature="0" />
    <path
       d="m 19380,22120 0,280"
       id="path236"
       inkscape:connector-curvature="0" />
    <path
       d="m 19380,22260 -500,0 70,50 50,50 20,40"
       id="path238"
       inkscape:connector-curvature="0" />
    <path
       d="m 24000,16000 3000,0"
       id="path240"
       inkscape:connector-curvature="0" />
    <path
       d="m 21740,15750 -50,-20 -70,0 -70,20 -50,50 -20,50 -20,90 0,70 20,100 20,40 50,50 70,30 50,0 70,-30 20,-20 0,-170 -90,0"
       id="path242"
       inkscape:connector-curvature="0" />
    <path
       d="m 21980,16230 0,-500 190,0 50,20 20,20 20,50 0,70 -20,50 -20,20 -50,30 -190,0"
       id="path244"
       inkscape:connector-curvature="0" />
    <path
       d="m 22480,16230 0,-500"
       id="path246"
       inkscape:connector-curvature="0" />
    <path
       d="m 22810,15730 100,0 50,20 40,50 30,90 0,170 -30,90 -40,50 -50,30 -100,0 -40,-30 -50,-50 -20,-90 0,-170 20,-90 50,-50 40,-20"
       id="path248"
       inkscape:connector-curvature="0" />
    <path
       d="m 23330,15730 50,0 50,20 20,20 30,50 20,100 0,120 -20,90 -30,50 -20,20 -50,30 -50,0 -40,-30 -30,-20 -20,-50 -20,-90 0,-120 20,-100 20,-50 30,-20 40,-20"
       id="path250"
       inkscape:connector-curvature="0" />
    <path
       d="m 25400,15880 -280,0"
       id="path252"
       inkscape:connector-curvature="0" />
    <path
       d="m 25260,15880 0,-500 -50,70 -50,50 -40,20"
       id="path254"
       inkscape:connector-curvature="0" />
    <path
       d="m 25600,15420 20,-20 50,-20 120,0 40,20 30,20 20,50 0,50 -20,70 -290,290 310,0"
       id="path256"
       inkscape:connector-curvature="0" />
    <path
       d="m 20500,21000 0,3000"
       id="path258"
       inkscape:connector-curvature="0" />
    <path
       d="m 20700,20500 30,-70 0,-120 -30,-40 -20,-30 -50,-20 -50,0 -40,20 -30,30 -20,40 -30,100 -20,50 -20,20 -50,20 -50,0 -50,-20 -20,-20 -20,-50 0,-120 20,-70"
       id="path260"
       inkscape:connector-curvature="0" />
    <path
       d="m 20680,19720 20,20 30,70 0,50 -30,70 -50,50 -40,20 -100,20 -70,0 -90,-20 -50,-20 -50,-50 -20,-70 0,-50 20,-70 20,-20"
       id="path262"
       inkscape:connector-curvature="0" />
    <path
       d="m 20730,19260 0,240 -500,0"
       id="path264"
       inkscape:connector-curvature="0" />
    <path
       d="m 20730,19100 -500,0"
       id="path266"
       inkscape:connector-curvature="0" />
    <path
       d="m 20730,18820 -290,210"
       id="path268"
       inkscape:connector-curvature="0" />
    <path
       d="m 20230,18820 280,280"
       id="path270"
       inkscape:connector-curvature="0" />
    <path
       d="m 19920,22880 -20,-20 -20,-50 0,-120 20,-40 20,-30 50,-20 50,0 70,20 290,290 0,-310"
       id="path272"
       inkscape:connector-curvature="0" />
    <path
       d="m 19920,22400 -20,-20 -20,-50 0,-120 20,-40 20,-30 50,-20 50,0 70,20 290,290 0,-310"
       id="path274"
       inkscape:connector-curvature="0" />
    <path
       d="m 24000,15000 3000,0"
       id="path276"
       inkscape:connector-curvature="0" />
    <path
       d="m 21740,14750 -50,-20 -70,0 -70,20 -50,50 -20,50 -20,90 0,70 20,100 20,40 50,50 70,30 50,0 70,-30 20,-20 0,-170 -90,0"
       id="path278"
       inkscape:connector-curvature="0" />
    <path
       d="m 21980,15230 0,-500 190,0 50,20 20,20 20,50 0,70 -20,50 -20,20 -50,30 -190,0"
       id="path280"
       inkscape:connector-curvature="0" />
    <path
       d="m 22480,15230 0,-500"
       id="path282"
       inkscape:connector-curvature="0" />
    <path
       d="m 22810,14730 100,0 50,20 40,50 30,90 0,170 -30,90 -40,50 -50,30 -100,0 -40,-30 -50,-50 -20,-90 0,-170 20,-90 50,-50 40,-20"
       id="path284"
       inkscape:connector-curvature="0" />
    <path
       d="m 23450,14890 0,340"
       id="path286"
       inkscape:connector-curvature="0" />
    <path
       d="m 23330,14700 -110,360 300,0"
       id="path288"
       inkscape:connector-curvature="0" />
    <path
       d="m 25400,14880 -280,0"
       id="path290"
       inkscape:connector-curvature="0" />
    <path
       d="m 25260,14880 0,-500 -50,70 -50,50 -40,20"
       id="path292"
       inkscape:connector-curvature="0" />
    <path
       d="m 25570,14380 310,0 -170,190 80,0 40,20 30,20 20,50 0,120 -20,50 -30,20 -40,30 -150,0 -40,-30 -30,-20"
       id="path294"
       inkscape:connector-curvature="0" />
    <path
       d="m 24000,14000 3000,0"
       id="path296"
       inkscape:connector-curvature="0" />
    <path
       d="m 21740,13750 -50,-20 -70,0 -70,20 -50,50 -20,50 -20,90 0,70 20,100 20,40 50,50 70,30 50,0 70,-30 20,-20 0,-170 -90,0"
       id="path298"
       inkscape:connector-curvature="0" />
    <path
       d="m 21980,14230 0,-500 190,0 50,20 20,20 20,50 0,70 -20,50 -20,20 -50,30 -190,0"
       id="path300"
       inkscape:connector-curvature="0" />
    <path
       d="m 22480,14230 0,-500"
       id="path302"
       inkscape:connector-curvature="0" />
    <path
       d="m 22810,13730 100,0 50,20 40,50 30,90 0,170 -30,90 -40,50 -50,30 -100,0 -40,-30 -50,-50 -20,-90 0,-170 20,-90 50,-50 40,-20"
       id="path304"
       inkscape:connector-curvature="0" />
    <path
       d="m 23480,13730 -240,0 -20,230 20,-20 50,-20 120,0 40,20 30,20 20,50 0,120 -20,50 -30,20 -40,30 -120,0 -50,-30 -20,-20"
       id="path306"
       inkscape:connector-curvature="0" />
    <path
       d="m 25400,13880 -280,0"
       id="path308"
       inkscape:connector-curvature="0" />
    <path
       d="m 25260,13880 0,-500 -50,70 -50,50 -40,20"
       id="path310"
       inkscape:connector-curvature="0" />
    <path
       d="m 25830,13540 0,340"
       id="path312"
       inkscape:connector-curvature="0" />
    <path
       d="m 25710,13350 -110,360 300,0"
       id="path314"
       inkscape:connector-curvature="0" />
    <path
       d="m 24000,13000 3000,0"
       id="path316"
       inkscape:connector-curvature="0" />
    <path
       d="m 22520,13230 -160,-240"
       id="path318"
       inkscape:connector-curvature="0" />
    <path
       d="m 22240,13230 0,-500 190,0 50,20 20,20 20,50 0,70 -20,50 -20,20 -50,30 -190,0"
       id="path320"
       inkscape:connector-curvature="0" />
    <path
       d="m 22690,12730 330,500"
       id="path322"
       inkscape:connector-curvature="0" />
    <path
       d="m 23020,12730 -330,500"
       id="path324"
       inkscape:connector-curvature="0" />
    <path
       d="m 23220,13230 0,-500 120,0 70,20 50,50 20,50 20,90 0,70 -20,100 -20,40 -50,50 -70,30 -120,0"
       id="path326"
       inkscape:connector-curvature="0" />
    <path
       d="m 25400,12880 -280,0"
       id="path328"
       inkscape:connector-curvature="0" />
    <path
       d="m 25260,12880 0,-500 -50,70 -50,50 -40,20"
       id="path330"
       inkscape:connector-curvature="0" />
    <path
       d="m 25860,12380 -240,0 -20,230 20,-20 50,-20 120,0 40,20 30,20 20,50 0,120 -20,50 -30,20 -40,30 -120,0 -50,-30 -20,-20"
       id="path332"
       inkscape:connector-curvature="0" />
    <path
       d="m 24000,12000 3000,0"
       id="path334"
       inkscape:connector-curvature="0" />
    <path
       d="m 22290,11730 280,0"
       id="path336"
       inkscape:connector-curvature="0" />
    <path
       d="m 22430,12230 0,-500"
       id="path338"
       inkscape:connector-curvature="0" />
    <path
       d="m 22690,11730 330,500"
       id="path340"
       inkscape:connector-curvature="0" />
    <path
       d="m 23020,11730 -330,500"
       id="path342"
       inkscape:connector-curvature="0" />
    <path
       d="m 23220,12230 0,-500 120,0 70,20 50,50 20,50 20,90 0,70 -20,100 -20,40 -50,50 -70,30 -120,0"
       id="path344"
       inkscape:connector-curvature="0" />
    <path
       d="m 25400,11880 -280,0"
       id="path346"
       inkscape:connector-curvature="0" />
    <path
       d="m 25260,11880 0,-500 -50,70 -50,50 -40,20"
       id="path348"
       inkscape:connector-curvature="0" />
    <path
       d="m 25830,11380 -90,0 -50,20 -20,20 -50,80 -20,90 0,190 20,50 20,20 50,30 100,0 40,-30 30,-20 20,-50 0,-120 -20,-50 -30,-20 -40,-20 -100,0 -50,20 -20,20 -20,50"
       id="path350"
       inkscape:connector-curvature="0" />
    <path
       d="m 15500,21000 0,3000"
       id="path352"
       inkscape:connector-curvature="0" />
    <path
       d="m 15680,20200 20,20 30,70 0,50 -30,70 -50,50 -40,20 -100,20 -70,0 -90,-20 -50,-20 -50,-50 -20,-70 0,-50 20,-70 20,-20"
       id="path354"
       inkscape:connector-curvature="0" />
    <path
       d="m 15700,20000 30,-70 0,-120 -30,-40 -20,-30 -50,-20 -50,0 -40,20 -30,30 -20,40 -30,100 -20,50 -20,20 -50,20 -50,0 -50,-20 -20,-20 -20,-50 0,-120 20,-70"
       id="path356"
       inkscape:connector-curvature="0" />
    <path
       d="m 15230,19410 0,-50 20,-50 20,-20 50,-30 100,-20 120,0 90,20 50,30 20,20 30,50 0,50 -30,40 -20,30 -50,20 -90,20 -120,0 -100,-20 -50,-20 -20,-30 -20,-40"
       id="path358"
       inkscape:connector-curvature="0" />
    <path
       d="m 15380,22600 0,280"
       id="path360"
       inkscape:connector-curvature="0" />
    <path
       d="m 15380,22740 -500,0 70,50 50,50 20,40"
       id="path362"
       inkscape:connector-curvature="0" />
    <path
       d="m 14880,22430 0,-330 500,210"
       id="path364"
       inkscape:connector-curvature="0" />
    <path
       d="m 16500,21000 0,3000"
       id="path366"
       inkscape:connector-curvature="0" />
    <path
       d="m 16730,20480 -500,0 350,-170 -350,-160 500,0"
       id="path368"
       inkscape:connector-curvature="0" />
    <path
       d="m 16730,19910 -500,0"
       id="path370"
       inkscape:connector-curvature="0" />
    <path
       d="m 16700,19690 30,-70 0,-120 -30,-40 -20,-30 -50,-20 -50,0 -40,20 -30,30 -20,40 -30,100 -20,50 -20,20 -50,20 -50,0 -50,-20 -20,-20 -20,-50 0,-120 20,-70"
       id="path372"
       inkscape:connector-curvature="0" />
    <path
       d="m 16230,19100 0,-100 20,-50 50,-40 90,-30 170,0 90,30 50,40 30,50 0,100 -30,40 -50,50 -90,20 -170,0 -90,-20 -50,-50 -20,-40"
       id="path374"
       inkscape:connector-curvature="0" />
    <path
       d="m 16380,22600 0,280"
       id="path376"
       inkscape:connector-curvature="0" />
    <path
       d="m 16380,22740 -500,0 70,50 50,50 20,40"
       id="path378"
       inkscape:connector-curvature="0" />
    <path
       d="m 16090,22310 -20,50 -30,20 -40,20 -30,0 -50,-20 -20,-20 -20,-50 0,-100 20,-40 20,-30 50,-20 30,0 40,20 30,30 20,40 0,100 20,50 30,20 50,20 90,0 50,-20 20,-20 30,-50 0,-100 -30,-40 -20,-30 -50,-20 -90,0 -50,20 -30,30 -20,40"
       id="path380"
       inkscape:connector-curvature="0" />
    <path
       d="m 17500,21000 0,3000"
       id="path382"
       inkscape:connector-curvature="0" />
    <path
       d="m 17250,20220 -20,50 0,70 20,70 50,50 50,20 90,20 70,0 100,-20 40,-20 50,-50 30,-70 0,-50 -30,-70 -20,-20 -170,0 0,90"
       id="path384"
       inkscape:connector-curvature="0" />
    <path
       d="m 17730,19980 -500,0 0,-190 20,-50 20,-20 50,-20 70,0 50,20 20,20 30,50 0,190"
       id="path386"
       inkscape:connector-curvature="0" />
    <path
       d="m 17730,19480 -500,0"
       id="path388"
       inkscape:connector-curvature="0" />
    <path
       d="m 17230,19150 0,-100 20,-50 50,-40 90,-30 170,0 90,30 50,40 30,50 0,100 -30,40 -50,50 -90,20 -170,0 -90,-20 -50,-50 -20,-40"
       id="path390"
       inkscape:connector-curvature="0" />
    <path
       d="m 17730,18700 0,-100 -30,-50 -20,-20 -70,-50 -100,-20 -190,0 -50,20 -20,30 -20,40 0,100 20,50 20,20 50,20 120,0 50,-20 20,-20 30,-50 0,-100 -30,-40 -20,-30 -50,-20"
       id="path392"
       inkscape:connector-curvature="0" />
    <path
       d="m 17380,22600 0,280"
       id="path394"
       inkscape:connector-curvature="0" />
    <path
       d="m 17380,22740 -500,0 70,50 50,50 20,40"
       id="path396"
       inkscape:connector-curvature="0" />
    <path
       d="m 17380,22360 0,-100 -30,-50 -20,-20 -70,-50 -100,-20 -190,0 -50,20 -20,30 -20,40 0,100 20,50 20,20 50,20 120,0 50,-20 20,-20 30,-50 0,-100 -30,-40 -20,-30 -50,-20"
       id="path398"
       inkscape:connector-curvature="0" />
    <path
       d="m 17650,15700 0,400 20,50 30,20 40,30 100,0 50,-30 20,-20 20,-50 0,-400"
       id="path400"
       inkscape:connector-curvature="0" />
    <path
       d="m 18240,16150 20,20 -20,30 -20,-30 20,-20 0,50"
       id="path402"
       inkscape:connector-curvature="0" />
    <path
       d="m 18150,15720 40,-20 120,0 50,20 20,50 0,50 -20,40 -20,30 -50,20 -30,20 -20,50 0,30"
       id="path404"
       inkscape:connector-curvature="0" />
    <path
       d="m 16390,13930 170,0"
       id="path406"
       inkscape:connector-curvature="0" />
    <path
       d="m 16630,14200 -240,0 0,-500 240,0"
       id="path408"
       inkscape:connector-curvature="0" />
    <path
       d="m 16820,14170 70,30 120,0 40,-30 30,-20 20,-50 0,-50 -20,-40 -30,-30 -40,-20 -100,-30 -50,-20 -20,-20 -20,-50 0,-50 20,-50 20,-20 50,-20 120,0 70,20"
       id="path410"
       inkscape:connector-curvature="0" />
    <path
       d="m 17320,14200 0,-500 190,0 50,20 20,20 20,50 0,70 -20,50 -20,20 -50,30 -190,0"
       id="path412"
       inkscape:connector-curvature="0" />
    <path
       d="m 17820,14010 380,0"
       id="path414"
       inkscape:connector-curvature="0" />
    <path
       d="m 18700,14200 -280,0"
       id="path416"
       inkscape:connector-curvature="0" />
    <path
       d="m 18560,14200 0,-500 -50,70 -50,50 -40,20"
       id="path418"
       inkscape:connector-curvature="0" />
    <path
       d="m 18900,13740 20,-20 50,-20 120,0 40,20 30,20 20,50 0,50 -20,70 -290,290 310,0"
       id="path420"
       inkscape:connector-curvature="0" />
    <path
       d="m 19400,13930 170,0"
       id="path422"
       inkscape:connector-curvature="0" />
    <path
       d="m 19640,14200 -240,0 0,-500 240,0"
       id="path424"
       inkscape:connector-curvature="0" />
  </g>
  <g
     style="fill:#000000;fill-opacity:0;stroke:#000000;stroke-width:0;stroke-linecap:round;stroke-linejoin:round;stroke-opacity:1"
     id="g426"
     transform="translate(0,-53546.115)" />
  <g
     style="fill:#000000;fill-opacity:0;stroke:#000000;stroke-width:60;stroke-linecap:round;stroke-linejoin:round;stroke-opacity:1"
     id="g428"
     transform="translate(393.70385,-6695.3615)">
    <rect
       x="33500"
       y="18800"
       width="100"
       height="3400"
       rx="0"
       id="rect430" />
    <polyline
       fill="none;"
       points="33600,20100 33900,20200 33900,20800 33600,20900 "
       id="polyline432" />
    <circle
       cx="33000"
       cy="19250"
       r="250"
       id="circle434" />
    <path
       d="m 33000,19000 0,-1500"
       id="path436"
       inkscape:connector-curvature="0" />
    <circle
       cx="33000"
       cy="21750"
       r="250"
       id="circle438" />
    <path
       d="m 33000,22000 0,1500"
       id="path440"
       inkscape:connector-curvature="0" />
    <path
       d="m 34330,22420 30,-70 0,-120 -30,-40 -20,-30 -50,-20 -50,0 -40,20 -30,30 -20,40 -30,100 -20,50 -20,20 -50,20 -50,0 -50,-20 -20,-20 -20,-50 0,-120 20,-70"
       id="path442"
       inkscape:connector-curvature="0" />
    <path
       d="m 33860,21970 500,-120 -360,-100 360,-90 -500,-120"
       id="path444"
       inkscape:connector-curvature="0" />
    <path
       d="m 32460,20880 0,240 -500,0"
       id="path446"
       inkscape:connector-curvature="0" />
    <path
       d="m 31960,20630 0,-100 20,-50 50,-40 90,-30 170,0 90,30 50,40 30,50 0,100 -30,40 -50,50 -90,20 -170,0 -90,-20 -50,-50 -20,-40"
       id="path448"
       inkscape:connector-curvature="0" />
    <path
       d="m 31960,20250 500,-120 -360,-100 360,-90 -500,-120"
       id="path450"
       inkscape:connector-curvature="0" />
  </g>
  <g
     style="fill:#000000;fill-opacity:0;stroke:#000000;stroke-width:0;stroke-linecap:round;stroke-linejoin:round;stroke-opacity:1"
     id="g452"
     transform="translate(0,-53546.115)" />
  <g
     style="fill:#000000;fill-opacity:0;stroke:#000000;stroke-width:60;stroke-linecap:round;stroke-linejoin:round;stroke-opacity:1"
     id="g454"
     transform="translate(393.70385,-6695.3615)">
    <polyline
       fill="none;"
       points="6700,27000 7000,26500 "
       id="polyline456" />
    <polyline
       fill="none;"
       points="7000,27500 7000,26500 "
       id="polyline458" />
    <polyline
       fill="none;"
       points="7000,26500 7300,27000 "
       id="polyline460" />
    <path
       d="m 6000,26110 380,0"
       id="path462"
       inkscape:connector-curvature="0" />
    <path
       d="m 6190,26300 0,-380"
       id="path464"
       inkscape:connector-curvature="0" />
    <path
       d="m 6570,25800 310,0 -170,190 80,0 40,20 30,20 20,50 0,120 -20,50 -30,20 -40,30 -150,0 -40,-30 -30,-20"
       id="path466"
       inkscape:connector-curvature="0" />
    <path
       d="m 7100,26250 20,20 -20,30 -20,-30 20,-20 0,50"
       id="path468"
       inkscape:connector-curvature="0" />
    <path
       d="m 7290,25800 310,0 -170,190 80,0 40,20 30,20 20,50 0,120 -20,50 -30,20 -40,30 -150,0 -40,-30 -30,-20"
       id="path470"
       inkscape:connector-curvature="0" />
    <path
       d="m 7750,25800 160,500 170,-500"
       id="path472"
       inkscape:connector-curvature="0" />
  </g>
  <g
     style="fill:#000000;fill-opacity:0;stroke:#000000;stroke-width:0;stroke-linecap:round;stroke-linejoin:round;stroke-opacity:1"
     id="g474"
     transform="translate(0,-53546.115)" />
  <g
     style="fill:#000000;fill-opacity:0;stroke:#000000;stroke-width:60;stroke-linecap:round;stroke-linejoin:round;stroke-opacity:1"
     id="g476"
     transform="translate(393.70385,-6695.3615)">
    <polyline
       fill="none;"
       points="7000,30500 7000,31000 7500,31000 7000,31500 6500,31000 7000,31000 "
       id="polyline478" />
    <path
       d="m 6620,31720 -50,-20 -70,0 -70,20 -50,50 -20,50 -20,90 0,70 20,100 20,40 50,50 70,30 50,0 70,-30 20,-20 0,-170 -90,0"
       id="path480"
       inkscape:connector-curvature="0" />
    <path
       d="m 6860,32200 0,-500 280,500 0,-500"
       id="path482"
       inkscape:connector-curvature="0" />
    <path
       d="m 7380,32200 0,-500 120,0 70,20 50,50 20,50 20,90 0,70 -20,100 -20,40 -50,50 -70,30 -120,0"
       id="path484"
       inkscape:connector-curvature="0" />
  </g>
  <g
     style="fill:#000000;fill-opacity:0;stroke:#000000;stroke-width:0;stroke-linecap:round;stroke-linejoin:round;stroke-opacity:1"
     id="g486"
     transform="translate(0,-53546.115)" />
  <g
     style="fill:#000000;fill-opacity:0;stroke:#000000;stroke-width:100;stroke-linecap:round;stroke-linejoin:round;stroke-opacity:1"
     id="g488"
     transform="translate(393.70385,-6695.3615)">
    <rect
       x="29100"
       y="16000"
       width="800"
       height="2000"
       rx="0"
       id="rect490" />
  </g>
  <g
     style="fill:#000000;fill-opacity:0;stroke:#000000;stroke-width:60;stroke-linecap:round;stroke-linejoin:round;stroke-opacity:1"
     id="g492"
     transform="translate(393.70385,-6695.3615)">
    <path
       d="m 29500,16000 0,-500"
       id="path494"
       inkscape:connector-curvature="0" />
    <path
       d="m 29500,18000 0,500"
       id="path496"
       inkscape:connector-curvature="0" />
    <path
       d="m 30500,17090 -240,160"
       id="path498"
       inkscape:connector-curvature="0" />
    <path
       d="m 30500,17370 -500,0 0,-190 20,-50 20,-20 50,-20 70,0 50,20 20,20 30,50 0,190"
       id="path500"
       inkscape:connector-curvature="0" />
    <path
       d="m 30500,16610 0,280"
       id="path502"
       inkscape:connector-curvature="0" />
    <path
       d="m 30500,16750 -500,0 70,50 50,50 20,40"
       id="path504"
       inkscape:connector-curvature="0" />
    <path
       d="m 29700,17570 0,280"
       id="path506"
       inkscape:connector-curvature="0" />
    <path
       d="m 29700,17710 -500,0 70,50 50,50 20,40"
       id="path508"
       inkscape:connector-curvature="0" />
    <path
       d="m 29200,17260 0,-50 20,-50 20,-20 50,-30 100,-20 120,0 90,20 50,30 20,20 30,50 0,50 -30,40 -20,30 -50,20 -90,20 -120,0 -100,-20 -50,-20 -20,-30 -20,-40"
       id="path510"
       inkscape:connector-curvature="0" />
    <path
       d="m 29700,16870 -500,0"
       id="path512"
       inkscape:connector-curvature="0" />
    <path
       d="m 29510,16820 190,-140"
       id="path514"
       inkscape:connector-curvature="0" />
    <path
       d="m 29360,16680 190,190"
       id="path516"
       inkscape:connector-curvature="0" />
    <path
       d="m 29700,16490 0,-110 -100,0 -20,40 -50,50 -70,20 -120,0 -70,-20 -50,-50 -20,-70 0,-90 20,-70 50,-50 70,-30 120,0 70,30 50,50 20,40 100,0 0,-120"
       id="path518"
       inkscape:connector-curvature="0" />
  </g>
  <g
     style="fill:#000000;fill-opacity:0;stroke:#000000;stroke-width:0;stroke-linecap:round;stroke-linejoin:round;stroke-opacity:1"
     id="g520"
     transform="translate(0,-53546.115)" />
  <g
     style="fill:#000000;fill-opacity:0;stroke:#000000;stroke-width:100;stroke-linecap:round;stroke-linejoin:round;stroke-opacity:1"
     id="g522"
     transform="translate(393.70385,-6695.3615)">
    <rect
       x="32600"
       y="13500"
       width="800"
       height="2000"
       rx="0"
       id="rect524" />
  </g>
  <g
     style="fill:#000000;fill-opacity:0;stroke:#000000;stroke-width:60;stroke-linecap:round;stroke-linejoin:round;stroke-opacity:1"
     id="g526"
     transform="translate(393.70385,-6695.3615)">
    <path
       d="m 33000,13500 0,-500"
       id="path528"
       inkscape:connector-curvature="0" />
    <path
       d="m 33000,15500 0,500"
       id="path530"
       inkscape:connector-curvature="0" />
    <path
       d="m 34000,14590 -240,160"
       id="path532"
       inkscape:connector-curvature="0" />
    <path
       d="m 34000,14870 -500,0 0,-190 20,-50 20,-20 50,-20 70,0 50,20 20,20 30,50 0,190"
       id="path534"
       inkscape:connector-curvature="0" />
    <path
       d="m 33540,14390 -20,-20 -20,-50 0,-120 20,-40 20,-30 50,-20 50,0 70,20 290,290 0,-310"
       id="path536"
       inkscape:connector-curvature="0" />
    <path
       d="m 33150,14810 20,-20 30,20 -30,20 -20,-20 50,0"
       id="path538"
       inkscape:connector-curvature="0" />
    <path
       d="m 32720,14900 -20,-40 0,-120 20,-50 50,-20 50,0 40,20 30,20 20,50 20,30 50,20 30,0"
       id="path540"
       inkscape:connector-curvature="0" />
    <path
       d="m 33200,14470 0,-110 -100,0 -20,40 -50,50 -70,20 -120,0 -70,-20 -50,-50 -20,-70 0,-90 20,-70 50,-50 70,-30 120,0 70,30 50,50 20,40 100,0 0,-120"
       id="path542"
       inkscape:connector-curvature="0" />
    <path
       d="m 7000,27500 22500,0"
       id="path544"
       inkscape:connector-curvature="0" />
    <path
       d="m 9000,27500 0,-8500"
       id="path546"
       inkscape:connector-curvature="0" />
    <path
       d="m 29500,27500 0,-9000"
       id="path548"
       inkscape:connector-curvature="0" />
  </g>
  <g
     style="fill:#000000;fill-opacity:0;stroke:#000000;stroke-width:0;stroke-linecap:round;stroke-linejoin:round;stroke-opacity:1"
     id="g550"
     transform="translate(0,-53546.115)" />
  <g
     style="fill:#000000;fill-opacity:1;stroke:#000000;stroke-width:100;stroke-linecap:round;stroke-linejoin:round;stroke-opacity:1"
     id="g552"
     transform="translate(393.70385,-6695.3615)">
    <circle
       cx="9000"
       cy="27500"
       r="200"
       id="circle554" />
  </g>
  <g
     style="fill:#000000;fill-opacity:1;stroke:#000000;stroke-width:60;stroke-linecap:round;stroke-linejoin:round;stroke-opacity:1"
     id="g556"
     transform="translate(0,-53546.115)" />
  <g
     style="fill:#000000;fill-opacity:0;stroke:#000000;stroke-width:60;stroke-linecap:round;stroke-linejoin:round;stroke-opacity:1"
     id="g558"
     transform="translate(393.70385,-6695.3615)">
    <path
       d="m 27000,14000 4000,0"
       id="path560"
       inkscape:connector-curvature="0" />
    <path
       d="m 29500,13000 0,2500"
       id="path562"
       inkscape:connector-curvature="0" />
    <path
       d="m 33000,13000 -3500,0"
       id="path564"
       inkscape:connector-curvature="0" />
  </g>
  <g
     style="fill:#000000;fill-opacity:0;stroke:#000000;stroke-width:0;stroke-linecap:round;stroke-linejoin:round;stroke-opacity:1"
     id="g566"
     transform="translate(0,-53546.115)" />
  <g
     style="fill:#000000;fill-opacity:1;stroke:#000000;stroke-width:100;stroke-linecap:round;stroke-linejoin:round;stroke-opacity:1"
     id="g568"
     transform="translate(393.70385,-6695.3615)">
    <circle
       cx="29500"
       cy="14000"
       r="200"
       id="circle570" />
  </g>
  <g
     style="fill:#000000;fill-opacity:1;stroke:#000000;stroke-width:60;stroke-linecap:round;stroke-linejoin:round;stroke-opacity:1"
     id="g572"
     transform="translate(0,-53546.115)" />
  <g
     style="fill:#000000;fill-opacity:0;stroke:#000000;stroke-width:60;stroke-linecap:round;stroke-linejoin:round;stroke-opacity:1"
     id="g574"
     transform="translate(393.70385,-6695.3615)">
    <path
       d="m 33000,16000 0,7500"
       id="path576"
       inkscape:connector-curvature="0" />
    <path
       d="m 33000,22000 0,8500"
       id="path578"
       inkscape:connector-curvature="0" />
    <path
       d="m 33000,30500 -26000,0"
       id="path580"
       inkscape:connector-curvature="0" />
  </g>
  <g
     style="fill:#000000;fill-opacity:0;stroke:#000000;stroke-width:0;stroke-linecap:round;stroke-linejoin:round;stroke-opacity:1"
     id="g582"
     transform="translate(0,-53546.115)" />
  <g
     style="fill:#000000;fill-opacity:1;stroke:#000000;stroke-width:100;stroke-linecap:round;stroke-linejoin:round;stroke-opacity:1"
     id="g584"
     transform="translate(393.70385,-6695.3615)">
    <circle
       cx="33000"
       cy="22000"
       r="200"
       id="circle586" />
  </g>
  <g
     style="fill:#000000;fill-opacity:1;stroke:#000000;stroke-width:60;stroke-linecap:round;stroke-linejoin:round;stroke-opacity:1"
     id="g588"
     transform="translate(0,-53546.115)" />
  <g
     style="fill:#000000;fill-opacity:0;stroke:#000000;stroke-width:60;stroke-linecap:round;stroke-linejoin:round;stroke-opacity:1"
     id="g590"
     transform="translate(393.70385,-6695.3615)">
    <path
       d="m 27000,19000 0,11500"
       id="path592"
       inkscape:connector-curvature="0" />
  </g>
  <g
     style="fill:#000000;fill-opacity:0;stroke:#000000;stroke-width:0;stroke-linecap:round;stroke-linejoin:round;stroke-opacity:1"
     id="g594"
     transform="translate(0,-53546.115)" />
  <g
     style="fill:#000000;fill-opacity:1;stroke:#000000;stroke-width:100;stroke-linecap:round;stroke-linejoin:round;stroke-opacity:1"
     id="g596"
     transform="translate(393.70385,-6695.3615)">
    <circle
       cx="27000"
       cy="30500"
       r="200"
       id="circle598" />
  </g>
  <g
     style="fill:#000000;fill-opacity:1;stroke:#000000;stroke-width:0;stroke-linecap:round;stroke-linejoin:round;stroke-opacity:1"
     id="g600"
     transform="translate(0,-53546.115)" />
  <g
     style="fill:#000000;fill-opacity:0;stroke:#000000;stroke-width:200;stroke-linecap:round;stroke-linejoin:round;stroke-opacity:1"
     id="g602"
     transform="translate(393.70385,-6695.3615)">
    <polyline
       fill="none;"
       points="30200,23800 31800,23800 "
       id="polyline604" />
    <polyline
       fill="none;"
       points="30200,23200 31800,23200 "
       id="polyline606" />
  </g>
  <g
     style="fill:#000000;fill-opacity:0;stroke:#000000;stroke-width:60;stroke-linecap:round;stroke-linejoin:round;stroke-opacity:1"
     id="g608"
     transform="translate(393.70385,-6695.3615)">
    <path
       d="m 31000,23100 0,-1100"
       id="path610"
       inkscape:connector-curvature="0" />
    <path
       d="m 31000,23900 0,1100"
       id="path612"
       inkscape:connector-curvature="0" />
    <path
       d="m 31650,22650 -20,20 -70,30 -50,0 -70,-30 -50,-50 -20,-40 -20,-100 0,-70 20,-90 20,-50 50,-50 70,-20 50,0 70,20 20,20"
       id="path614"
       inkscape:connector-curvature="0" />
    <path
       d="m 31440,24650 20,20 -20,30 -20,-30 20,-20 0,50"
       id="path616"
       inkscape:connector-curvature="0" />
    <path
       d="m 31350,24220 40,-20 120,0 50,20 20,50 0,50 -20,40 -20,30 -50,20 -30,20 -20,50 0,30"
       id="path618"
       inkscape:connector-curvature="0" />
    <path
       d="m 32350,24430 -170,0"
       id="path620"
       inkscape:connector-curvature="0" />
    <path
       d="m 32180,24700 0,-500 240,0"
       id="path622"
       inkscape:connector-curvature="0" />
    <path
       d="m 31000,14000 0,8000"
       id="path624"
       inkscape:connector-curvature="0" />
    <path
       d="m 31000,25000 0,5500"
       id="path626"
       inkscape:connector-curvature="0" />
  </g>
  <g
     style="fill:#000000;fill-opacity:0;stroke:#000000;stroke-width:0;stroke-linecap:round;stroke-linejoin:round;stroke-opacity:1"
     id="g628"
     transform="translate(0,-53546.115)" />
  <g
     style="fill:#000000;fill-opacity:1;stroke:#000000;stroke-width:100;stroke-linecap:round;stroke-linejoin:round;stroke-opacity:1"
     id="g630"
     transform="translate(393.70385,-6695.3615)">
    <circle
       cx="31000"
       cy="30500"
       r="200"
       id="circle632" />
  </g>
</svg>
